{"glyphs":{"0":{"ha":817,"x_min":60,"x_max":757,"o":"m 410 -7 q 589 37 511 -7 q 712 156 667 81 q 757 328 757 232 q 712 501 757 425 q 588 620 667 576 q 407 664 508 664 q 229 621 308 664 q 105 503 150 578 q 60 333 60 429 q 105 159 60 236 q 229 38 150 82 q 410 -7 308 -7 m 411 121 q 311 149 356 121 q 241 226 267 178 q 215 335 215 275 q 241 440 215 394 q 310 510 267 485 q 407 536 354 536 q 507 508 464 536 q 574 433 550 481 q 597 326 597 386 q 574 220 597 267 q 508 147 550 174 q 411 121 465 121 "},"1":{"ha":601,"x_min":50,"x_max":436,"o":"m 274 0 l 436 0 l 436 657 l 356 657 l 50 501 l 121 375 l 399 528 l 274 514 l 274 0 "},"2":{"ha":675,"x_min":49,"x_max":653,"o":"m 56 83 l 81 0 l 653 0 l 653 136 l 246 136 l 233 78 q 367 167 307 121 q 469 263 426 214 q 535 360 513 311 q 558 458 558 410 q 533 554 558 507 q 456 633 508 601 q 322 664 404 664 q 174 631 244 664 q 49 525 103 599 l 128 450 q 202 508 160 492 q 279 525 244 525 q 369 497 339 525 q 399 425 399 469 q 364 331 399 381 q 253 221 329 281 q 56 83 178 161 "},"3":{"ha":585,"x_min":26,"x_max":542,"o":"m 110 279 l 146 192 q 295 256 229 222 q 408 328 361 290 q 478 405 454 365 q 503 488 503 444 q 480 569 503 528 q 408 638 457 610 q 281 667 358 667 q 143 638 208 667 q 26 547 78 610 l 103 471 q 170 523 135 508 q 240 538 206 538 q 301 524 279 538 q 333 491 324 511 q 343 451 343 471 q 292 363 343 407 q 110 279 242 319 m 96 -199 q 342 -121 243 -171 q 492 -8 442 -71 q 542 126 542 56 q 518 219 542 172 q 442 297 494 265 q 300 328 389 328 q 261 325 279 328 q 226 315 243 322 l 146 192 q 201 203 176 200 q 242 206 226 206 q 340 176 307 206 q 374 108 374 146 q 293 -5 374 49 q 60 -90 213 -58 l 96 -199 "},"4":{"ha":693,"x_min":26,"x_max":678,"o":"m 415 -199 l 553 -169 l 553 657 l 401 657 l 26 119 l 61 40 l 678 38 l 678 163 l 88 151 l 146 81 l 492 574 l 415 554 l 415 -199 "},"5":{"ha":610,"x_min":89,"x_max":546,"o":"m 142 418 l 217 375 l 238 590 l 175 519 l 526 526 l 540 669 l 124 650 l 89 286 q 312 249 236 286 q 388 136 388 213 q 310 9 388 65 q 89 -90 233 -47 l 125 -199 q 293 -149 217 -181 q 426 -72 369 -117 q 515 32 483 -26 q 546 161 546 90 q 526 255 546 210 q 460 337 507 300 q 336 395 414 374 q 142 418 258 417 "},"6":{"ha":725,"x_min":60,"x_max":676,"o":"m 443 538 q 333 517 382 538 q 244 463 283 497 q 171 388 204 429 l 201 349 q 282 401 233 383 q 372 418 331 418 q 451 394 421 418 q 495 331 481 369 q 510 249 510 293 q 494 177 510 210 q 448 126 478 144 q 375 107 418 107 q 265 164 307 107 q 222 324 222 221 q 247 449 222 388 q 319 568 271 511 q 442 672 368 625 q 617 754 517 719 l 575 854 q 358 760 453 819 q 196 628 263 701 q 94 471 129 554 q 60 304 60 388 q 97 135 60 206 q 199 27 133 64 q 349 -10 264 -10 q 516 31 442 -10 q 633 141 590 72 q 676 293 676 210 q 653 408 676 351 q 578 501 629 464 q 443 538 526 538 "},"7":{"ha":678,"x_min":51,"x_max":650,"o":"m 272 -187 l 650 657 l 51 657 l 51 513 l 547 513 l 460 557 l 129 -122 l 272 -187 "},"8":{"ha":717,"x_min":61,"x_max":656,"o":"m 371 485 l 435 432 q 561 533 511 472 q 611 667 611 594 q 583 759 611 719 q 502 821 554 799 q 378 843 450 843 q 235 814 296 843 q 141 735 174 785 q 108 624 108 686 q 130 535 108 572 q 187 472 151 499 q 265 423 222 444 q 351 382 308 401 q 428 340 393 363 q 485 289 464 318 q 507 219 507 260 q 478 144 507 179 q 375 108 449 108 q 295 122 333 108 q 233 165 257 136 q 210 239 210 194 q 239 333 210 285 q 325 418 268 382 l 261 471 q 115 354 168 424 q 61 206 61 285 q 99 90 61 139 q 202 16 138 42 q 346 -10 267 -10 q 510 25 440 -10 q 617 118 579 60 q 656 249 656 176 q 634 344 656 304 q 576 412 613 383 q 498 462 540 440 q 413 501 456 483 q 335 539 371 519 q 277 583 299 558 q 256 643 256 608 q 283 704 256 682 q 356 726 311 726 q 435 699 407 726 q 464 628 464 671 q 438 547 464 585 q 371 485 411 510 "},"9":{"ha":717,"x_min":50,"x_max":667,"o":"m 151 -197 q 372 -101 276 -160 q 534 33 468 -42 q 633 190 600 107 q 667 358 667 274 q 628 522 667 453 q 523 629 590 592 q 367 667 456 667 q 203 627 275 667 q 91 522 132 588 q 50 376 50 457 q 76 257 50 317 q 156 158 101 197 q 296 119 211 119 q 402 140 356 119 q 486 194 449 160 q 556 269 524 228 l 525 308 q 451 256 496 274 q 368 239 407 239 q 283 266 317 239 q 233 333 249 293 q 217 415 217 374 q 231 487 217 457 q 273 533 246 517 q 339 550 300 550 q 458 493 413 550 q 504 339 504 436 q 480 208 504 272 q 406 88 456 144 q 283 -15 357 32 q 110 -97 210 -62 l 151 -197 "},"A":{"ha":939,"x_min":36,"x_max":903,"o":"m 714 0 l 903 0 l 554 914 l 404 914 l 36 0 l 213 0 l 494 822 l 426 822 l 714 0 m 199 258 l 717 258 l 643 396 l 249 396 l 199 258 "},"Á":{"ha":939,"x_min":36,"x_max":903,"o":"m 714 0 l 903 0 l 554 914 l 404 914 l 36 0 l 213 0 l 494 822 l 426 822 l 714 0 m 199 258 l 717 258 l 643 396 l 249 396 l 199 258 m 399 1015 l 526 1015 l 682 1260 l 489 1260 l 399 1015 "},"Ă":{"ha":939,"x_min":36,"x_max":903,"o":"m 714 0 l 903 0 l 554 914 l 404 914 l 36 0 l 213 0 l 494 822 l 426 822 l 714 0 m 199 258 l 717 258 l 643 396 l 249 396 l 199 258 m 474 979 q 618 1036 561 979 q 693 1196 675 1093 l 606 1210 q 559 1135 596 1163 q 474 1108 522 1108 q 389 1135 425 1108 q 342 1210 353 1163 l 254 1196 q 329 1036 272 1093 q 474 979 386 979 "},"Ắ":{"ha":939,"x_min":36,"x_max":903,"o":"m 714 0 l 903 0 l 554 914 l 404 914 l 36 0 l 213 0 l 494 822 l 426 822 l 714 0 m 199 258 l 717 258 l 643 396 l 249 396 l 199 258 m 474 979 q 618 1036 561 979 q 693 1196 675 1093 l 606 1210 q 559 1135 596 1163 q 474 1108 522 1108 q 389 1135 425 1108 q 342 1210 353 1163 l 254 1196 q 329 1036 272 1093 q 474 979 386 979 m 411 1213 l 522 1213 l 669 1429 l 504 1429 l 411 1213 "},"Ặ":{"ha":939,"x_min":36,"x_max":903,"o":"m 714 0 l 903 0 l 554 914 l 404 914 l 36 0 l 213 0 l 494 822 l 426 822 l 714 0 m 199 258 l 717 258 l 643 396 l 249 396 l 199 258 m 469 -314 q 542 -287 514 -314 q 569 -217 569 -261 q 542 -145 569 -172 q 469 -118 514 -118 q 396 -145 424 -118 q 368 -217 368 -172 q 396 -287 368 -261 q 469 -314 424 -314 m 474 979 q 618 1036 561 979 q 693 1196 675 1093 l 606 1210 q 559 1135 596 1163 q 474 1108 522 1108 q 389 1135 425 1108 q 342 1210 353 1163 l 254 1196 q 329 1036 272 1093 q 474 979 386 979 "},"Ằ":{"ha":939,"x_min":36,"x_max":903,"o":"m 714 0 l 903 0 l 554 914 l 404 914 l 36 0 l 213 0 l 494 822 l 426 822 l 714 0 m 199 258 l 717 258 l 643 396 l 249 396 l 199 258 m 474 979 q 618 1036 561 979 q 693 1196 675 1093 l 606 1210 q 559 1135 596 1163 q 474 1108 522 1108 q 389 1135 425 1108 q 342 1210 353 1163 l 254 1196 q 329 1036 272 1093 q 474 979 386 979 m 425 1213 l 536 1213 l 443 1429 l 278 1429 l 425 1213 "},"Ẳ":{"ha":939,"x_min":36,"x_max":903,"o":"m 714 0 l 903 0 l 554 914 l 404 914 l 36 0 l 213 0 l 494 822 l 426 822 l 714 0 m 199 258 l 717 258 l 643 396 l 249 396 l 199 258 m 474 979 q 618 1036 561 979 q 693 1196 675 1093 l 606 1210 q 559 1135 596 1163 q 474 1108 522 1108 q 389 1135 425 1108 q 342 1210 353 1163 l 254 1196 q 329 1036 272 1093 q 474 979 386 979 m 414 1188 l 503 1188 l 503 1267 l 465 1231 q 567 1260 531 1231 q 603 1335 603 1289 q 570 1408 603 1378 q 485 1438 538 1438 q 424 1426 458 1438 q 358 1382 390 1415 l 383 1338 q 414 1355 396 1349 q 446 1361 432 1361 q 484 1349 471 1361 q 497 1322 497 1338 q 468 1284 497 1299 q 411 1269 439 1269 l 414 1188 "},"Ẵ":{"ha":939,"x_min":36,"x_max":903,"o":"m 714 0 l 903 0 l 554 914 l 404 914 l 36 0 l 213 0 l 494 822 l 426 822 l 714 0 m 199 258 l 717 258 l 643 396 l 249 396 l 199 258 m 474 979 q 618 1036 561 979 q 693 1196 675 1093 l 606 1210 q 559 1135 596 1163 q 474 1108 522 1108 q 389 1135 425 1108 q 342 1210 353 1163 l 254 1196 q 329 1036 272 1093 q 474 979 386 979 m 339 1258 q 365 1298 347 1285 q 404 1311 382 1311 q 442 1300 426 1311 q 481 1277 458 1289 q 542 1265 503 1265 q 633 1307 590 1265 q 693 1415 675 1349 l 607 1436 q 581 1385 599 1403 q 542 1368 564 1368 q 501 1380 519 1368 q 460 1403 482 1392 q 404 1415 438 1415 q 313 1376 356 1415 q 253 1279 271 1338 l 339 1258 "},"Ǎ":{"ha":939,"x_min":36,"x_max":903,"o":"m 714 0 l 903 0 l 554 914 l 404 914 l 36 0 l 213 0 l 494 822 l 426 822 l 714 0 m 199 258 l 717 258 l 643 396 l 249 396 l 199 258 m 418 1015 l 528 1015 l 711 1260 l 588 1260 l 447 1119 l 418 1015 m 418 1015 l 528 1015 l 500 1117 l 358 1260 l 235 1260 l 418 1015 "},"Â":{"ha":939,"x_min":36,"x_max":903,"o":"m 714 0 l 903 0 l 554 914 l 404 914 l 36 0 l 213 0 l 494 822 l 426 822 l 714 0 m 199 258 l 717 258 l 643 396 l 249 396 l 199 258 m 588 1015 l 711 1015 l 528 1260 l 418 1260 l 447 1156 l 588 1015 m 235 1015 l 358 1015 l 500 1158 l 528 1260 l 418 1260 l 235 1015 "},"Ấ":{"ha":939,"x_min":36,"x_max":903,"o":"m 714 0 l 903 0 l 554 914 l 404 914 l 36 0 l 213 0 l 494 822 l 426 822 l 714 0 m 199 258 l 717 258 l 643 396 l 249 396 l 199 258 m 589 986 l 713 986 l 529 1231 l 419 1231 l 449 1126 l 589 986 m 236 986 l 360 986 l 501 1129 l 529 1231 l 419 1231 l 236 986 m 640 1119 l 751 1119 l 899 1336 l 733 1336 l 640 1119 "},"Ậ":{"ha":939,"x_min":36,"x_max":903,"o":"m 714 0 l 903 0 l 554 914 l 404 914 l 36 0 l 213 0 l 494 822 l 426 822 l 714 0 m 199 258 l 717 258 l 643 396 l 249 396 l 199 258 m 469 -314 q 542 -287 514 -314 q 569 -217 569 -261 q 542 -145 569 -172 q 469 -118 514 -118 q 396 -145 424 -118 q 368 -217 368 -172 q 396 -287 368 -261 q 469 -314 424 -314 m 588 1015 l 711 1015 l 528 1260 l 418 1260 l 447 1156 l 588 1015 m 235 1015 l 358 1015 l 500 1158 l 528 1260 l 418 1260 l 235 1015 "},"Ầ":{"ha":939,"x_min":36,"x_max":903,"o":"m 714 0 l 903 0 l 554 914 l 404 914 l 36 0 l 213 0 l 494 822 l 426 822 l 714 0 m 199 258 l 717 258 l 643 396 l 249 396 l 199 258 m 588 986 l 711 986 l 528 1231 l 418 1231 l 447 1126 l 588 986 m 235 986 l 358 986 l 500 1129 l 528 1231 l 418 1231 l 235 986 m 703 1119 l 814 1119 l 721 1336 l 556 1336 l 703 1119 "},"Ẩ":{"ha":939,"x_min":36,"x_max":903,"o":"m 714 0 l 903 0 l 554 914 l 404 914 l 36 0 l 213 0 l 494 822 l 426 822 l 714 0 m 199 258 l 717 258 l 643 396 l 249 396 l 199 258 m 589 986 l 713 986 l 529 1231 l 419 1231 l 449 1126 l 589 986 m 236 986 l 360 986 l 501 1129 l 529 1231 l 419 1231 l 236 986 m 658 1119 l 747 1119 l 747 1199 l 710 1163 q 811 1192 775 1163 q 847 1267 847 1221 q 815 1340 847 1310 q 729 1369 782 1369 q 669 1358 703 1369 q 603 1314 635 1347 l 628 1269 q 658 1287 640 1281 q 690 1293 676 1293 q 728 1281 715 1293 q 742 1254 742 1269 q 713 1216 742 1231 q 656 1201 683 1201 l 658 1119 "},"Ẫ":{"ha":939,"x_min":36,"x_max":903,"o":"m 714 0 l 903 0 l 554 914 l 404 914 l 36 0 l 213 0 l 494 822 l 426 822 l 714 0 m 199 258 l 717 258 l 643 396 l 249 396 l 199 258 m 589 986 l 713 986 l 529 1231 l 419 1231 l 449 1126 l 589 986 m 236 986 l 360 986 l 501 1129 l 529 1231 l 419 1231 l 236 986 m 344 1257 q 370 1297 353 1283 q 410 1310 388 1310 q 448 1299 432 1310 q 486 1276 464 1288 q 547 1264 508 1264 q 638 1306 596 1264 q 699 1414 681 1347 l 613 1435 q 587 1384 604 1401 q 547 1367 569 1367 q 506 1378 525 1367 q 465 1402 488 1390 q 410 1414 443 1414 q 319 1375 361 1414 q 258 1278 276 1336 l 344 1257 "},"Ä":{"ha":939,"x_min":36,"x_max":903,"o":"m 714 0 l 903 0 l 554 914 l 404 914 l 36 0 l 213 0 l 494 822 l 426 822 l 714 0 m 199 258 l 717 258 l 643 396 l 249 396 l 199 258 m 336 1006 q 403 1031 378 1006 q 429 1096 429 1057 q 403 1163 429 1138 q 336 1189 378 1189 q 269 1163 294 1189 q 243 1096 243 1138 q 269 1031 243 1057 q 336 1006 294 1006 m 611 1006 q 677 1031 651 1006 q 703 1096 703 1057 q 677 1163 703 1138 q 611 1189 651 1189 q 542 1163 568 1189 q 515 1096 515 1138 q 542 1031 515 1057 q 611 1006 568 1006 "},"Ạ":{"ha":939,"x_min":36,"x_max":903,"o":"m 714 0 l 903 0 l 554 914 l 404 914 l 36 0 l 213 0 l 494 822 l 426 822 l 714 0 m 199 258 l 717 258 l 643 396 l 249 396 l 199 258 m 469 -314 q 542 -287 514 -314 q 569 -217 569 -261 q 542 -145 569 -172 q 469 -118 514 -118 q 396 -145 424 -118 q 368 -217 368 -172 q 396 -287 368 -261 q 469 -314 424 -314 "},"À":{"ha":939,"x_min":36,"x_max":903,"o":"m 714 0 l 903 0 l 554 914 l 404 914 l 36 0 l 213 0 l 494 822 l 426 822 l 714 0 m 199 258 l 717 258 l 643 396 l 249 396 l 199 258 m 421 1015 l 549 1015 l 458 1260 l 265 1260 l 421 1015 "},"Ả":{"ha":939,"x_min":36,"x_max":903,"o":"m 714 0 l 903 0 l 554 914 l 404 914 l 36 0 l 213 0 l 494 822 l 426 822 l 714 0 m 199 258 l 717 258 l 643 396 l 249 396 l 199 258 m 410 971 l 543 971 l 543 1079 l 475 1028 q 608 1061 560 1028 q 656 1146 656 1094 q 610 1230 656 1194 q 488 1265 564 1265 q 412 1253 454 1265 q 329 1210 369 1242 l 379 1149 q 416 1167 394 1161 q 456 1172 438 1172 q 494 1161 481 1172 q 507 1128 507 1150 q 481 1094 507 1107 q 407 1082 456 1082 l 410 971 "},"Ā":{"ha":939,"x_min":36,"x_max":903,"o":"m 714 0 l 903 0 l 554 914 l 404 914 l 36 0 l 213 0 l 494 822 l 426 822 l 714 0 m 199 258 l 717 258 l 643 396 l 249 396 l 199 258 m 247 1036 l 699 1036 l 699 1150 l 247 1150 l 247 1036 "},"Ą":{"ha":939,"x_min":36,"x_max":975,"o":"m 714 0 l 903 0 l 554 914 l 404 914 l 36 0 l 213 0 l 494 822 l 426 822 l 714 0 m 199 258 l 717 258 l 643 396 l 249 396 l 199 258 m 825 -401 q 906 -391 871 -401 q 975 -360 942 -381 l 936 -275 q 910 -283 924 -281 q 885 -285 897 -285 q 799 -250 825 -285 q 774 -172 774 -215 q 805 -79 774 -124 q 903 0 836 -35 l 790 57 q 649 -71 693 0 q 604 -211 604 -142 q 662 -349 604 -297 q 825 -401 719 -401 "},"Å":{"ha":939,"x_min":36,"x_max":903,"o":"m 714 0 l 903 0 l 554 914 l 404 914 l 36 0 l 213 0 l 494 822 l 426 822 l 714 0 m 199 258 l 717 258 l 643 396 l 249 396 l 199 258 m 472 957 q 600 997 550 957 q 650 1099 650 1038 q 601 1201 650 1160 q 476 1242 553 1242 q 348 1202 399 1242 q 297 1101 297 1163 q 347 998 297 1039 q 472 957 396 957 m 475 1031 q 431 1050 449 1031 q 414 1101 414 1069 q 431 1150 414 1132 q 474 1168 447 1168 q 517 1149 501 1168 q 533 1099 533 1131 q 517 1049 533 1068 q 475 1031 501 1031 "},"Ǻ":{"ha":939,"x_min":36,"x_max":903,"o":"m 714 0 l 903 0 l 554 914 l 404 914 l 36 0 l 213 0 l 494 822 l 426 822 l 714 0 m 199 258 l 717 258 l 643 396 l 249 396 l 199 258 m 311 1211 l 663 1339 l 607 1467 l 276 1289 l 311 1211 m 465 947 q 593 983 543 947 q 643 1075 643 1019 q 594 1167 643 1131 q 469 1204 546 1204 q 341 1168 392 1204 q 290 1078 290 1132 q 340 985 290 1022 q 465 947 389 947 m 468 1010 q 429 1028 444 1010 q 414 1078 414 1047 q 428 1124 414 1107 q 467 1142 443 1142 q 505 1124 490 1142 q 519 1075 519 1106 q 506 1027 519 1044 q 468 1010 492 1010 "},"Ã":{"ha":939,"x_min":36,"x_max":903,"o":"m 714 0 l 903 0 l 554 914 l 404 914 l 36 0 l 213 0 l 494 822 l 426 822 l 714 0 m 199 258 l 717 258 l 643 396 l 249 396 l 199 258 m 310 976 q 342 1015 321 1001 q 390 1029 364 1029 q 442 1025 415 1029 q 499 1016 469 1021 q 557 1011 528 1011 q 656 1060 610 1011 q 724 1186 703 1108 l 636 1206 q 605 1156 626 1174 q 557 1139 583 1139 q 501 1144 531 1139 q 442 1153 471 1149 q 390 1157 414 1157 q 322 1136 354 1157 q 263 1079 289 1115 q 224 997 238 1043 l 310 976 "},"Æ":{"ha":1238,"x_min":-14,"x_max":1175,"o":"m -14 0 l 186 0 l 674 914 l 529 914 l -14 0 m 274 282 l 697 282 l 697 419 l 347 419 l 274 282 m 697 393 l 1079 393 l 1079 531 l 697 531 l 697 393 m 615 0 l 1175 0 l 1175 139 l 775 139 l 775 775 l 1132 775 l 1132 914 l 615 914 l 615 0 "},"Ǽ":{"ha":1238,"x_min":-14,"x_max":1175,"o":"m -14 0 l 186 0 l 674 914 l 529 914 l -14 0 m 274 282 l 697 282 l 697 419 l 347 419 l 274 282 m 697 393 l 1079 393 l 1079 531 l 697 531 l 697 393 m 615 0 l 1175 0 l 1175 139 l 775 139 l 775 775 l 1132 775 l 1132 914 l 615 914 l 615 0 m 678 1015 l 806 1015 l 961 1260 l 768 1260 l 678 1015 "},"Ǣ":{"ha":1238,"x_min":-14,"x_max":1175,"o":"m -14 0 l 186 0 l 674 914 l 529 914 l -14 0 m 274 282 l 697 282 l 697 419 l 347 419 l 274 282 m 697 393 l 1079 393 l 1079 531 l 697 531 l 697 393 m 615 0 l 1175 0 l 1175 139 l 775 139 l 775 775 l 1132 775 l 1132 914 l 615 914 l 615 0 m 526 1036 l 978 1036 l 978 1150 l 526 1150 l 526 1036 "},"B":{"ha":824,"x_min":132,"x_max":763,"o":"m 396 428 q 515 449 460 428 q 613 508 571 471 q 679 592 656 544 q 703 693 703 640 q 666 810 703 760 q 565 887 629 860 q 417 914 501 914 l 132 914 l 132 0 l 399 0 q 592 34 511 0 q 718 129 674 68 q 763 269 763 190 q 720 404 763 347 q 601 493 678 461 q 425 525 525 525 l 396 428 m 242 536 l 242 417 l 386 417 q 542 377 496 417 q 589 269 589 338 q 549 163 589 201 q 426 124 508 124 l 293 124 l 293 790 l 388 790 q 509 751 476 790 q 542 660 542 711 q 506 569 542 603 q 415 536 471 536 l 242 536 "},"C":{"ha":906,"x_min":72,"x_max":874,"o":"m 547 -18 q 719 5 636 -18 q 874 75 801 28 l 800 214 q 697 138 758 167 q 564 108 636 108 q 415 153 483 108 q 304 280 346 199 q 263 471 263 361 q 295 648 263 574 q 390 762 328 722 q 536 801 451 801 q 662 776 601 801 q 785 696 722 750 l 865 851 q 722 912 797 892 q 574 932 647 932 q 381 899 471 932 q 221 802 290 865 q 112 648 151 739 q 72 440 72 557 q 132 201 72 304 q 299 40 192 97 q 547 -18 406 -18 "},"Ć":{"ha":906,"x_min":72,"x_max":874,"o":"m 547 -18 q 719 5 636 -18 q 874 75 801 28 l 800 214 q 697 138 758 167 q 564 108 636 108 q 415 153 483 108 q 304 280 346 199 q 263 471 263 361 q 295 648 263 574 q 390 762 328 722 q 536 801 451 801 q 662 776 601 801 q 785 696 722 750 l 865 851 q 722 912 797 892 q 574 932 647 932 q 381 899 471 932 q 221 802 290 865 q 112 648 151 739 q 72 440 72 557 q 132 201 72 304 q 299 40 192 97 q 547 -18 406 -18 m 474 1015 l 601 1015 l 757 1260 l 564 1260 l 474 1015 "},"Č":{"ha":906,"x_min":72,"x_max":874,"o":"m 547 -18 q 719 5 636 -18 q 874 75 801 28 l 800 214 q 697 138 758 167 q 564 108 636 108 q 415 153 483 108 q 304 280 346 199 q 263 471 263 361 q 295 648 263 574 q 390 762 328 722 q 536 801 451 801 q 662 776 601 801 q 785 696 722 750 l 865 851 q 722 912 797 892 q 574 932 647 932 q 381 899 471 932 q 221 802 290 865 q 112 648 151 739 q 72 440 72 557 q 132 201 72 304 q 299 40 192 97 q 547 -18 406 -18 m 493 1015 l 603 1015 l 786 1260 l 663 1260 l 522 1119 l 493 1015 m 493 1015 l 603 1015 l 575 1117 l 433 1260 l 310 1260 l 493 1015 "},"Ç":{"ha":906,"x_min":72,"x_max":874,"o":"m 547 -18 q 719 5 636 -18 q 874 75 801 28 l 800 214 q 697 138 758 167 q 564 108 636 108 q 415 153 483 108 q 304 280 346 199 q 263 471 263 361 q 295 648 263 574 q 390 762 328 722 q 536 801 451 801 q 662 776 601 801 q 785 696 722 750 l 865 851 q 722 912 797 892 q 574 932 647 932 q 381 899 471 932 q 221 802 290 865 q 112 648 151 739 q 72 440 72 557 q 132 201 72 304 q 299 40 192 97 q 547 -18 406 -18 m 497 0 l 444 -167 q 474 -160 460 -162 q 501 -158 488 -158 q 567 -176 540 -158 q 594 -222 594 -193 q 578 -262 594 -243 q 522 -281 561 -281 q 467 -272 496 -281 q 419 -250 439 -264 l 390 -328 q 458 -361 421 -350 q 539 -372 496 -372 q 676 -332 625 -372 q 728 -225 728 -292 q 684 -123 728 -161 q 571 -85 640 -85 q 524 -90 544 -85 q 490 -107 504 -96 l 556 -128 l 590 0 l 497 0 "},"Ĉ":{"ha":906,"x_min":72,"x_max":874,"o":"m 547 -18 q 719 5 636 -18 q 874 75 801 28 l 800 214 q 697 138 758 167 q 564 108 636 108 q 415 153 483 108 q 304 280 346 199 q 263 471 263 361 q 295 648 263 574 q 390 762 328 722 q 536 801 451 801 q 662 776 601 801 q 785 696 722 750 l 865 851 q 722 912 797 892 q 574 932 647 932 q 381 899 471 932 q 221 802 290 865 q 112 648 151 739 q 72 440 72 557 q 132 201 72 304 q 299 40 192 97 q 547 -18 406 -18 m 663 1015 l 786 1015 l 603 1260 l 493 1260 l 522 1156 l 663 1015 m 310 1015 l 433 1015 l 575 1158 l 603 1260 l 493 1260 l 310 1015 "},"Ċ":{"ha":906,"x_min":72,"x_max":874,"o":"m 547 -18 q 719 5 636 -18 q 874 75 801 28 l 800 214 q 697 138 758 167 q 564 108 636 108 q 415 153 483 108 q 304 280 346 199 q 263 471 263 361 q 295 648 263 574 q 390 762 328 722 q 536 801 451 801 q 662 776 601 801 q 785 696 722 750 l 865 851 q 722 912 797 892 q 574 932 647 932 q 381 899 471 932 q 221 802 290 865 q 112 648 151 739 q 72 440 72 557 q 132 201 72 304 q 299 40 192 97 q 547 -18 406 -18 m 549 1015 q 621 1042 593 1015 q 649 1113 649 1068 q 621 1184 649 1157 q 549 1211 593 1211 q 475 1184 503 1211 q 447 1113 447 1157 q 475 1042 447 1068 q 549 1015 503 1015 "},"D":{"ha":1019,"x_min":132,"x_max":947,"o":"m 132 0 l 411 0 q 663 43 560 0 q 828 157 765 86 q 919 313 890 228 q 947 482 947 399 q 909 667 947 586 q 801 802 871 747 q 638 885 732 857 q 435 914 544 914 l 132 914 l 132 0 m 307 126 l 307 785 l 406 785 q 617 738 539 785 q 728 615 694 690 q 761 451 761 539 q 747 331 761 389 q 695 227 732 274 q 593 153 658 181 q 426 126 528 126 l 307 126 "},"Ð":{"ha":1032,"x_min":39,"x_max":961,"o":"m 146 0 l 425 0 q 676 43 574 0 q 842 157 779 86 q 933 313 904 228 q 961 482 961 399 q 895 717 961 621 q 713 864 829 814 q 449 914 597 914 l 146 914 l 146 0 m 39 392 l 546 392 l 546 521 l 39 521 l 39 392 m 321 126 l 321 785 l 419 785 q 631 738 553 785 q 742 615 708 690 q 775 451 775 539 q 760 331 775 389 q 709 227 746 274 q 607 153 672 181 q 440 126 542 126 l 321 126 "},"Ď":{"ha":1019,"x_min":132,"x_max":947,"o":"m 132 0 l 411 0 q 663 43 560 0 q 828 157 765 86 q 919 313 890 228 q 947 482 947 399 q 909 667 947 586 q 801 802 871 747 q 638 885 732 857 q 435 914 544 914 l 132 914 l 132 0 m 307 126 l 307 785 l 406 785 q 617 738 539 785 q 728 615 694 690 q 761 451 761 539 q 747 331 761 389 q 695 227 732 274 q 593 153 658 181 q 426 126 528 126 l 307 126 m 400 1015 l 510 1015 l 693 1260 l 569 1260 l 429 1119 l 400 1015 m 400 1015 l 510 1015 l 482 1117 l 340 1260 l 217 1260 l 400 1015 "},"Đ":{"ha":1032,"x_min":39,"x_max":961,"o":"m 146 0 l 425 0 q 676 43 574 0 q 842 157 779 86 q 933 313 904 228 q 961 482 961 399 q 895 717 961 621 q 713 864 829 814 q 449 914 597 914 l 146 914 l 146 0 m 39 392 l 546 392 l 546 521 l 39 521 l 39 392 m 321 126 l 321 785 l 419 785 q 631 738 553 785 q 742 615 708 690 q 775 451 775 539 q 760 331 775 389 q 709 227 746 274 q 607 153 672 181 q 440 126 542 126 l 321 126 "},"Ḍ":{"ha":1019,"x_min":132,"x_max":947,"o":"m 132 0 l 411 0 q 663 43 560 0 q 828 157 765 86 q 919 313 890 228 q 947 482 947 399 q 909 667 947 586 q 801 802 871 747 q 638 885 732 857 q 435 914 544 914 l 132 914 l 132 0 m 307 126 l 307 785 l 406 785 q 617 738 539 785 q 728 615 694 690 q 761 451 761 539 q 747 331 761 389 q 695 227 732 274 q 593 153 658 181 q 426 126 528 126 l 307 126 m 475 -314 q 547 -287 519 -314 q 575 -217 575 -261 q 547 -145 575 -172 q 475 -118 519 -118 q 401 -145 429 -118 q 374 -217 374 -172 q 401 -287 374 -261 q 475 -314 429 -314 "},"Ḏ":{"ha":1019,"x_min":132,"x_max":947,"o":"m 132 0 l 411 0 q 663 43 560 0 q 828 157 765 86 q 919 313 890 228 q 947 482 947 399 q 909 667 947 586 q 801 802 871 747 q 638 885 732 857 q 435 914 544 914 l 132 914 l 132 0 m 307 126 l 307 785 l 406 785 q 617 738 539 785 q 728 615 694 690 q 761 451 761 539 q 747 331 761 389 q 695 227 732 274 q 593 153 658 181 q 426 126 528 126 l 307 126 m 290 -237 l 658 -237 l 658 -124 l 290 -124 l 290 -237 "},"E":{"ha":804,"x_min":132,"x_max":733,"o":"m 733 0 l 733 139 l 301 139 l 301 775 l 686 775 l 686 914 l 132 914 l 132 0 l 733 0 m 186 396 l 633 396 l 633 531 l 186 531 l 186 396 "},"É":{"ha":804,"x_min":132,"x_max":733,"o":"m 733 0 l 733 139 l 301 139 l 301 775 l 686 775 l 686 914 l 132 914 l 132 0 l 733 0 m 186 396 l 633 396 l 633 531 l 186 531 l 186 396 m 363 1015 l 490 1015 l 646 1260 l 453 1260 l 363 1015 "},"Ĕ":{"ha":804,"x_min":132,"x_max":733,"o":"m 733 0 l 733 139 l 301 139 l 301 775 l 686 775 l 686 914 l 132 914 l 132 0 l 733 0 m 186 396 l 633 396 l 633 531 l 186 531 l 186 396 m 438 979 q 582 1036 525 979 q 657 1196 639 1093 l 569 1210 q 523 1135 560 1163 q 438 1108 486 1108 q 353 1135 389 1108 q 306 1210 317 1163 l 218 1196 q 293 1036 236 1093 q 438 979 350 979 "},"Ě":{"ha":804,"x_min":132,"x_max":733,"o":"m 733 0 l 733 139 l 301 139 l 301 775 l 686 775 l 686 914 l 132 914 l 132 0 l 733 0 m 186 396 l 633 396 l 633 531 l 186 531 l 186 396 m 382 1015 l 492 1015 l 675 1260 l 551 1260 l 411 1119 l 382 1015 m 382 1015 l 492 1015 l 464 1117 l 322 1260 l 199 1260 l 382 1015 "},"Ê":{"ha":804,"x_min":132,"x_max":733,"o":"m 733 0 l 733 139 l 301 139 l 301 775 l 686 775 l 686 914 l 132 914 l 132 0 l 733 0 m 186 396 l 633 396 l 633 531 l 186 531 l 186 396 m 551 1015 l 675 1015 l 492 1260 l 382 1260 l 411 1156 l 551 1015 m 199 1015 l 322 1015 l 464 1158 l 492 1260 l 382 1260 l 199 1015 "},"Ế":{"ha":804,"x_min":132,"x_max":863,"o":"m 733 0 l 733 139 l 301 139 l 301 775 l 686 775 l 686 914 l 132 914 l 132 0 l 733 0 m 186 396 l 633 396 l 633 531 l 186 531 l 186 396 m 553 986 l 676 986 l 493 1231 l 383 1231 l 413 1126 l 553 986 m 200 986 l 324 986 l 465 1129 l 493 1231 l 383 1231 l 200 986 m 604 1119 l 715 1119 l 863 1336 l 697 1336 l 604 1119 "},"Ệ":{"ha":804,"x_min":132,"x_max":733,"o":"m 733 0 l 733 139 l 301 139 l 301 775 l 686 775 l 686 914 l 132 914 l 132 0 l 733 0 m 186 396 l 633 396 l 633 531 l 186 531 l 186 396 m 438 -314 q 510 -287 482 -314 q 538 -217 538 -261 q 510 -145 538 -172 q 438 -118 482 -118 q 364 -145 392 -118 q 336 -217 336 -172 q 364 -287 336 -261 q 438 -314 392 -314 m 551 1015 l 675 1015 l 492 1260 l 382 1260 l 411 1156 l 551 1015 m 199 1015 l 322 1015 l 464 1158 l 492 1260 l 382 1260 l 199 1015 "},"Ề":{"ha":804,"x_min":132,"x_max":778,"o":"m 733 0 l 733 139 l 301 139 l 301 775 l 686 775 l 686 914 l 132 914 l 132 0 l 733 0 m 186 396 l 633 396 l 633 531 l 186 531 l 186 396 m 551 986 l 675 986 l 492 1231 l 382 1231 l 411 1126 l 551 986 m 199 986 l 322 986 l 464 1129 l 492 1231 l 382 1231 l 199 986 m 667 1119 l 778 1119 l 685 1336 l 519 1336 l 667 1119 "},"Ể":{"ha":804,"x_min":132,"x_max":811,"o":"m 733 0 l 733 139 l 301 139 l 301 775 l 686 775 l 686 914 l 132 914 l 132 0 l 733 0 m 186 396 l 633 396 l 633 531 l 186 531 l 186 396 m 553 986 l 676 986 l 493 1231 l 383 1231 l 413 1126 l 553 986 m 200 986 l 324 986 l 465 1129 l 493 1231 l 383 1231 l 200 986 m 622 1119 l 711 1119 l 711 1199 l 674 1163 q 775 1192 739 1163 q 811 1267 811 1221 q 778 1340 811 1310 q 693 1369 746 1369 q 633 1358 667 1369 q 567 1314 599 1347 l 592 1269 q 622 1287 604 1281 q 654 1293 640 1293 q 692 1281 679 1293 q 706 1254 706 1269 q 676 1216 706 1231 q 619 1201 647 1201 l 622 1119 "},"Ễ":{"ha":804,"x_min":132,"x_max":733,"o":"m 733 0 l 733 139 l 301 139 l 301 775 l 686 775 l 686 914 l 132 914 l 132 0 l 733 0 m 186 396 l 633 396 l 633 531 l 186 531 l 186 396 m 553 986 l 676 986 l 493 1231 l 383 1231 l 413 1126 l 553 986 m 200 986 l 324 986 l 465 1129 l 493 1231 l 383 1231 l 200 986 m 308 1257 q 334 1297 317 1283 q 374 1310 351 1310 q 412 1299 396 1310 q 450 1276 428 1288 q 511 1264 472 1264 q 602 1306 560 1264 q 663 1414 644 1347 l 576 1435 q 551 1384 568 1401 q 511 1367 533 1367 q 470 1378 489 1367 q 429 1402 451 1390 q 374 1414 407 1414 q 283 1375 325 1414 q 222 1278 240 1336 l 308 1257 "},"Ë":{"ha":804,"x_min":132,"x_max":733,"o":"m 733 0 l 733 139 l 301 139 l 301 775 l 686 775 l 686 914 l 132 914 l 132 0 l 733 0 m 186 396 l 633 396 l 633 531 l 186 531 l 186 396 m 300 1006 q 367 1031 342 1006 q 393 1096 393 1057 q 367 1163 393 1138 q 300 1189 342 1189 q 233 1163 258 1189 q 207 1096 207 1138 q 233 1031 207 1057 q 300 1006 258 1006 m 575 1006 q 641 1031 615 1006 q 667 1096 667 1057 q 641 1163 667 1138 q 575 1189 615 1189 q 506 1163 532 1189 q 479 1096 479 1138 q 506 1031 479 1057 q 575 1006 532 1006 "},"Ė":{"ha":804,"x_min":132,"x_max":733,"o":"m 733 0 l 733 139 l 301 139 l 301 775 l 686 775 l 686 914 l 132 914 l 132 0 l 733 0 m 186 396 l 633 396 l 633 531 l 186 531 l 186 396 m 438 1015 q 510 1042 482 1015 q 538 1113 538 1068 q 510 1184 538 1157 q 438 1211 482 1211 q 364 1184 392 1211 q 336 1113 336 1157 q 364 1042 336 1068 q 438 1015 392 1015 "},"Ẹ":{"ha":804,"x_min":132,"x_max":733,"o":"m 733 0 l 733 139 l 301 139 l 301 775 l 686 775 l 686 914 l 132 914 l 132 0 l 733 0 m 186 396 l 633 396 l 633 531 l 186 531 l 186 396 m 438 -314 q 510 -287 482 -314 q 538 -217 538 -261 q 510 -145 538 -172 q 438 -118 482 -118 q 364 -145 392 -118 q 336 -217 336 -172 q 364 -287 336 -261 q 438 -314 392 -314 "},"È":{"ha":804,"x_min":132,"x_max":733,"o":"m 733 0 l 733 139 l 301 139 l 301 775 l 686 775 l 686 914 l 132 914 l 132 0 l 733 0 m 186 396 l 633 396 l 633 531 l 186 531 l 186 396 m 385 1015 l 513 1015 l 422 1260 l 229 1260 l 385 1015 "},"Ẻ":{"ha":804,"x_min":132,"x_max":733,"o":"m 733 0 l 733 139 l 301 139 l 301 775 l 686 775 l 686 914 l 132 914 l 132 0 l 733 0 m 186 396 l 633 396 l 633 531 l 186 531 l 186 396 m 374 971 l 507 971 l 507 1079 l 439 1028 q 572 1061 524 1028 q 619 1146 619 1094 q 574 1230 619 1194 q 451 1265 528 1265 q 376 1253 418 1265 q 293 1210 333 1242 l 343 1149 q 380 1167 358 1161 q 419 1172 401 1172 q 458 1161 444 1172 q 471 1128 471 1150 q 445 1094 471 1107 q 371 1082 419 1082 l 374 971 "},"Ē":{"ha":804,"x_min":132,"x_max":733,"o":"m 733 0 l 733 139 l 301 139 l 301 775 l 686 775 l 686 914 l 132 914 l 132 0 l 733 0 m 186 396 l 633 396 l 633 531 l 186 531 l 186 396 m 211 1036 l 663 1036 l 663 1150 l 211 1150 l 211 1036 "},"Ę":{"ha":804,"x_min":132,"x_max":806,"o":"m 733 0 l 733 139 l 301 139 l 301 775 l 686 775 l 686 914 l 132 914 l 132 0 l 733 0 m 186 396 l 633 396 l 633 531 l 186 531 l 186 396 m 656 -401 q 737 -391 701 -401 q 806 -360 772 -381 l 767 -275 q 741 -283 754 -281 q 715 -285 728 -285 q 630 -250 656 -285 q 604 -172 604 -215 q 635 -79 604 -124 q 733 0 667 -35 l 679 71 q 492 -64 550 11 q 435 -211 435 -139 q 492 -349 435 -297 q 656 -401 550 -401 "},"Ẽ":{"ha":804,"x_min":132,"x_max":733,"o":"m 733 0 l 733 139 l 301 139 l 301 775 l 686 775 l 686 914 l 132 914 l 132 0 l 733 0 m 186 396 l 633 396 l 633 531 l 186 531 l 186 396 m 274 976 q 306 1015 285 1001 q 354 1029 328 1029 q 406 1025 379 1029 q 463 1016 433 1021 q 521 1011 492 1011 q 620 1060 574 1011 q 688 1186 667 1108 l 600 1206 q 569 1156 590 1174 q 521 1139 547 1139 q 465 1144 494 1139 q 406 1153 435 1149 q 354 1157 378 1157 q 285 1136 318 1157 q 227 1079 253 1115 q 188 997 201 1043 l 274 976 "},"Ə":{"ha":1003,"x_min":72,"x_max":931,"o":"m 464 -18 q 647 18 563 -18 q 796 119 732 54 q 895 273 860 185 q 931 465 931 361 q 899 647 931 563 q 810 796 868 732 q 669 896 751 860 q 483 932 586 932 q 351 917 417 932 q 226 874 286 903 q 114 804 167 846 l 197 661 q 269 733 232 703 q 352 781 307 764 q 453 799 397 799 q 610 752 543 799 q 713 624 676 706 q 750 436 750 543 q 719 263 750 336 q 632 148 689 189 q 494 107 575 107 q 370 140 426 107 q 280 228 314 172 q 246 356 246 285 q 247 388 246 369 q 251 417 249 406 l 76 454 q 73 404 74 429 q 72 353 72 379 q 124 162 72 246 q 265 30 176 78 q 464 -18 354 -18 m 168 328 l 814 328 l 814 454 l 76 454 l 168 328 "},"Ʒ":{"ha":782,"x_min":31,"x_max":747,"o":"m 374 -18 q 560 18 475 -18 q 696 123 644 54 q 747 290 747 192 q 699 442 747 376 q 553 541 651 508 q 301 560 454 574 l 329 465 l 710 799 l 710 914 l 64 914 l 64 776 l 664 783 l 601 864 l 194 519 l 226 432 q 410 427 340 440 q 516 387 479 414 q 566 326 553 360 q 579 261 579 293 q 569 198 579 225 q 538 152 558 171 q 485 124 517 133 q 411 114 453 114 q 322 129 361 114 q 250 174 282 144 q 190 250 218 204 l 31 190 q 102 78 53 125 q 222 7 151 32 q 374 -18 292 -18 "},"Ǯ":{"ha":782,"x_min":31,"x_max":747,"o":"m 374 -18 q 560 18 475 -18 q 696 123 644 54 q 747 290 747 192 q 699 442 747 376 q 553 541 651 508 q 301 560 454 574 l 329 465 l 710 799 l 710 914 l 64 914 l 64 776 l 664 783 l 601 864 l 194 519 l 226 432 q 410 427 340 440 q 516 387 479 414 q 566 326 553 360 q 579 261 579 293 q 569 198 579 225 q 538 152 558 171 q 485 124 517 133 q 411 114 453 114 q 322 129 361 114 q 250 174 282 144 q 190 250 218 204 l 31 190 q 102 78 53 125 q 222 7 151 32 q 374 -18 292 -18 m 336 1015 l 446 1015 l 629 1260 l 506 1260 l 365 1119 l 336 1015 m 336 1015 l 446 1015 l 418 1117 l 276 1260 l 153 1260 l 336 1015 "},"F":{"ha":750,"x_min":132,"x_max":692,"o":"m 132 0 l 307 0 l 307 775 l 692 775 l 692 914 l 132 914 l 132 0 m 186 360 l 639 360 l 639 499 l 186 499 l 186 360 "},"G":{"ha":1003,"x_min":72,"x_max":908,"o":"m 585 -18 q 697 -10 640 -18 q 807 15 753 -1 q 908 57 861 32 l 908 464 l 585 464 l 585 336 l 744 336 l 744 58 l 835 163 q 729 122 786 133 q 615 110 672 110 q 429 155 508 110 q 306 281 350 200 q 263 467 263 361 q 297 641 263 565 q 397 759 332 717 q 556 801 463 801 q 685 778 614 801 q 825 688 757 754 l 903 847 q 756 912 839 892 q 594 932 672 932 q 385 895 481 932 q 220 792 290 858 q 111 636 150 726 q 72 439 72 546 q 134 200 72 303 q 311 40 196 97 q 585 -18 426 -18 "},"Ğ":{"ha":1003,"x_min":72,"x_max":908,"o":"m 585 -18 q 697 -10 640 -18 q 807 15 753 -1 q 908 57 861 32 l 908 464 l 585 464 l 585 336 l 744 336 l 744 58 l 835 163 q 729 122 786 133 q 615 110 672 110 q 429 155 508 110 q 306 281 350 200 q 263 467 263 361 q 297 641 263 565 q 397 759 332 717 q 556 801 463 801 q 685 778 614 801 q 825 688 757 754 l 903 847 q 756 912 839 892 q 594 932 672 932 q 385 895 481 932 q 220 792 290 858 q 111 636 150 726 q 72 439 72 546 q 134 200 72 303 q 311 40 196 97 q 585 -18 426 -18 m 557 979 q 701 1036 644 979 q 776 1196 758 1093 l 689 1210 q 642 1135 679 1163 q 557 1108 606 1108 q 472 1135 508 1108 q 425 1210 436 1163 l 338 1196 q 413 1036 356 1093 q 557 979 469 979 "},"Ǧ":{"ha":1003,"x_min":72,"x_max":908,"o":"m 585 -18 q 697 -10 640 -18 q 807 15 753 -1 q 908 57 861 32 l 908 464 l 585 464 l 585 336 l 744 336 l 744 58 l 835 163 q 729 122 786 133 q 615 110 672 110 q 429 155 508 110 q 306 281 350 200 q 263 467 263 361 q 297 641 263 565 q 397 759 332 717 q 556 801 463 801 q 685 778 614 801 q 825 688 757 754 l 903 847 q 756 912 839 892 q 594 932 672 932 q 385 895 481 932 q 220 792 290 858 q 111 636 150 726 q 72 439 72 546 q 134 200 72 303 q 311 40 196 97 q 585 -18 426 -18 m 501 1015 l 611 1015 l 794 1260 l 671 1260 l 531 1119 l 501 1015 m 501 1015 l 611 1015 l 583 1117 l 442 1260 l 318 1260 l 501 1015 "},"Ĝ":{"ha":1003,"x_min":72,"x_max":908,"o":"m 585 -18 q 697 -10 640 -18 q 807 15 753 -1 q 908 57 861 32 l 908 464 l 585 464 l 585 336 l 744 336 l 744 58 l 835 163 q 729 122 786 133 q 615 110 672 110 q 429 155 508 110 q 306 281 350 200 q 263 467 263 361 q 297 641 263 565 q 397 759 332 717 q 556 801 463 801 q 685 778 614 801 q 825 688 757 754 l 903 847 q 756 912 839 892 q 594 932 672 932 q 385 895 481 932 q 220 792 290 858 q 111 636 150 726 q 72 439 72 546 q 134 200 72 303 q 311 40 196 97 q 585 -18 426 -18 m 671 1015 l 794 1015 l 611 1260 l 501 1260 l 531 1156 l 671 1015 m 318 1015 l 442 1015 l 583 1158 l 611 1260 l 501 1260 l 318 1015 "},"Ģ":{"ha":1003,"x_min":72,"x_max":908,"o":"m 585 -18 q 697 -10 640 -18 q 807 15 753 -1 q 908 57 861 32 l 908 464 l 585 464 l 585 336 l 744 336 l 744 58 l 835 163 q 729 122 786 133 q 615 110 672 110 q 429 155 508 110 q 306 281 350 200 q 263 467 263 361 q 297 641 263 565 q 397 759 332 717 q 556 801 463 801 q 685 778 614 801 q 825 688 757 754 l 903 847 q 756 912 839 892 q 594 932 672 932 q 385 895 481 932 q 220 792 290 858 q 111 636 150 726 q 72 439 72 546 q 134 200 72 303 q 311 40 196 97 q 585 -18 426 -18 m 539 -429 q 636 -333 600 -397 q 672 -206 672 -269 q 656 -129 672 -165 q 606 -68 640 -93 l 490 -153 q 514 -192 506 -167 q 522 -250 522 -218 q 511 -317 522 -283 q 478 -379 500 -351 l 539 -429 "},"Ġ":{"ha":1003,"x_min":72,"x_max":908,"o":"m 585 -18 q 697 -10 640 -18 q 807 15 753 -1 q 908 57 861 32 l 908 464 l 585 464 l 585 336 l 744 336 l 744 58 l 835 163 q 729 122 786 133 q 615 110 672 110 q 429 155 508 110 q 306 281 350 200 q 263 467 263 361 q 297 641 263 565 q 397 759 332 717 q 556 801 463 801 q 685 778 614 801 q 825 688 757 754 l 903 847 q 756 912 839 892 q 594 932 672 932 q 385 895 481 932 q 220 792 290 858 q 111 636 150 726 q 72 439 72 546 q 134 200 72 303 q 311 40 196 97 q 585 -18 426 -18 m 557 1015 q 629 1042 601 1015 q 657 1113 657 1068 q 629 1184 657 1157 q 557 1211 601 1211 q 483 1184 511 1211 q 456 1113 456 1157 q 483 1042 456 1068 q 557 1015 511 1015 "},"Ḡ":{"ha":1003,"x_min":72,"x_max":908,"o":"m 585 -18 q 697 -10 640 -18 q 807 15 753 -1 q 908 57 861 32 l 908 464 l 585 464 l 585 336 l 744 336 l 744 58 l 835 163 q 729 122 786 133 q 615 110 672 110 q 429 155 508 110 q 306 281 350 200 q 263 467 263 361 q 297 641 263 565 q 397 759 332 717 q 556 801 463 801 q 685 778 614 801 q 825 688 757 754 l 903 847 q 756 912 839 892 q 594 932 672 932 q 385 895 481 932 q 220 792 290 858 q 111 636 150 726 q 72 439 72 546 q 134 200 72 303 q 311 40 196 97 q 585 -18 426 -18 m 331 1036 l 782 1036 l 782 1150 l 331 1150 l 331 1036 "},"Ǥ":{"ha":1017,"x_min":72,"x_max":1011,"o":"m 585 -18 q 697 -10 640 -18 q 807 15 753 -1 q 908 57 861 32 l 908 519 l 747 519 l 747 58 l 835 165 q 729 122 786 135 q 615 110 672 110 q 429 155 508 110 q 306 281 350 200 q 263 467 263 361 q 298 641 263 565 q 399 759 333 717 q 557 801 465 801 q 691 776 618 801 q 825 689 764 750 l 903 843 q 761 910 847 888 q 589 932 675 932 q 383 895 478 932 q 219 792 289 858 q 111 636 150 726 q 72 439 72 546 q 134 200 72 303 q 311 40 196 97 q 585 -18 426 -18 m 560 272 l 1011 272 l 1011 394 l 560 394 l 560 272 "},"H":{"ha":1061,"x_min":132,"x_max":929,"o":"m 754 0 l 929 0 l 929 914 l 754 914 l 754 0 m 132 0 l 308 0 l 308 914 l 132 914 l 132 0 m 186 394 l 875 394 l 875 535 l 186 535 l 186 394 "},"Ħ":{"ha":1058,"x_min":132,"x_max":926,"o":"m 751 0 l 926 0 l 926 914 l 751 914 l 751 0 m 132 0 l 307 0 l 307 914 l 132 914 l 132 0 m 186 246 l 872 246 l 872 376 l 186 376 l 186 246 m 186 550 l 872 550 l 872 681 l 186 681 l 186 550 "},"Ḫ":{"ha":1061,"x_min":132,"x_max":929,"o":"m 754 0 l 929 0 l 929 914 l 754 914 l 754 0 m 132 0 l 308 0 l 308 914 l 132 914 l 132 0 m 186 394 l 875 394 l 875 535 l 186 535 l 186 394 m 531 -351 q 675 -294 618 -351 q 750 -135 732 -237 l 663 -121 q 616 -195 653 -168 q 531 -222 579 -222 q 446 -195 482 -222 q 399 -121 410 -168 l 311 -135 q 386 -294 329 -237 q 531 -351 443 -351 "},"Ĥ":{"ha":1061,"x_min":132,"x_max":929,"o":"m 754 0 l 929 0 l 929 914 l 754 914 l 754 0 m 132 0 l 308 0 l 308 914 l 132 914 l 132 0 m 186 394 l 875 394 l 875 535 l 186 535 l 186 394 m 644 1015 l 768 1015 l 585 1260 l 475 1260 l 504 1156 l 644 1015 m 292 1015 l 415 1015 l 557 1158 l 585 1260 l 475 1260 l 292 1015 "},"Ḥ":{"ha":1061,"x_min":132,"x_max":929,"o":"m 754 0 l 929 0 l 929 914 l 754 914 l 754 0 m 132 0 l 308 0 l 308 914 l 132 914 l 132 0 m 186 394 l 875 394 l 875 535 l 186 535 l 186 394 m 531 -314 q 603 -287 575 -314 q 631 -217 631 -261 q 603 -145 631 -172 q 531 -118 575 -118 q 457 -145 485 -118 q 429 -217 429 -172 q 457 -287 429 -261 q 531 -314 485 -314 "},"I":{"ha":460,"x_min":139,"x_max":321,"o":"m 139 0 l 321 0 l 321 914 l 139 914 l 139 0 "},"Ĳ":{"ha":1010,"x_min":117,"x_max":899,"o":"m 294 389 l 117 389 l 117 339 q 164 147 117 226 q 295 24 211 67 q 488 -18 379 -18 q 706 33 614 -18 q 849 176 799 83 q 899 393 899 269 l 899 914 l 724 914 l 724 349 q 699 221 724 275 q 629 138 675 167 q 515 110 583 110 q 399 141 449 110 q 322 229 349 172 q 294 363 294 286 l 294 389 m 117 551 l 297 551 l 297 914 l 117 914 l 117 551 "},"Í":{"ha":460,"x_min":139,"x_max":431,"o":"m 139 0 l 321 0 l 321 914 l 139 914 l 139 0 m 147 1015 l 275 1015 l 431 1260 l 238 1260 l 147 1015 "},"Ĭ":{"ha":460,"x_min":3,"x_max":442,"o":"m 139 0 l 321 0 l 321 914 l 139 914 l 139 0 m 222 979 q 367 1036 310 979 q 442 1196 424 1093 l 354 1210 q 308 1135 344 1163 q 222 1108 271 1108 q 138 1135 174 1108 q 90 1210 101 1163 l 3 1196 q 78 1036 21 1093 q 222 979 135 979 "},"Ǐ":{"ha":460,"x_min":-17,"x_max":460,"o":"m 139 0 l 321 0 l 321 914 l 139 914 l 139 0 m 167 1015 l 276 1015 l 460 1260 l 336 1260 l 196 1119 l 167 1015 m 167 1015 l 276 1015 l 249 1117 l 107 1260 l -17 1260 l 167 1015 "},"Î":{"ha":460,"x_min":-17,"x_max":460,"o":"m 139 0 l 321 0 l 321 914 l 139 914 l 139 0 m 336 1015 l 460 1015 l 276 1260 l 167 1260 l 196 1156 l 336 1015 m -17 1015 l 107 1015 l 249 1158 l 276 1260 l 167 1260 l -17 1015 "},"Ï":{"ha":460,"x_min":-8,"x_max":451,"o":"m 139 0 l 321 0 l 321 914 l 139 914 l 139 0 m 85 1006 q 152 1031 126 1006 q 178 1096 178 1057 q 152 1163 178 1138 q 85 1189 126 1189 q 17 1163 43 1189 q -8 1096 -8 1138 q 17 1031 -8 1057 q 85 1006 43 1006 m 360 1006 q 426 1031 400 1006 q 451 1096 451 1057 q 426 1163 451 1138 q 360 1189 400 1189 q 290 1163 317 1189 q 264 1096 264 1138 q 290 1031 264 1057 q 360 1006 317 1006 "},"İ":{"ha":460,"x_min":121,"x_max":322,"o":"m 139 0 l 321 0 l 321 914 l 139 914 l 139 0 m 222 1015 q 294 1042 267 1015 q 322 1113 322 1068 q 294 1184 322 1157 q 222 1211 267 1211 q 149 1184 176 1211 q 121 1113 121 1157 q 149 1042 121 1068 q 222 1015 176 1015 "},"Ị":{"ha":460,"x_min":121,"x_max":322,"o":"m 139 0 l 321 0 l 321 914 l 139 914 l 139 0 m 222 -314 q 294 -287 267 -314 q 322 -217 322 -261 q 294 -145 322 -172 q 222 -118 267 -118 q 149 -145 176 -118 q 121 -217 121 -172 q 149 -287 121 -261 q 222 -314 176 -314 "},"Ì":{"ha":460,"x_min":14,"x_max":321,"o":"m 139 0 l 321 0 l 321 914 l 139 914 l 139 0 m 169 1015 l 297 1015 l 207 1260 l 14 1260 l 169 1015 "},"Ỉ":{"ha":460,"x_min":78,"x_max":404,"o":"m 139 0 l 321 0 l 321 914 l 139 914 l 139 0 m 158 971 l 292 971 l 292 1079 l 224 1028 q 356 1061 308 1028 q 404 1146 404 1094 q 358 1230 404 1194 q 236 1265 313 1265 q 160 1253 203 1265 q 78 1210 118 1242 l 128 1149 q 165 1167 143 1161 q 204 1172 186 1172 q 242 1161 229 1172 q 256 1128 256 1150 q 230 1094 256 1107 q 156 1082 204 1082 l 158 971 "},"Ī":{"ha":460,"x_min":-4,"x_max":447,"o":"m 139 0 l 321 0 l 321 914 l 139 914 l 139 0 m -4 1036 l 447 1036 l 447 1150 l -4 1150 l -4 1036 "},"Į":{"ha":460,"x_min":57,"x_max":424,"o":"m 139 0 l 321 0 l 321 914 l 139 914 l 139 0 m 256 -401 q 349 -390 308 -401 q 424 -356 389 -378 l 385 -271 q 351 -281 368 -278 q 315 -285 333 -285 q 253 -253 272 -285 q 233 -182 233 -221 q 255 -83 233 -129 q 321 0 276 -37 l 243 40 q 101 -85 146 -15 q 57 -219 57 -154 q 110 -351 57 -301 q 256 -401 163 -401 "},"Ĩ":{"ha":460,"x_min":-28,"x_max":472,"o":"m 139 0 l 321 0 l 321 914 l 139 914 l 139 0 m 58 976 q 91 1015 69 1001 q 139 1029 113 1029 q 191 1025 164 1029 q 247 1016 218 1021 q 306 1011 276 1011 q 405 1060 358 1011 q 472 1186 451 1108 l 385 1206 q 353 1156 375 1174 q 306 1139 332 1139 q 249 1144 279 1139 q 191 1153 219 1149 q 139 1157 163 1157 q 70 1136 103 1157 q 12 1079 38 1115 q -28 997 -14 1043 l 58 976 "},"J":{"ha":443,"x_min":-32,"x_max":318,"o":"m 143 86 q 124 -60 143 -7 q 65 -144 104 -114 q -32 -196 26 -174 l 11 -296 q 135 -253 79 -279 q 233 -185 192 -228 q 296 -77 274 -143 q 318 86 318 -11 l 318 914 l 143 914 l 143 86 "},"Ĵ":{"ha":443,"x_min":-32,"x_max":461,"o":"m 143 86 q 124 -60 143 -7 q 65 -144 104 -114 q -32 -196 26 -174 l 11 -296 q 135 -253 79 -279 q 233 -185 192 -228 q 296 -77 274 -143 q 318 86 318 -11 l 318 914 l 143 914 l 143 86 m 338 1015 l 461 1015 l 278 1260 l 168 1260 l 197 1156 l 338 1015 m -15 1015 l 108 1015 l 250 1158 l 278 1260 l 168 1260 l -15 1015 "},"K":{"ha":899,"x_min":132,"x_max":910,"o":"m 660 0 l 910 0 l 438 519 l 424 440 l 831 914 l 621 914 l 282 467 l 660 0 m 132 0 l 303 0 l 303 914 l 132 914 l 132 0 "},"Ḱ":{"ha":899,"x_min":132,"x_max":910,"o":"m 660 0 l 910 0 l 438 519 l 424 440 l 831 914 l 621 914 l 282 467 l 660 0 m 132 0 l 303 0 l 303 914 l 132 914 l 132 0 m 397 1015 l 525 1015 l 681 1260 l 488 1260 l 397 1015 "},"Ǩ":{"ha":899,"x_min":132,"x_max":910,"o":"m 660 0 l 910 0 l 438 519 l 424 440 l 831 914 l 621 914 l 282 467 l 660 0 m 132 0 l 303 0 l 303 914 l 132 914 l 132 0 m 417 1015 l 526 1015 l 710 1260 l 586 1260 l 446 1119 l 417 1015 m 417 1015 l 526 1015 l 499 1117 l 357 1260 l 233 1260 l 417 1015 "},"Ķ":{"ha":899,"x_min":132,"x_max":910,"o":"m 660 0 l 910 0 l 438 519 l 424 440 l 831 914 l 621 914 l 282 467 l 660 0 m 132 0 l 303 0 l 303 914 l 132 914 l 132 0 m 443 -429 q 540 -333 504 -397 q 576 -206 576 -269 q 560 -129 576 -165 q 510 -68 544 -93 l 394 -153 q 418 -192 410 -167 q 426 -250 426 -218 q 415 -317 426 -283 q 382 -379 404 -351 l 443 -429 "},"L":{"ha":768,"x_min":132,"x_max":742,"o":"m 132 0 l 307 0 l 307 914 l 132 914 l 132 0 m 186 0 l 742 0 l 742 138 l 186 138 l 186 0 "},"Ĺ":{"ha":768,"x_min":132,"x_max":742,"o":"m 132 0 l 307 0 l 307 914 l 132 914 l 132 0 m 186 0 l 742 0 l 742 138 l 186 138 l 186 0 m 150 1015 l 278 1015 l 433 1260 l 240 1260 l 150 1015 "},"Ľ":{"ha":768,"x_min":132,"x_max":742,"o":"m 132 0 l 307 0 l 307 914 l 132 914 l 132 0 m 186 0 l 742 0 l 742 138 l 186 138 l 186 0 m 604 515 l 660 914 l 506 914 l 506 514 l 604 515 "},"Ļ":{"ha":768,"x_min":132,"x_max":742,"o":"m 132 0 l 307 0 l 307 914 l 132 914 l 132 0 m 186 0 l 742 0 l 742 138 l 186 138 l 186 0 m 406 -429 q 503 -333 467 -397 q 539 -206 539 -269 q 523 -129 539 -165 q 472 -68 507 -93 l 357 -153 q 381 -192 372 -167 q 389 -250 389 -218 q 378 -317 389 -283 q 344 -379 367 -351 l 406 -429 "},"Ŀ":{"ha":768,"x_min":132,"x_max":742,"o":"m 132 0 l 307 0 l 307 914 l 132 914 l 132 0 m 186 0 l 742 0 l 742 138 l 186 138 l 186 0 m 608 403 q 686 432 657 403 q 715 508 715 461 q 686 586 715 557 q 608 615 657 615 q 528 586 558 615 q 499 508 499 557 q 528 432 499 461 q 608 403 558 403 "},"Ḷ":{"ha":768,"x_min":132,"x_max":742,"o":"m 132 0 l 307 0 l 307 914 l 132 914 l 132 0 m 186 0 l 742 0 l 742 138 l 186 138 l 186 0 m 447 -314 q 519 -287 492 -314 q 547 -217 547 -261 q 519 -145 547 -172 q 447 -118 492 -118 q 374 -145 401 -118 q 346 -217 346 -172 q 374 -287 346 -261 q 447 -314 401 -314 "},"Ḹ":{"ha":768,"x_min":-1,"x_max":742,"o":"m 132 0 l 307 0 l 307 914 l 132 914 l 132 0 m 186 0 l 742 0 l 742 138 l 186 138 l 186 0 m 447 -314 q 519 -287 492 -314 q 547 -217 547 -261 q 519 -145 547 -172 q 447 -118 492 -118 q 374 -145 401 -118 q 346 -217 346 -172 q 374 -287 346 -261 q 447 -314 401 -314 m -1 1036 l 450 1036 l 450 1150 l -1 1150 l -1 1036 "},"Ḻ":{"ha":768,"x_min":132,"x_max":742,"o":"m 132 0 l 307 0 l 307 914 l 132 914 l 132 0 m 186 0 l 742 0 l 742 138 l 186 138 l 186 0 m 263 -237 l 631 -237 l 631 -124 l 263 -124 l 263 -237 "},"Ł":{"ha":811,"x_min":15,"x_max":771,"o":"m 161 0 l 336 0 l 336 914 l 161 914 l 161 0 m 215 0 l 771 0 l 771 138 l 215 138 l 215 0 m 81 289 l 557 563 l 490 678 l 15 403 l 81 289 "},"M":{"ha":1278,"x_min":115,"x_max":1164,"o":"m 988 0 l 1164 0 l 1111 914 l 928 914 l 635 254 l 683 254 l 378 914 l 256 914 l 254 794 l 583 72 l 686 72 l 1046 869 l 963 829 l 988 0 m 115 0 l 275 0 l 304 914 l 179 914 l 115 0 "},"Ṁ":{"ha":1278,"x_min":115,"x_max":1164,"o":"m 988 0 l 1164 0 l 1111 914 l 928 914 l 635 254 l 683 254 l 378 914 l 256 914 l 254 794 l 583 72 l 686 72 l 1046 869 l 963 829 l 988 0 m 115 0 l 275 0 l 304 914 l 179 914 l 115 0 m 647 1015 q 719 1042 692 1015 q 747 1113 747 1068 q 719 1184 747 1157 q 647 1211 692 1211 q 574 1184 601 1211 q 546 1113 546 1157 q 574 1042 546 1068 q 647 1015 601 1015 "},"Ṃ":{"ha":1278,"x_min":115,"x_max":1164,"o":"m 988 0 l 1164 0 l 1111 914 l 928 914 l 635 254 l 683 254 l 378 914 l 256 914 l 254 794 l 583 72 l 686 72 l 1046 869 l 963 829 l 988 0 m 115 0 l 275 0 l 304 914 l 179 914 l 115 0 m 647 -314 q 719 -287 692 -314 q 747 -217 747 -261 q 719 -145 747 -172 q 647 -118 692 -118 q 574 -145 601 -118 q 546 -217 546 -172 q 574 -287 546 -261 q 647 -314 601 -314 "},"N":{"ha":1075,"x_min":132,"x_max":943,"o":"m 132 0 l 293 0 l 269 914 l 132 914 l 132 0 m 869 0 l 865 185 l 304 914 l 190 914 l 188 797 l 800 0 l 869 0 m 943 914 l 782 914 l 806 0 l 943 0 l 943 914 "},"Ń":{"ha":1075,"x_min":132,"x_max":943,"o":"m 132 0 l 293 0 l 269 914 l 132 914 l 132 0 m 869 0 l 865 185 l 304 914 l 190 914 l 188 797 l 800 0 l 869 0 m 943 914 l 782 914 l 806 0 l 943 0 l 943 914 m 463 1015 l 590 1015 l 746 1260 l 553 1260 l 463 1015 "},"Ň":{"ha":1075,"x_min":132,"x_max":943,"o":"m 132 0 l 293 0 l 269 914 l 132 914 l 132 0 m 869 0 l 865 185 l 304 914 l 190 914 l 188 797 l 800 0 l 869 0 m 943 914 l 782 914 l 806 0 l 943 0 l 943 914 m 482 1015 l 592 1015 l 775 1260 l 651 1260 l 511 1119 l 482 1015 m 482 1015 l 592 1015 l 564 1117 l 422 1260 l 299 1260 l 482 1015 "},"Ṋ":{"ha":1075,"x_min":132,"x_max":943,"o":"m 132 0 l 293 0 l 269 914 l 132 914 l 132 0 m 869 0 l 865 185 l 304 914 l 190 914 l 188 797 l 800 0 l 869 0 m 943 914 l 782 914 l 806 0 l 943 0 l 943 914 m 631 -376 l 747 -376 l 592 -90 l 482 -90 l 511 -187 l 631 -376 m 326 -376 l 443 -376 l 564 -185 l 592 -90 l 482 -90 l 326 -376 "},"Ņ":{"ha":1075,"x_min":132,"x_max":943,"o":"m 132 0 l 293 0 l 269 914 l 132 914 l 132 0 m 869 0 l 865 185 l 304 914 l 190 914 l 188 797 l 800 0 l 869 0 m 943 914 l 782 914 l 806 0 l 943 0 l 943 914 m 496 -429 q 593 -333 557 -397 q 629 -206 629 -269 q 613 -129 629 -165 q 563 -68 597 -93 l 447 -153 q 471 -192 463 -167 q 479 -250 479 -218 q 468 -317 479 -283 q 435 -379 457 -351 l 496 -429 "},"Ṅ":{"ha":1075,"x_min":132,"x_max":943,"o":"m 132 0 l 293 0 l 269 914 l 132 914 l 132 0 m 869 0 l 865 185 l 304 914 l 190 914 l 188 797 l 800 0 l 869 0 m 943 914 l 782 914 l 806 0 l 943 0 l 943 914 m 538 1015 q 610 1042 582 1015 q 638 1113 638 1068 q 610 1184 638 1157 q 538 1211 582 1211 q 464 1184 492 1211 q 436 1113 436 1157 q 464 1042 436 1068 q 538 1015 492 1015 "},"Ṇ":{"ha":1075,"x_min":132,"x_max":943,"o":"m 132 0 l 293 0 l 269 914 l 132 914 l 132 0 m 869 0 l 865 185 l 304 914 l 190 914 l 188 797 l 800 0 l 869 0 m 943 914 l 782 914 l 806 0 l 943 0 l 943 914 m 538 -314 q 610 -287 582 -314 q 638 -217 638 -261 q 610 -145 638 -172 q 538 -118 582 -118 q 464 -145 492 -118 q 436 -217 436 -172 q 464 -287 436 -261 q 538 -314 492 -314 "},"Ṉ":{"ha":1075,"x_min":132,"x_max":943,"o":"m 132 0 l 293 0 l 269 914 l 132 914 l 132 0 m 869 0 l 865 185 l 304 914 l 190 914 l 188 797 l 800 0 l 869 0 m 943 914 l 782 914 l 806 0 l 943 0 l 943 914 m 353 -237 l 721 -237 l 721 -124 l 353 -124 l 353 -237 "},"Ñ":{"ha":1075,"x_min":132,"x_max":943,"o":"m 132 0 l 293 0 l 269 914 l 132 914 l 132 0 m 869 0 l 865 185 l 304 914 l 190 914 l 188 797 l 800 0 l 869 0 m 943 914 l 782 914 l 806 0 l 943 0 l 943 914 m 374 976 q 406 1015 385 1001 q 454 1029 428 1029 q 506 1025 479 1029 q 563 1016 533 1021 q 621 1011 592 1011 q 720 1060 674 1011 q 788 1186 767 1108 l 700 1206 q 669 1156 690 1174 q 621 1139 647 1139 q 565 1144 594 1139 q 506 1153 535 1149 q 454 1157 478 1157 q 385 1136 418 1157 q 327 1079 353 1115 q 288 997 301 1043 l 374 976 "},"Ŋ":{"ha":1075,"x_min":132,"x_max":943,"o":"m 790 0 l 865 157 l 294 914 l 190 914 l 188 783 l 790 0 m 132 0 l 293 0 l 269 914 l 132 914 l 132 0 m 636 -296 q 759 -253 703 -279 q 857 -185 815 -228 q 921 -77 899 -143 q 943 86 943 -11 l 943 914 l 768 914 l 782 86 q 761 -60 782 -7 q 698 -144 740 -114 q 592 -196 656 -174 l 636 -296 "},"O":{"ha":1093,"x_min":72,"x_max":1021,"o":"m 535 -18 q 721 15 633 -18 q 876 112 808 49 q 982 264 943 175 q 1021 464 1021 353 q 962 706 1021 600 q 799 872 903 811 q 563 932 696 932 q 376 898 464 932 q 219 801 288 864 q 111 650 150 739 q 72 450 72 561 q 132 209 72 315 q 296 42 192 103 q 535 -18 400 -18 m 567 110 q 417 154 485 110 q 308 281 349 199 q 267 478 267 364 q 299 651 267 578 q 391 765 332 725 q 528 804 450 804 q 681 760 613 804 q 791 633 750 715 q 832 436 832 551 q 800 264 832 338 q 708 150 768 190 q 567 110 649 110 "},"Ó":{"ha":1093,"x_min":72,"x_max":1021,"o":"m 535 -18 q 721 15 633 -18 q 876 112 808 49 q 982 264 943 175 q 1021 464 1021 353 q 962 706 1021 600 q 799 872 903 811 q 563 932 696 932 q 376 898 464 932 q 219 801 288 864 q 111 650 150 739 q 72 450 72 561 q 132 209 72 315 q 296 42 192 103 q 535 -18 400 -18 m 567 110 q 417 154 485 110 q 308 281 349 199 q 267 478 267 364 q 299 651 267 578 q 391 765 332 725 q 528 804 450 804 q 681 760 613 804 q 791 633 750 715 q 832 436 832 551 q 800 264 832 338 q 708 150 768 190 q 567 110 649 110 m 481 1015 l 608 1015 l 764 1260 l 571 1260 l 481 1015 "},"Ŏ":{"ha":1093,"x_min":72,"x_max":1021,"o":"m 535 -18 q 721 15 633 -18 q 876 112 808 49 q 982 264 943 175 q 1021 464 1021 353 q 962 706 1021 600 q 799 872 903 811 q 563 932 696 932 q 376 898 464 932 q 219 801 288 864 q 111 650 150 739 q 72 450 72 561 q 132 209 72 315 q 296 42 192 103 q 535 -18 400 -18 m 567 110 q 417 154 485 110 q 308 281 349 199 q 267 478 267 364 q 299 651 267 578 q 391 765 332 725 q 528 804 450 804 q 681 760 613 804 q 791 633 750 715 q 832 436 832 551 q 800 264 832 338 q 708 150 768 190 q 567 110 649 110 m 556 979 q 700 1036 643 979 q 775 1196 757 1093 l 688 1210 q 641 1135 678 1163 q 556 1108 604 1108 q 471 1135 507 1108 q 424 1210 435 1163 l 336 1196 q 411 1036 354 1093 q 556 979 468 979 "},"Ǒ":{"ha":1093,"x_min":72,"x_max":1021,"o":"m 535 -18 q 721 15 633 -18 q 876 112 808 49 q 982 264 943 175 q 1021 464 1021 353 q 962 706 1021 600 q 799 872 903 811 q 563 932 696 932 q 376 898 464 932 q 219 801 288 864 q 111 650 150 739 q 72 450 72 561 q 132 209 72 315 q 296 42 192 103 q 535 -18 400 -18 m 567 110 q 417 154 485 110 q 308 281 349 199 q 267 478 267 364 q 299 651 267 578 q 391 765 332 725 q 528 804 450 804 q 681 760 613 804 q 791 633 750 715 q 832 436 832 551 q 800 264 832 338 q 708 150 768 190 q 567 110 649 110 m 500 1015 l 610 1015 l 793 1260 l 669 1260 l 529 1119 l 500 1015 m 500 1015 l 610 1015 l 582 1117 l 440 1260 l 317 1260 l 500 1015 "},"Ô":{"ha":1093,"x_min":72,"x_max":1021,"o":"m 535 -18 q 721 15 633 -18 q 876 112 808 49 q 982 264 943 175 q 1021 464 1021 353 q 962 706 1021 600 q 799 872 903 811 q 563 932 696 932 q 376 898 464 932 q 219 801 288 864 q 111 650 150 739 q 72 450 72 561 q 132 209 72 315 q 296 42 192 103 q 535 -18 400 -18 m 567 110 q 417 154 485 110 q 308 281 349 199 q 267 478 267 364 q 299 651 267 578 q 391 765 332 725 q 528 804 450 804 q 681 760 613 804 q 791 633 750 715 q 832 436 832 551 q 800 264 832 338 q 708 150 768 190 q 567 110 649 110 m 669 1015 l 793 1015 l 610 1260 l 500 1260 l 529 1156 l 669 1015 m 317 1015 l 440 1015 l 582 1158 l 610 1260 l 500 1260 l 317 1015 "},"Ố":{"ha":1093,"x_min":72,"x_max":1021,"o":"m 535 -18 q 721 15 633 -18 q 876 112 808 49 q 982 264 943 175 q 1021 464 1021 353 q 962 706 1021 600 q 799 872 903 811 q 563 932 696 932 q 376 898 464 932 q 219 801 288 864 q 111 650 150 739 q 72 450 72 561 q 132 209 72 315 q 296 42 192 103 q 535 -18 400 -18 m 567 110 q 417 154 485 110 q 308 281 349 199 q 267 478 267 364 q 299 651 267 578 q 391 765 332 725 q 528 804 450 804 q 681 760 613 804 q 791 633 750 715 q 832 436 832 551 q 800 264 832 338 q 708 150 768 190 q 567 110 649 110 m 671 986 l 794 986 l 611 1231 l 501 1231 l 531 1126 l 671 986 m 318 986 l 442 986 l 583 1129 l 611 1231 l 501 1231 l 318 986 m 722 1119 l 833 1119 l 981 1336 l 815 1336 l 722 1119 "},"Ộ":{"ha":1093,"x_min":72,"x_max":1021,"o":"m 535 -18 q 721 15 633 -18 q 876 112 808 49 q 982 264 943 175 q 1021 464 1021 353 q 962 706 1021 600 q 799 872 903 811 q 563 932 696 932 q 376 898 464 932 q 219 801 288 864 q 111 650 150 739 q 72 450 72 561 q 132 209 72 315 q 296 42 192 103 q 535 -18 400 -18 m 567 110 q 417 154 485 110 q 308 281 349 199 q 267 478 267 364 q 299 651 267 578 q 391 765 332 725 q 528 804 450 804 q 681 760 613 804 q 791 633 750 715 q 832 436 832 551 q 800 264 832 338 q 708 150 768 190 q 567 110 649 110 m 565 -314 q 638 -287 610 -314 q 665 -217 665 -261 q 638 -145 665 -172 q 565 -118 610 -118 q 492 -145 519 -118 q 464 -217 464 -172 q 492 -287 464 -261 q 565 -314 519 -314 m 669 1015 l 793 1015 l 610 1260 l 500 1260 l 529 1156 l 669 1015 m 317 1015 l 440 1015 l 582 1158 l 610 1260 l 500 1260 l 317 1015 "},"Ồ":{"ha":1093,"x_min":72,"x_max":1021,"o":"m 535 -18 q 721 15 633 -18 q 876 112 808 49 q 982 264 943 175 q 1021 464 1021 353 q 962 706 1021 600 q 799 872 903 811 q 563 932 696 932 q 376 898 464 932 q 219 801 288 864 q 111 650 150 739 q 72 450 72 561 q 132 209 72 315 q 296 42 192 103 q 535 -18 400 -18 m 567 110 q 417 154 485 110 q 308 281 349 199 q 267 478 267 364 q 299 651 267 578 q 391 765 332 725 q 528 804 450 804 q 681 760 613 804 q 791 633 750 715 q 832 436 832 551 q 800 264 832 338 q 708 150 768 190 q 567 110 649 110 m 669 986 l 793 986 l 610 1231 l 500 1231 l 529 1126 l 669 986 m 317 986 l 440 986 l 582 1129 l 610 1231 l 500 1231 l 317 986 m 785 1119 l 896 1119 l 803 1336 l 638 1336 l 785 1119 "},"Ổ":{"ha":1093,"x_min":72,"x_max":1021,"o":"m 535 -18 q 721 15 633 -18 q 876 112 808 49 q 982 264 943 175 q 1021 464 1021 353 q 962 706 1021 600 q 799 872 903 811 q 563 932 696 932 q 376 898 464 932 q 219 801 288 864 q 111 650 150 739 q 72 450 72 561 q 132 209 72 315 q 296 42 192 103 q 535 -18 400 -18 m 567 110 q 417 154 485 110 q 308 281 349 199 q 267 478 267 364 q 299 651 267 578 q 391 765 332 725 q 528 804 450 804 q 681 760 613 804 q 791 633 750 715 q 832 436 832 551 q 800 264 832 338 q 708 150 768 190 q 567 110 649 110 m 671 986 l 794 986 l 611 1231 l 501 1231 l 531 1126 l 671 986 m 318 986 l 442 986 l 583 1129 l 611 1231 l 501 1231 l 318 986 m 740 1119 l 829 1119 l 829 1199 l 792 1163 q 893 1192 857 1163 q 929 1267 929 1221 q 897 1340 929 1310 q 811 1369 864 1369 q 751 1358 785 1369 q 685 1314 717 1347 l 710 1269 q 740 1287 722 1281 q 772 1293 758 1293 q 810 1281 797 1293 q 824 1254 824 1269 q 794 1216 824 1231 q 738 1201 765 1201 l 740 1119 "},"Ỗ":{"ha":1093,"x_min":72,"x_max":1021,"o":"m 535 -18 q 721 15 633 -18 q 876 112 808 49 q 982 264 943 175 q 1021 464 1021 353 q 962 706 1021 600 q 799 872 903 811 q 563 932 696 932 q 376 898 464 932 q 219 801 288 864 q 111 650 150 739 q 72 450 72 561 q 132 209 72 315 q 296 42 192 103 q 535 -18 400 -18 m 567 110 q 417 154 485 110 q 308 281 349 199 q 267 478 267 364 q 299 651 267 578 q 391 765 332 725 q 528 804 450 804 q 681 760 613 804 q 791 633 750 715 q 832 436 832 551 q 800 264 832 338 q 708 150 768 190 q 567 110 649 110 m 671 986 l 794 986 l 611 1231 l 501 1231 l 531 1126 l 671 986 m 318 986 l 442 986 l 583 1129 l 611 1231 l 501 1231 l 318 986 m 426 1257 q 452 1297 435 1283 q 492 1310 469 1310 q 530 1299 514 1310 q 568 1276 546 1288 q 629 1264 590 1264 q 720 1306 678 1264 q 781 1414 763 1347 l 694 1435 q 669 1384 686 1401 q 629 1367 651 1367 q 588 1378 607 1367 q 547 1402 569 1390 q 492 1414 525 1414 q 401 1375 443 1414 q 340 1278 358 1336 l 426 1257 "},"Ö":{"ha":1093,"x_min":72,"x_max":1021,"o":"m 535 -18 q 721 15 633 -18 q 876 112 808 49 q 982 264 943 175 q 1021 464 1021 353 q 962 706 1021 600 q 799 872 903 811 q 563 932 696 932 q 376 898 464 932 q 219 801 288 864 q 111 650 150 739 q 72 450 72 561 q 132 209 72 315 q 296 42 192 103 q 535 -18 400 -18 m 567 110 q 417 154 485 110 q 308 281 349 199 q 267 478 267 364 q 299 651 267 578 q 391 765 332 725 q 528 804 450 804 q 681 760 613 804 q 791 633 750 715 q 832 436 832 551 q 800 264 832 338 q 708 150 768 190 q 567 110 649 110 m 418 1006 q 485 1031 460 1006 q 511 1096 511 1057 q 485 1163 511 1138 q 418 1189 460 1189 q 351 1163 376 1189 q 325 1096 325 1138 q 351 1031 325 1057 q 418 1006 376 1006 m 693 1006 q 759 1031 733 1006 q 785 1096 785 1057 q 759 1163 785 1138 q 693 1189 733 1189 q 624 1163 650 1189 q 597 1096 597 1138 q 624 1031 597 1057 q 693 1006 650 1006 "},"Ọ":{"ha":1093,"x_min":72,"x_max":1021,"o":"m 535 -18 q 721 15 633 -18 q 876 112 808 49 q 982 264 943 175 q 1021 464 1021 353 q 962 706 1021 600 q 799 872 903 811 q 563 932 696 932 q 376 898 464 932 q 219 801 288 864 q 111 650 150 739 q 72 450 72 561 q 132 209 72 315 q 296 42 192 103 q 535 -18 400 -18 m 567 110 q 417 154 485 110 q 308 281 349 199 q 267 478 267 364 q 299 651 267 578 q 391 765 332 725 q 528 804 450 804 q 681 760 613 804 q 791 633 750 715 q 832 436 832 551 q 800 264 832 338 q 708 150 768 190 q 567 110 649 110 m 565 -314 q 638 -287 610 -314 q 665 -217 665 -261 q 638 -145 665 -172 q 565 -118 610 -118 q 492 -145 519 -118 q 464 -217 464 -172 q 492 -287 464 -261 q 565 -314 519 -314 "},"Ò":{"ha":1093,"x_min":72,"x_max":1021,"o":"m 535 -18 q 721 15 633 -18 q 876 112 808 49 q 982 264 943 175 q 1021 464 1021 353 q 962 706 1021 600 q 799 872 903 811 q 563 932 696 932 q 376 898 464 932 q 219 801 288 864 q 111 650 150 739 q 72 450 72 561 q 132 209 72 315 q 296 42 192 103 q 535 -18 400 -18 m 567 110 q 417 154 485 110 q 308 281 349 199 q 267 478 267 364 q 299 651 267 578 q 391 765 332 725 q 528 804 450 804 q 681 760 613 804 q 791 633 750 715 q 832 436 832 551 q 800 264 832 338 q 708 150 768 190 q 567 110 649 110 m 503 1015 l 631 1015 l 540 1260 l 347 1260 l 503 1015 "},"Ỏ":{"ha":1093,"x_min":72,"x_max":1021,"o":"m 535 -18 q 721 15 633 -18 q 876 112 808 49 q 982 264 943 175 q 1021 464 1021 353 q 962 706 1021 600 q 799 872 903 811 q 563 932 696 932 q 376 898 464 932 q 219 801 288 864 q 111 650 150 739 q 72 450 72 561 q 132 209 72 315 q 296 42 192 103 q 535 -18 400 -18 m 567 110 q 417 154 485 110 q 308 281 349 199 q 267 478 267 364 q 299 651 267 578 q 391 765 332 725 q 528 804 450 804 q 681 760 613 804 q 791 633 750 715 q 832 436 832 551 q 800 264 832 338 q 708 150 768 190 q 567 110 649 110 m 492 971 l 625 971 l 625 1079 l 557 1028 q 690 1061 642 1028 q 738 1146 738 1094 q 692 1230 738 1194 q 569 1265 646 1265 q 494 1253 536 1265 q 411 1210 451 1242 l 461 1149 q 498 1167 476 1161 q 538 1172 519 1172 q 576 1161 563 1172 q 589 1128 589 1150 q 563 1094 589 1107 q 489 1082 538 1082 l 492 971 "},"Ơ":{"ha":1093,"x_min":72,"x_max":1058,"o":"m 535 -18 q 721 15 633 -18 q 876 112 808 49 q 982 264 943 175 q 1021 464 1021 353 q 962 706 1021 600 q 799 872 903 811 q 563 932 696 932 q 376 898 464 932 q 219 801 288 864 q 111 650 150 739 q 72 450 72 561 q 132 209 72 315 q 296 42 192 103 q 535 -18 400 -18 m 567 110 q 417 154 485 110 q 308 281 349 199 q 267 478 267 364 q 299 651 267 578 q 391 765 332 725 q 528 804 450 804 q 681 760 613 804 q 791 633 750 715 q 832 436 832 551 q 800 264 832 338 q 708 150 768 190 q 567 110 649 110 m 751 739 q 913 785 844 754 q 1020 869 982 817 q 1058 997 1058 921 q 1037 1092 1058 1051 q 975 1160 1015 1132 l 869 1078 q 900 1038 890 1063 q 910 986 910 1014 q 862 885 910 915 q 736 833 814 856 l 751 739 "},"Ớ":{"ha":1093,"x_min":72,"x_max":1058,"o":"m 535 -18 q 721 15 633 -18 q 876 112 808 49 q 982 264 943 175 q 1021 464 1021 353 q 962 706 1021 600 q 799 872 903 811 q 563 932 696 932 q 376 898 464 932 q 219 801 288 864 q 111 650 150 739 q 72 450 72 561 q 132 209 72 315 q 296 42 192 103 q 535 -18 400 -18 m 567 110 q 417 154 485 110 q 308 281 349 199 q 267 478 267 364 q 299 651 267 578 q 391 765 332 725 q 528 804 450 804 q 681 760 613 804 q 791 633 750 715 q 832 436 832 551 q 800 264 832 338 q 708 150 768 190 q 567 110 649 110 m 751 739 q 913 785 844 754 q 1020 869 982 817 q 1058 997 1058 921 q 1037 1092 1058 1051 q 975 1160 1015 1132 l 869 1078 q 900 1038 890 1063 q 910 986 910 1014 q 862 885 910 915 q 736 833 814 856 l 751 739 m 472 1015 l 600 1015 l 756 1260 l 563 1260 l 472 1015 "},"Ợ":{"ha":1093,"x_min":72,"x_max":1058,"o":"m 535 -18 q 721 15 633 -18 q 876 112 808 49 q 982 264 943 175 q 1021 464 1021 353 q 962 706 1021 600 q 799 872 903 811 q 563 932 696 932 q 376 898 464 932 q 219 801 288 864 q 111 650 150 739 q 72 450 72 561 q 132 209 72 315 q 296 42 192 103 q 535 -18 400 -18 m 567 110 q 417 154 485 110 q 308 281 349 199 q 267 478 267 364 q 299 651 267 578 q 391 765 332 725 q 528 804 450 804 q 681 760 613 804 q 791 633 750 715 q 832 436 832 551 q 800 264 832 338 q 708 150 768 190 q 567 110 649 110 m 751 739 q 913 785 844 754 q 1020 869 982 817 q 1058 997 1058 921 q 1037 1092 1058 1051 q 975 1160 1015 1132 l 869 1078 q 900 1038 890 1063 q 910 986 910 1014 q 862 885 910 915 q 736 833 814 856 l 751 739 m 547 -314 q 619 -287 592 -314 q 647 -217 647 -261 q 619 -145 647 -172 q 547 -118 592 -118 q 474 -145 501 -118 q 446 -217 446 -172 q 474 -287 446 -261 q 547 -314 501 -314 "},"Ờ":{"ha":1093,"x_min":72,"x_max":1058,"o":"m 535 -18 q 721 15 633 -18 q 876 112 808 49 q 982 264 943 175 q 1021 464 1021 353 q 962 706 1021 600 q 799 872 903 811 q 563 932 696 932 q 376 898 464 932 q 219 801 288 864 q 111 650 150 739 q 72 450 72 561 q 132 209 72 315 q 296 42 192 103 q 535 -18 400 -18 m 567 110 q 417 154 485 110 q 308 281 349 199 q 267 478 267 364 q 299 651 267 578 q 391 765 332 725 q 528 804 450 804 q 681 760 613 804 q 791 633 750 715 q 832 436 832 551 q 800 264 832 338 q 708 150 768 190 q 567 110 649 110 m 751 739 q 913 785 844 754 q 1020 869 982 817 q 1058 997 1058 921 q 1037 1092 1058 1051 q 975 1160 1015 1132 l 869 1078 q 900 1038 890 1063 q 910 986 910 1014 q 862 885 910 915 q 736 833 814 856 l 751 739 m 494 1015 l 622 1015 l 532 1260 l 339 1260 l 494 1015 "},"Ở":{"ha":1093,"x_min":72,"x_max":1058,"o":"m 535 -18 q 721 15 633 -18 q 876 112 808 49 q 982 264 943 175 q 1021 464 1021 353 q 962 706 1021 600 q 799 872 903 811 q 563 932 696 932 q 376 898 464 932 q 219 801 288 864 q 111 650 150 739 q 72 450 72 561 q 132 209 72 315 q 296 42 192 103 q 535 -18 400 -18 m 567 110 q 417 154 485 110 q 308 281 349 199 q 267 478 267 364 q 299 651 267 578 q 391 765 332 725 q 528 804 450 804 q 681 760 613 804 q 791 633 750 715 q 832 436 832 551 q 800 264 832 338 q 708 150 768 190 q 567 110 649 110 m 751 739 q 913 785 844 754 q 1020 869 982 817 q 1058 997 1058 921 q 1037 1092 1058 1051 q 975 1160 1015 1132 l 869 1078 q 900 1038 890 1063 q 910 986 910 1014 q 862 885 910 915 q 736 833 814 856 l 751 739 m 483 971 l 617 971 l 617 1079 l 549 1028 q 681 1061 633 1028 q 729 1146 729 1094 q 683 1230 729 1194 q 561 1265 638 1265 q 485 1253 528 1265 q 403 1210 443 1242 l 453 1149 q 490 1167 468 1161 q 529 1172 511 1172 q 567 1161 554 1172 q 581 1128 581 1150 q 555 1094 581 1107 q 481 1082 529 1082 l 483 971 "},"Ỡ":{"ha":1093,"x_min":72,"x_max":1058,"o":"m 535 -18 q 721 15 633 -18 q 876 112 808 49 q 982 264 943 175 q 1021 464 1021 353 q 962 706 1021 600 q 799 872 903 811 q 563 932 696 932 q 376 898 464 932 q 219 801 288 864 q 111 650 150 739 q 72 450 72 561 q 132 209 72 315 q 296 42 192 103 q 535 -18 400 -18 m 567 110 q 417 154 485 110 q 308 281 349 199 q 267 478 267 364 q 299 651 267 578 q 391 765 332 725 q 528 804 450 804 q 681 760 613 804 q 791 633 750 715 q 832 436 832 551 q 800 264 832 338 q 708 150 768 190 q 567 110 649 110 m 751 739 q 913 785 844 754 q 1020 869 982 817 q 1058 997 1058 921 q 1037 1092 1058 1051 q 975 1160 1015 1132 l 869 1078 q 900 1038 890 1063 q 910 986 910 1014 q 862 885 910 915 q 736 833 814 856 l 751 739 m 383 976 q 416 1015 394 1001 q 464 1029 438 1029 q 516 1025 489 1029 q 572 1016 543 1021 q 631 1011 601 1011 q 730 1060 683 1011 q 797 1186 776 1108 l 710 1206 q 678 1156 700 1174 q 631 1139 657 1139 q 574 1144 604 1139 q 516 1153 544 1149 q 464 1157 488 1157 q 395 1136 428 1157 q 337 1079 363 1115 q 297 997 311 1043 l 383 976 "},"Ő":{"ha":1093,"x_min":72,"x_max":1021,"o":"m 535 -18 q 721 15 633 -18 q 876 112 808 49 q 982 264 943 175 q 1021 464 1021 353 q 962 706 1021 600 q 799 872 903 811 q 563 932 696 932 q 376 898 464 932 q 219 801 288 864 q 111 650 150 739 q 72 450 72 561 q 132 209 72 315 q 296 42 192 103 q 535 -18 400 -18 m 567 110 q 417 154 485 110 q 308 281 349 199 q 267 478 267 364 q 299 651 267 578 q 391 765 332 725 q 528 804 450 804 q 681 760 613 804 q 791 633 750 715 q 832 436 832 551 q 800 264 832 338 q 708 150 768 190 q 567 110 649 110 m 357 1015 l 485 1015 l 640 1260 l 447 1260 l 357 1015 m 603 1015 l 731 1015 l 886 1260 l 693 1260 l 603 1015 "},"Ō":{"ha":1093,"x_min":72,"x_max":1021,"o":"m 535 -18 q 721 15 633 -18 q 876 112 808 49 q 982 264 943 175 q 1021 464 1021 353 q 962 706 1021 600 q 799 872 903 811 q 563 932 696 932 q 376 898 464 932 q 219 801 288 864 q 111 650 150 739 q 72 450 72 561 q 132 209 72 315 q 296 42 192 103 q 535 -18 400 -18 m 567 110 q 417 154 485 110 q 308 281 349 199 q 267 478 267 364 q 299 651 267 578 q 391 765 332 725 q 528 804 450 804 q 681 760 613 804 q 791 633 750 715 q 832 436 832 551 q 800 264 832 338 q 708 150 768 190 q 567 110 649 110 m 329 1036 l 781 1036 l 781 1150 l 329 1150 l 329 1036 "},"Ǫ":{"ha":1093,"x_min":72,"x_max":1021,"o":"m 535 -18 q 721 15 633 -18 q 876 112 808 49 q 982 264 943 175 q 1021 464 1021 353 q 962 706 1021 600 q 799 872 903 811 q 563 932 696 932 q 376 898 464 932 q 219 801 288 864 q 111 650 150 739 q 72 450 72 561 q 132 209 72 315 q 296 42 192 103 q 535 -18 400 -18 m 567 110 q 417 154 485 110 q 308 281 349 199 q 267 478 267 364 q 299 651 267 578 q 391 765 332 725 q 528 804 450 804 q 681 760 613 804 q 791 633 750 715 q 832 436 832 551 q 800 264 832 338 q 708 150 768 190 q 567 110 649 110 m 632 -401 q 712 -391 676 -401 q 781 -360 747 -381 l 742 -275 q 716 -283 729 -281 q 690 -285 703 -285 q 605 -246 631 -285 q 579 -156 579 -207 q 603 -56 579 -103 q 679 29 628 -8 l 622 72 q 460 -56 510 15 q 410 -193 410 -126 q 467 -346 410 -290 q 632 -401 525 -401 "},"Ø":{"ha":1090,"x_min":72,"x_max":1019,"o":"m 531 -18 q 719 18 631 -18 q 875 119 807 54 q 981 272 943 185 q 1019 464 1019 360 q 985 646 1019 561 q 890 795 951 731 q 744 896 828 860 q 558 932 660 932 q 371 896 458 932 q 216 794 283 860 q 110 641 149 729 q 72 449 72 553 q 106 267 72 351 q 201 118 139 182 q 347 18 263 54 q 531 -18 431 -18 m 561 107 q 399 154 468 107 q 290 285 329 201 q 251 482 251 369 q 286 651 251 579 q 383 764 321 724 q 529 804 446 804 q 693 758 624 804 q 801 626 763 711 q 839 429 839 542 q 804 260 839 333 q 707 147 769 188 q 561 107 644 107 m 181 -81 l 994 886 l 894 974 l 81 3 l 181 -81 "},"Ǿ":{"ha":1090,"x_min":72,"x_max":1019,"o":"m 531 -18 q 719 18 631 -18 q 875 119 807 54 q 981 272 943 185 q 1019 464 1019 360 q 985 646 1019 561 q 890 795 951 731 q 744 896 828 860 q 558 932 660 932 q 371 896 458 932 q 216 794 283 860 q 110 641 149 729 q 72 449 72 553 q 106 267 72 351 q 201 118 139 182 q 347 18 263 54 q 531 -18 431 -18 m 561 107 q 399 154 468 107 q 290 285 329 201 q 251 482 251 369 q 286 651 251 579 q 383 764 321 724 q 529 804 446 804 q 693 758 624 804 q 801 626 763 711 q 839 429 839 542 q 804 260 839 333 q 707 147 769 188 q 561 107 644 107 m 181 -81 l 994 886 l 894 974 l 81 3 l 181 -81 m 481 1015 l 608 1015 l 764 1260 l 571 1260 l 481 1015 "},"Õ":{"ha":1093,"x_min":72,"x_max":1021,"o":"m 535 -18 q 721 15 633 -18 q 876 112 808 49 q 982 264 943 175 q 1021 464 1021 353 q 962 706 1021 600 q 799 872 903 811 q 563 932 696 932 q 376 898 464 932 q 219 801 288 864 q 111 650 150 739 q 72 450 72 561 q 132 209 72 315 q 296 42 192 103 q 535 -18 400 -18 m 567 110 q 417 154 485 110 q 308 281 349 199 q 267 478 267 364 q 299 651 267 578 q 391 765 332 725 q 528 804 450 804 q 681 760 613 804 q 791 633 750 715 q 832 436 832 551 q 800 264 832 338 q 708 150 768 190 q 567 110 649 110 m 392 976 q 424 1015 403 1001 q 472 1029 446 1029 q 524 1025 497 1029 q 581 1016 551 1021 q 639 1011 610 1011 q 738 1060 692 1011 q 806 1186 785 1108 l 718 1206 q 687 1156 708 1174 q 639 1139 665 1139 q 583 1144 613 1139 q 524 1153 553 1149 q 472 1157 496 1157 q 403 1136 436 1157 q 345 1079 371 1115 q 306 997 319 1043 l 392 976 "},"Œ":{"ha":1304,"x_min":57,"x_max":1242,"o":"m 540 -10 q 685 10 618 -10 q 810 64 753 29 l 742 171 q 664 129 706 143 q 571 115 622 115 q 438 140 499 115 q 335 213 378 165 q 268 325 292 260 q 244 471 244 390 q 266 608 244 549 q 327 710 288 668 q 422 774 367 753 q 544 796 476 796 q 651 782 599 796 q 731 740 704 768 l 763 892 q 672 915 719 907 q 574 924 625 924 q 374 888 468 924 q 209 789 281 853 q 97 638 138 725 q 57 444 57 550 q 93 264 57 347 q 194 119 129 181 q 348 24 260 58 q 540 -10 436 -10 m 693 394 l 1146 394 l 1146 532 l 693 532 l 693 394 m 646 0 l 1242 0 l 1242 139 l 814 139 l 814 775 l 1199 775 l 1199 914 l 646 914 l 646 0 "},"P":{"ha":833,"x_min":132,"x_max":779,"o":"m 382 303 q 542 330 469 303 q 668 404 615 357 q 750 512 721 451 q 779 640 779 572 q 735 786 779 725 q 612 881 690 847 q 429 914 533 914 l 132 914 l 132 0 l 304 0 l 304 783 l 400 783 q 546 736 492 783 q 600 600 600 689 q 578 508 600 544 q 512 453 557 471 q 396 436 467 436 q 324 438 357 436 q 242 446 290 440 l 242 317 q 321 306 281 308 q 382 303 361 303 "},"Þ":{"ha":874,"x_min":132,"x_max":828,"o":"m 132 0 l 304 0 l 304 631 l 472 631 q 608 583 557 631 q 658 461 658 535 q 635 374 658 411 q 572 315 613 336 q 481 294 532 294 l 242 294 l 242 157 l 451 157 q 641 202 556 157 q 777 324 726 247 q 828 493 828 400 q 786 638 828 576 q 672 734 744 700 q 501 768 599 768 l 304 768 l 304 914 l 132 914 l 132 0 "},"Q":{"ha":1093,"x_min":72,"x_max":1110,"o":"m 535 -18 q 721 15 633 -18 q 876 112 808 49 q 982 264 943 175 q 1021 464 1021 353 q 962 706 1021 600 q 799 872 903 811 q 563 932 696 932 q 376 898 464 932 q 219 801 288 864 q 111 650 150 739 q 72 450 72 561 q 132 209 72 315 q 296 42 192 103 q 535 -18 400 -18 m 567 110 q 417 154 485 110 q 308 281 349 199 q 267 478 267 364 q 299 651 267 578 q 391 765 332 725 q 528 804 450 804 q 681 760 613 804 q 791 633 750 715 q 832 436 832 551 q 800 264 832 338 q 708 150 768 190 q 567 110 649 110 m 713 67 l 535 0 q 704 -182 607 -121 q 933 -243 801 -243 q 1006 -237 963 -243 q 1110 -208 1050 -231 l 1074 -122 q 1037 -133 1054 -131 q 1010 -135 1019 -135 q 897 -112 951 -135 q 796 -44 843 -89 q 713 67 749 1 "},"R":{"ha":944,"x_min":132,"x_max":971,"o":"m 132 0 l 301 0 l 301 786 l 389 786 q 522 747 475 786 q 568 644 568 708 q 549 565 568 601 q 497 506 529 528 q 426 483 465 483 l 194 483 l 194 367 l 404 367 q 532 392 471 367 q 641 460 593 417 q 717 558 689 503 q 744 675 744 614 q 703 802 744 749 q 585 885 661 856 q 404 914 508 914 l 132 914 l 132 0 m 818 -15 q 890 -8 853 -15 q 971 17 926 -1 l 933 115 q 903 108 919 110 q 879 107 888 107 q 837 114 860 107 q 788 142 814 121 q 728 204 761 164 l 528 454 l 390 406 l 561 144 q 636 51 600 86 q 716 1 672 17 q 818 -15 760 -15 "},"Ŕ":{"ha":944,"x_min":132,"x_max":971,"o":"m 132 0 l 301 0 l 301 786 l 389 786 q 522 747 475 786 q 568 644 568 708 q 549 565 568 601 q 497 506 529 528 q 426 483 465 483 l 194 483 l 194 367 l 404 367 q 532 392 471 367 q 641 460 593 417 q 717 558 689 503 q 744 675 744 614 q 703 802 744 749 q 585 885 661 856 q 404 914 508 914 l 132 914 l 132 0 m 818 -15 q 890 -8 853 -15 q 971 17 926 -1 l 933 115 q 903 108 919 110 q 879 107 888 107 q 837 114 860 107 q 788 142 814 121 q 728 204 761 164 l 528 454 l 390 406 l 561 144 q 636 51 600 86 q 716 1 672 17 q 818 -15 760 -15 m 329 1015 l 457 1015 l 613 1260 l 419 1260 l 329 1015 "},"Ř":{"ha":944,"x_min":132,"x_max":971,"o":"m 132 0 l 301 0 l 301 786 l 389 786 q 522 747 475 786 q 568 644 568 708 q 549 565 568 601 q 497 506 529 528 q 426 483 465 483 l 194 483 l 194 367 l 404 367 q 532 392 471 367 q 641 460 593 417 q 717 558 689 503 q 744 675 744 614 q 703 802 744 749 q 585 885 661 856 q 404 914 508 914 l 132 914 l 132 0 m 818 -15 q 890 -8 853 -15 q 971 17 926 -1 l 933 115 q 903 108 919 110 q 879 107 888 107 q 837 114 860 107 q 788 142 814 121 q 728 204 761 164 l 528 454 l 390 406 l 561 144 q 636 51 600 86 q 716 1 672 17 q 818 -15 760 -15 m 349 1015 l 458 1015 l 642 1260 l 518 1260 l 378 1119 l 349 1015 m 349 1015 l 458 1015 l 431 1117 l 289 1260 l 165 1260 l 349 1015 "},"Ŗ":{"ha":944,"x_min":132,"x_max":971,"o":"m 132 0 l 301 0 l 301 786 l 389 786 q 522 747 475 786 q 568 644 568 708 q 549 565 568 601 q 497 506 529 528 q 426 483 465 483 l 194 483 l 194 367 l 404 367 q 532 392 471 367 q 641 460 593 417 q 717 558 689 503 q 744 675 744 614 q 703 802 744 749 q 585 885 661 856 q 404 914 508 914 l 132 914 l 132 0 m 818 -15 q 890 -8 853 -15 q 971 17 926 -1 l 933 115 q 903 108 919 110 q 879 107 888 107 q 837 114 860 107 q 788 142 814 121 q 728 204 761 164 l 528 454 l 390 406 l 561 144 q 636 51 600 86 q 716 1 672 17 q 818 -15 760 -15 m 436 -429 q 533 -333 497 -397 q 569 -206 569 -269 q 553 -129 569 -165 q 503 -68 538 -93 l 388 -153 q 411 -192 403 -167 q 419 -250 419 -218 q 408 -317 419 -283 q 375 -379 397 -351 l 436 -429 "},"Ṛ":{"ha":944,"x_min":132,"x_max":971,"o":"m 132 0 l 301 0 l 301 786 l 389 786 q 522 747 475 786 q 568 644 568 708 q 549 565 568 601 q 497 506 529 528 q 426 483 465 483 l 194 483 l 194 367 l 404 367 q 532 392 471 367 q 641 460 593 417 q 717 558 689 503 q 744 675 744 614 q 703 802 744 749 q 585 885 661 856 q 404 914 508 914 l 132 914 l 132 0 m 818 -15 q 890 -8 853 -15 q 971 17 926 -1 l 933 115 q 903 108 919 110 q 879 107 888 107 q 837 114 860 107 q 788 142 814 121 q 728 204 761 164 l 528 454 l 390 406 l 561 144 q 636 51 600 86 q 716 1 672 17 q 818 -15 760 -15 m 478 -314 q 550 -287 522 -314 q 578 -217 578 -261 q 550 -145 578 -172 q 478 -118 522 -118 q 404 -145 432 -118 q 376 -217 376 -172 q 404 -287 376 -261 q 478 -314 432 -314 "},"Ṝ":{"ha":944,"x_min":132,"x_max":971,"o":"m 132 0 l 301 0 l 301 786 l 389 786 q 522 747 475 786 q 568 644 568 708 q 549 565 568 601 q 497 506 529 528 q 426 483 465 483 l 194 483 l 194 367 l 404 367 q 532 392 471 367 q 641 460 593 417 q 717 558 689 503 q 744 675 744 614 q 703 802 744 749 q 585 885 661 856 q 404 914 508 914 l 132 914 l 132 0 m 818 -15 q 890 -8 853 -15 q 971 17 926 -1 l 933 115 q 903 108 919 110 q 879 107 888 107 q 837 114 860 107 q 788 142 814 121 q 728 204 761 164 l 528 454 l 390 406 l 561 144 q 636 51 600 86 q 716 1 672 17 q 818 -15 760 -15 m 478 -314 q 550 -287 522 -314 q 578 -217 578 -261 q 550 -145 578 -172 q 478 -118 522 -118 q 404 -145 432 -118 q 376 -217 376 -172 q 404 -287 376 -261 q 478 -314 432 -314 m 178 1036 l 629 1036 l 629 1150 l 178 1150 l 178 1036 "},"Ṟ":{"ha":944,"x_min":132,"x_max":971,"o":"m 132 0 l 301 0 l 301 786 l 389 786 q 522 747 475 786 q 568 644 568 708 q 549 565 568 601 q 497 506 529 528 q 426 483 465 483 l 194 483 l 194 367 l 404 367 q 532 392 471 367 q 641 460 593 417 q 717 558 689 503 q 744 675 744 614 q 703 802 744 749 q 585 885 661 856 q 404 914 508 914 l 132 914 l 132 0 m 818 -15 q 890 -8 853 -15 q 971 17 926 -1 l 933 115 q 903 108 919 110 q 879 107 888 107 q 837 114 860 107 q 788 142 814 121 q 728 204 761 164 l 528 454 l 390 406 l 561 144 q 636 51 600 86 q 716 1 672 17 q 818 -15 760 -15 m 293 -237 l 661 -237 l 661 -124 l 293 -124 l 293 -237 "},"S":{"ha":735,"x_min":53,"x_max":672,"o":"m 507 225 q 472 144 507 174 q 382 115 436 115 q 254 144 319 115 q 138 215 189 172 l 53 69 q 178 8 101 35 q 344 -18 254 -18 q 506 15 432 -18 q 626 112 581 47 q 672 271 672 176 q 650 372 672 329 q 591 447 628 414 q 510 504 554 479 q 422 550 467 529 q 341 592 378 571 q 282 639 304 614 q 260 697 260 664 q 270 744 260 719 q 306 785 281 768 q 374 801 331 801 q 476 781 419 801 q 576 724 533 761 l 638 882 q 524 919 588 907 q 407 932 460 932 q 252 899 322 932 q 140 803 182 865 q 97 653 97 742 q 119 554 97 596 q 178 482 142 513 q 259 428 215 451 q 346 383 303 404 q 426 340 389 363 q 485 290 463 318 q 507 225 507 263 "},"Ś":{"ha":735,"x_min":53,"x_max":672,"o":"m 507 225 q 472 144 507 174 q 382 115 436 115 q 254 144 319 115 q 138 215 189 172 l 53 69 q 178 8 101 35 q 344 -18 254 -18 q 506 15 432 -18 q 626 112 581 47 q 672 271 672 176 q 650 372 672 329 q 591 447 628 414 q 510 504 554 479 q 422 550 467 529 q 341 592 378 571 q 282 639 304 614 q 260 697 260 664 q 270 744 260 719 q 306 785 281 768 q 374 801 331 801 q 476 781 419 801 q 576 724 533 761 l 638 882 q 524 919 588 907 q 407 932 460 932 q 252 899 322 932 q 140 803 182 865 q 97 653 97 742 q 119 554 97 596 q 178 482 142 513 q 259 428 215 451 q 346 383 303 404 q 426 340 389 363 q 485 290 463 318 q 507 225 507 263 m 329 1015 l 457 1015 l 613 1260 l 419 1260 l 329 1015 "},"Ꞌ":{"ha":365,"x_min":94,"x_max":271,"o":"m 136 326 l 229 326 l 271 914 l 94 914 l 136 326 "},"Š":{"ha":735,"x_min":53,"x_max":672,"o":"m 507 225 q 472 144 507 174 q 382 115 436 115 q 254 144 319 115 q 138 215 189 172 l 53 69 q 178 8 101 35 q 344 -18 254 -18 q 506 15 432 -18 q 626 112 581 47 q 672 271 672 176 q 650 372 672 329 q 591 447 628 414 q 510 504 554 479 q 422 550 467 529 q 341 592 378 571 q 282 639 304 614 q 260 697 260 664 q 270 744 260 719 q 306 785 281 768 q 374 801 331 801 q 476 781 419 801 q 576 724 533 761 l 638 882 q 524 919 588 907 q 407 932 460 932 q 252 899 322 932 q 140 803 182 865 q 97 653 97 742 q 119 554 97 596 q 178 482 142 513 q 259 428 215 451 q 346 383 303 404 q 426 340 389 363 q 485 290 463 318 q 507 225 507 263 m 349 1015 l 458 1015 l 642 1260 l 518 1260 l 378 1119 l 349 1015 m 349 1015 l 458 1015 l 431 1117 l 289 1260 l 165 1260 l 349 1015 "},"Ş":{"ha":735,"x_min":53,"x_max":672,"o":"m 507 225 q 472 144 507 174 q 382 115 436 115 q 254 144 319 115 q 138 215 189 172 l 53 69 q 178 8 101 35 q 344 -18 254 -18 q 506 15 432 -18 q 626 112 581 47 q 672 271 672 176 q 650 372 672 329 q 591 447 628 414 q 510 504 554 479 q 422 550 467 529 q 341 592 378 571 q 282 639 304 614 q 260 697 260 664 q 270 744 260 719 q 306 785 281 768 q 374 801 331 801 q 476 781 419 801 q 576 724 533 761 l 638 882 q 524 919 588 907 q 407 932 460 932 q 252 899 322 932 q 140 803 182 865 q 97 653 97 742 q 119 554 97 596 q 178 482 142 513 q 259 428 215 451 q 346 383 303 404 q 426 340 389 363 q 485 290 463 318 q 507 225 507 263 m 322 0 l 269 -167 q 299 -160 285 -162 q 326 -158 313 -158 q 392 -176 365 -158 q 419 -222 419 -193 q 403 -262 419 -243 q 347 -281 386 -281 q 292 -272 321 -281 q 244 -250 264 -264 l 215 -328 q 283 -361 246 -350 q 364 -372 321 -372 q 501 -332 450 -372 q 553 -225 553 -292 q 509 -123 553 -161 q 396 -85 465 -85 q 349 -90 369 -85 q 315 -107 329 -96 l 381 -128 l 415 0 l 322 0 "},"Ŝ":{"ha":735,"x_min":53,"x_max":672,"o":"m 507 225 q 472 144 507 174 q 382 115 436 115 q 254 144 319 115 q 138 215 189 172 l 53 69 q 178 8 101 35 q 344 -18 254 -18 q 506 15 432 -18 q 626 112 581 47 q 672 271 672 176 q 650 372 672 329 q 591 447 628 414 q 510 504 554 479 q 422 550 467 529 q 341 592 378 571 q 282 639 304 614 q 260 697 260 664 q 270 744 260 719 q 306 785 281 768 q 374 801 331 801 q 476 781 419 801 q 576 724 533 761 l 638 882 q 524 919 588 907 q 407 932 460 932 q 252 899 322 932 q 140 803 182 865 q 97 653 97 742 q 119 554 97 596 q 178 482 142 513 q 259 428 215 451 q 346 383 303 404 q 426 340 389 363 q 485 290 463 318 q 507 225 507 263 m 518 1015 l 642 1015 l 458 1260 l 349 1260 l 378 1156 l 518 1015 m 165 1015 l 289 1015 l 431 1158 l 458 1260 l 349 1260 l 165 1015 "},"Ș":{"ha":735,"x_min":53,"x_max":672,"o":"m 507 225 q 472 144 507 174 q 382 115 436 115 q 254 144 319 115 q 138 215 189 172 l 53 69 q 178 8 101 35 q 344 -18 254 -18 q 506 15 432 -18 q 626 112 581 47 q 672 271 672 176 q 650 372 672 329 q 591 447 628 414 q 510 504 554 479 q 422 550 467 529 q 341 592 378 571 q 282 639 304 614 q 260 697 260 664 q 270 744 260 719 q 306 785 281 768 q 374 801 331 801 q 476 781 419 801 q 576 724 533 761 l 638 882 q 524 919 588 907 q 407 932 460 932 q 252 899 322 932 q 140 803 182 865 q 97 653 97 742 q 119 554 97 596 q 178 482 142 513 q 259 428 215 451 q 346 383 303 404 q 426 340 389 363 q 485 290 463 318 q 507 225 507 263 m 326 -429 q 424 -333 388 -397 q 460 -206 460 -269 q 444 -129 460 -165 q 393 -68 428 -93 l 278 -153 q 301 -192 293 -167 q 310 -250 310 -218 q 299 -317 310 -283 q 265 -379 288 -351 l 326 -429 "},"Ṡ":{"ha":735,"x_min":53,"x_max":672,"o":"m 507 225 q 472 144 507 174 q 382 115 436 115 q 254 144 319 115 q 138 215 189 172 l 53 69 q 178 8 101 35 q 344 -18 254 -18 q 506 15 432 -18 q 626 112 581 47 q 672 271 672 176 q 650 372 672 329 q 591 447 628 414 q 510 504 554 479 q 422 550 467 529 q 341 592 378 571 q 282 639 304 614 q 260 697 260 664 q 270 744 260 719 q 306 785 281 768 q 374 801 331 801 q 476 781 419 801 q 576 724 533 761 l 638 882 q 524 919 588 907 q 407 932 460 932 q 252 899 322 932 q 140 803 182 865 q 97 653 97 742 q 119 554 97 596 q 178 482 142 513 q 259 428 215 451 q 346 383 303 404 q 426 340 389 363 q 485 290 463 318 q 507 225 507 263 m 404 1015 q 476 1042 449 1015 q 504 1113 504 1068 q 476 1184 504 1157 q 404 1211 449 1211 q 331 1184 358 1211 q 303 1113 303 1157 q 331 1042 303 1068 q 404 1015 358 1015 "},"Ṣ":{"ha":735,"x_min":53,"x_max":672,"o":"m 507 225 q 472 144 507 174 q 382 115 436 115 q 254 144 319 115 q 138 215 189 172 l 53 69 q 178 8 101 35 q 344 -18 254 -18 q 506 15 432 -18 q 626 112 581 47 q 672 271 672 176 q 650 372 672 329 q 591 447 628 414 q 510 504 554 479 q 422 550 467 529 q 341 592 378 571 q 282 639 304 614 q 260 697 260 664 q 270 744 260 719 q 306 785 281 768 q 374 801 331 801 q 476 781 419 801 q 576 724 533 761 l 638 882 q 524 919 588 907 q 407 932 460 932 q 252 899 322 932 q 140 803 182 865 q 97 653 97 742 q 119 554 97 596 q 178 482 142 513 q 259 428 215 451 q 346 383 303 404 q 426 340 389 363 q 485 290 463 318 q 507 225 507 263 m 368 -314 q 440 -287 413 -314 q 468 -217 468 -261 q 440 -145 468 -172 q 368 -118 413 -118 q 294 -145 322 -118 q 267 -217 267 -172 q 294 -287 267 -261 q 368 -314 322 -314 "},"ẞ":{"ha":992,"x_min":117,"x_max":936,"o":"m 117 0 l 300 0 l 300 549 q 331 697 300 643 q 411 773 361 750 q 521 796 461 796 q 638 781 578 796 q 747 739 697 767 l 889 882 q 796 910 844 899 q 697 926 747 921 q 592 932 646 932 q 408 910 494 932 q 256 837 322 888 q 153 701 190 786 q 117 492 117 617 l 117 0 m 629 -10 q 794 32 726 -10 q 899 142 863 74 q 936 290 936 210 q 919 385 936 343 q 875 458 903 426 q 814 513 847 490 q 747 552 781 536 q 685 576 713 568 l 567 440 q 661 402 615 426 q 736 341 707 378 q 765 253 765 304 q 748 181 765 210 q 702 138 731 151 q 639 124 674 124 q 569 136 606 124 q 501 167 533 149 l 449 22 q 527 1 476 11 q 629 -10 578 -10 m 567 440 l 731 490 l 889 882 l 742 888 l 567 440 "},"T":{"ha":857,"x_min":39,"x_max":818,"o":"m 338 0 l 518 0 l 518 914 l 338 914 l 338 0 m 39 776 l 818 776 l 818 914 l 39 914 l 39 776 "},"Ŧ":{"ha":857,"x_min":39,"x_max":818,"o":"m 338 0 l 518 0 l 518 914 l 338 914 l 338 0 m 39 776 l 818 776 l 818 914 l 39 914 l 39 776 m 175 393 l 682 393 l 682 522 l 175 522 l 175 393 "},"Ť":{"ha":857,"x_min":39,"x_max":818,"o":"m 338 0 l 518 0 l 518 914 l 338 914 l 338 0 m 39 776 l 818 776 l 818 914 l 39 914 l 39 776 m 374 1015 l 483 1015 l 667 1260 l 543 1260 l 403 1119 l 374 1015 m 374 1015 l 483 1015 l 456 1117 l 314 1260 l 190 1260 l 374 1015 "},"Ţ":{"ha":857,"x_min":39,"x_max":818,"o":"m 338 0 l 518 0 l 518 914 l 338 914 l 338 0 m 39 776 l 818 776 l 818 914 l 39 914 l 39 776 m 383 0 l 331 -167 q 360 -160 346 -162 q 388 -158 374 -158 q 453 -176 426 -158 q 481 -222 481 -193 q 464 -262 481 -243 q 408 -281 447 -281 q 353 -272 382 -281 q 306 -250 325 -264 l 276 -328 q 344 -361 307 -350 q 425 -372 382 -372 q 563 -332 511 -372 q 614 -225 614 -292 q 570 -123 614 -161 q 457 -85 526 -85 q 410 -90 431 -85 q 376 -107 390 -96 l 442 -128 l 476 0 l 383 0 "},"Ț":{"ha":857,"x_min":39,"x_max":818,"o":"m 338 0 l 518 0 l 518 914 l 338 914 l 338 0 m 39 776 l 818 776 l 818 914 l 39 914 l 39 776 m 388 -429 q 485 -333 449 -397 q 521 -206 521 -269 q 505 -129 521 -165 q 454 -68 489 -93 l 339 -153 q 363 -192 354 -167 q 371 -250 371 -218 q 360 -317 371 -283 q 326 -379 349 -351 l 388 -429 "},"Ṭ":{"ha":857,"x_min":39,"x_max":818,"o":"m 338 0 l 518 0 l 518 914 l 338 914 l 338 0 m 39 776 l 818 776 l 818 914 l 39 914 l 39 776 m 429 -314 q 501 -287 474 -314 q 529 -217 529 -261 q 501 -145 529 -172 q 429 -118 474 -118 q 356 -145 383 -118 q 328 -217 328 -172 q 356 -287 328 -261 q 429 -314 383 -314 "},"Ṯ":{"ha":857,"x_min":39,"x_max":818,"o":"m 338 0 l 518 0 l 518 914 l 338 914 l 338 0 m 39 776 l 818 776 l 818 914 l 39 914 l 39 776 m 244 -237 l 613 -237 l 613 -124 l 244 -124 l 244 -237 "},"U":{"ha":1018,"x_min":117,"x_max":907,"o":"m 499 -18 q 714 33 622 -18 q 856 175 806 83 q 907 390 907 267 l 907 914 l 754 914 l 754 350 q 728 232 754 283 q 653 152 703 181 q 531 124 603 124 q 403 155 457 124 q 322 246 350 186 q 294 390 294 306 l 294 914 l 117 914 l 117 353 q 165 156 117 239 q 299 27 213 72 q 499 -18 385 -18 "},"Ú":{"ha":1018,"x_min":117,"x_max":907,"o":"m 499 -18 q 714 33 622 -18 q 856 175 806 83 q 907 390 907 267 l 907 914 l 754 914 l 754 350 q 728 232 754 283 q 653 152 703 181 q 531 124 603 124 q 403 155 457 124 q 322 246 350 186 q 294 390 294 306 l 294 914 l 117 914 l 117 353 q 165 156 117 239 q 299 27 213 72 q 499 -18 385 -18 m 456 1015 l 583 1015 l 739 1260 l 546 1260 l 456 1015 "},"Ŭ":{"ha":1018,"x_min":117,"x_max":907,"o":"m 499 -18 q 714 33 622 -18 q 856 175 806 83 q 907 390 907 267 l 907 914 l 754 914 l 754 350 q 728 232 754 283 q 653 152 703 181 q 531 124 603 124 q 403 155 457 124 q 322 246 350 186 q 294 390 294 306 l 294 914 l 117 914 l 117 353 q 165 156 117 239 q 299 27 213 72 q 499 -18 385 -18 m 531 979 q 675 1036 618 979 q 750 1196 732 1093 l 663 1210 q 616 1135 653 1163 q 531 1108 579 1108 q 446 1135 482 1108 q 399 1210 410 1163 l 311 1196 q 386 1036 329 1093 q 531 979 443 979 "},"Ǔ":{"ha":1018,"x_min":117,"x_max":907,"o":"m 499 -18 q 714 33 622 -18 q 856 175 806 83 q 907 390 907 267 l 907 914 l 754 914 l 754 350 q 728 232 754 283 q 653 152 703 181 q 531 124 603 124 q 403 155 457 124 q 322 246 350 186 q 294 390 294 306 l 294 914 l 117 914 l 117 353 q 165 156 117 239 q 299 27 213 72 q 499 -18 385 -18 m 475 1015 l 585 1015 l 768 1260 l 644 1260 l 504 1119 l 475 1015 m 475 1015 l 585 1015 l 557 1117 l 415 1260 l 292 1260 l 475 1015 "},"Û":{"ha":1018,"x_min":117,"x_max":907,"o":"m 499 -18 q 714 33 622 -18 q 856 175 806 83 q 907 390 907 267 l 907 914 l 754 914 l 754 350 q 728 232 754 283 q 653 152 703 181 q 531 124 603 124 q 403 155 457 124 q 322 246 350 186 q 294 390 294 306 l 294 914 l 117 914 l 117 353 q 165 156 117 239 q 299 27 213 72 q 499 -18 385 -18 m 644 1015 l 768 1015 l 585 1260 l 475 1260 l 504 1156 l 644 1015 m 292 1015 l 415 1015 l 557 1158 l 585 1260 l 475 1260 l 292 1015 "},"Ü":{"ha":1018,"x_min":117,"x_max":907,"o":"m 499 -18 q 714 33 622 -18 q 856 175 806 83 q 907 390 907 267 l 907 914 l 754 914 l 754 350 q 728 232 754 283 q 653 152 703 181 q 531 124 603 124 q 403 155 457 124 q 322 246 350 186 q 294 390 294 306 l 294 914 l 117 914 l 117 353 q 165 156 117 239 q 299 27 213 72 q 499 -18 385 -18 m 393 1006 q 460 1031 435 1006 q 486 1096 486 1057 q 460 1163 486 1138 q 393 1189 435 1189 q 326 1163 351 1189 q 300 1096 300 1138 q 326 1031 300 1057 q 393 1006 351 1006 m 668 1006 q 734 1031 708 1006 q 760 1096 760 1057 q 734 1163 760 1138 q 668 1189 708 1189 q 599 1163 625 1189 q 572 1096 572 1138 q 599 1031 572 1057 q 668 1006 625 1006 "},"Ǘ":{"ha":1024,"x_min":117,"x_max":907,"o":"m 499 -18 q 714 33 622 -18 q 856 175 806 83 q 907 390 907 267 l 907 914 l 754 914 l 754 350 q 728 232 754 283 q 653 152 703 181 q 531 124 603 124 q 403 155 457 124 q 322 246 350 186 q 294 390 294 306 l 294 914 l 117 914 l 117 353 q 165 156 117 239 q 299 27 213 72 q 499 -18 385 -18 m 392 976 q 459 1002 433 976 q 485 1067 485 1028 q 459 1134 485 1108 q 392 1160 433 1160 q 324 1134 350 1160 q 299 1067 299 1108 q 324 1002 299 1028 q 392 976 350 976 m 667 976 q 733 1002 707 976 q 758 1067 758 1028 q 733 1134 758 1108 q 667 1160 707 1160 q 597 1134 624 1160 q 571 1067 571 1108 q 597 1002 571 1028 q 667 976 624 976 m 464 1197 l 592 1197 l 747 1442 l 554 1442 l 464 1197 "},"Ǚ":{"ha":1018,"x_min":117,"x_max":907,"o":"m 499 -18 q 714 33 622 -18 q 856 175 806 83 q 907 390 907 267 l 907 914 l 754 914 l 754 350 q 728 232 754 283 q 653 152 703 181 q 531 124 603 124 q 403 155 457 124 q 322 246 350 186 q 294 390 294 306 l 294 914 l 117 914 l 117 353 q 165 156 117 239 q 299 27 213 72 q 499 -18 385 -18 m 649 976 q 716 1002 690 976 q 742 1067 742 1028 q 716 1134 742 1108 q 649 1160 690 1160 q 581 1134 607 1160 q 556 1067 556 1108 q 581 1002 556 1028 q 649 976 607 976 m 374 976 q 443 1002 417 976 q 469 1067 469 1028 q 443 1134 469 1108 q 374 1160 417 1160 q 308 1134 333 1160 q 282 1067 282 1108 q 308 1002 282 1028 q 374 976 333 976 m 460 1197 l 569 1197 l 753 1442 l 629 1442 l 489 1301 l 460 1197 m 460 1197 l 569 1197 l 542 1299 l 400 1442 l 276 1442 l 460 1197 "},"Ǜ":{"ha":1018,"x_min":117,"x_max":907,"o":"m 499 -18 q 714 33 622 -18 q 856 175 806 83 q 907 390 907 267 l 907 914 l 754 914 l 754 350 q 728 232 754 283 q 653 152 703 181 q 531 124 603 124 q 403 155 457 124 q 322 246 350 186 q 294 390 294 306 l 294 914 l 117 914 l 117 353 q 165 156 117 239 q 299 27 213 72 q 499 -18 385 -18 m 651 976 q 719 1002 693 976 q 744 1067 744 1028 q 719 1134 744 1108 q 651 1160 693 1160 q 584 1134 610 1160 q 558 1067 558 1108 q 584 1002 558 1028 q 651 976 610 976 m 376 976 q 446 1002 419 976 q 472 1067 472 1028 q 446 1134 472 1108 q 376 1160 419 1160 q 310 1134 336 1160 q 285 1067 285 1108 q 310 1002 285 1028 q 376 976 336 976 m 579 1197 l 489 1442 l 296 1442 l 451 1197 l 579 1197 "},"Ǖ":{"ha":1018,"x_min":117,"x_max":907,"o":"m 499 -18 q 714 33 622 -18 q 856 175 806 83 q 907 390 907 267 l 907 914 l 754 914 l 754 350 q 728 232 754 283 q 653 152 703 181 q 531 124 603 124 q 403 155 457 124 q 322 246 350 186 q 294 390 294 306 l 294 914 l 117 914 l 117 353 q 165 156 117 239 q 299 27 213 72 q 499 -18 385 -18 m 376 976 q 444 1002 418 976 q 469 1067 469 1028 q 444 1134 469 1108 q 376 1160 418 1160 q 309 1134 335 1160 q 283 1067 283 1108 q 309 1002 283 1028 q 376 976 335 976 m 651 976 q 717 1002 692 976 q 743 1067 743 1028 q 717 1134 743 1108 q 651 1160 692 1160 q 582 1134 608 1160 q 556 1067 556 1108 q 582 1002 556 1028 q 651 976 608 976 m 274 1250 l 751 1250 l 751 1364 l 274 1364 l 274 1250 "},"Ụ":{"ha":1018,"x_min":117,"x_max":907,"o":"m 499 -18 q 714 33 622 -18 q 856 175 806 83 q 907 390 907 267 l 907 914 l 754 914 l 754 350 q 728 232 754 283 q 653 152 703 181 q 531 124 603 124 q 403 155 457 124 q 322 246 350 186 q 294 390 294 306 l 294 914 l 117 914 l 117 353 q 165 156 117 239 q 299 27 213 72 q 499 -18 385 -18 m 511 -314 q 583 -287 556 -314 q 611 -217 611 -261 q 583 -145 611 -172 q 511 -118 556 -118 q 438 -145 465 -118 q 410 -217 410 -172 q 438 -287 410 -261 q 511 -314 465 -314 "},"Ù":{"ha":1018,"x_min":117,"x_max":907,"o":"m 499 -18 q 714 33 622 -18 q 856 175 806 83 q 907 390 907 267 l 907 914 l 754 914 l 754 350 q 728 232 754 283 q 653 152 703 181 q 531 124 603 124 q 403 155 457 124 q 322 246 350 186 q 294 390 294 306 l 294 914 l 117 914 l 117 353 q 165 156 117 239 q 299 27 213 72 q 499 -18 385 -18 m 478 1015 l 606 1015 l 515 1260 l 322 1260 l 478 1015 "},"Ủ":{"ha":1018,"x_min":117,"x_max":907,"o":"m 499 -18 q 714 33 622 -18 q 856 175 806 83 q 907 390 907 267 l 907 914 l 754 914 l 754 350 q 728 232 754 283 q 653 152 703 181 q 531 124 603 124 q 403 155 457 124 q 322 246 350 186 q 294 390 294 306 l 294 914 l 117 914 l 117 353 q 165 156 117 239 q 299 27 213 72 q 499 -18 385 -18 m 467 971 l 600 971 l 600 1079 l 532 1028 q 665 1061 617 1028 q 713 1146 713 1094 q 667 1230 713 1194 q 544 1265 621 1265 q 469 1253 511 1265 q 386 1210 426 1242 l 436 1149 q 473 1167 451 1161 q 513 1172 494 1172 q 551 1161 538 1172 q 564 1128 564 1150 q 538 1094 564 1107 q 464 1082 513 1082 l 467 971 "},"Ư":{"ha":1038,"x_min":117,"x_max":1081,"o":"m 500 -18 q 714 33 622 -18 q 856 175 806 83 q 907 390 907 267 l 907 854 l 747 854 l 747 346 q 722 226 747 276 q 649 150 697 176 q 532 124 601 124 q 406 154 460 124 q 324 247 353 185 q 294 404 294 308 l 294 914 l 117 914 l 117 353 q 165 156 117 239 q 299 27 213 72 q 500 -18 385 -18 m 789 767 q 942 801 876 774 q 1044 878 1007 829 q 1081 999 1081 928 q 1059 1092 1081 1051 q 997 1160 1038 1132 l 892 1078 q 923 1042 913 1064 q 933 993 933 1019 q 909 922 933 950 q 843 877 885 893 q 747 854 801 861 l 789 767 "},"Ứ":{"ha":1038,"x_min":117,"x_max":1081,"o":"m 500 -18 q 714 33 622 -18 q 856 175 806 83 q 907 390 907 267 l 907 854 l 747 854 l 747 346 q 722 226 747 276 q 649 150 697 176 q 532 124 601 124 q 406 154 460 124 q 324 247 353 185 q 294 404 294 308 l 294 914 l 117 914 l 117 353 q 165 156 117 239 q 299 27 213 72 q 500 -18 385 -18 m 789 767 q 942 801 876 774 q 1044 878 1007 829 q 1081 999 1081 928 q 1059 1092 1081 1051 q 997 1160 1038 1132 l 892 1078 q 923 1042 913 1064 q 933 993 933 1019 q 909 922 933 950 q 843 877 885 893 q 747 854 801 861 l 789 767 m 451 1015 l 579 1015 l 735 1260 l 542 1260 l 451 1015 "},"Ự":{"ha":1038,"x_min":117,"x_max":1081,"o":"m 500 -18 q 714 33 622 -18 q 856 175 806 83 q 907 390 907 267 l 907 854 l 747 854 l 747 346 q 722 226 747 276 q 649 150 697 176 q 532 124 601 124 q 406 154 460 124 q 324 247 353 185 q 294 404 294 308 l 294 914 l 117 914 l 117 353 q 165 156 117 239 q 299 27 213 72 q 500 -18 385 -18 m 789 767 q 942 801 876 774 q 1044 878 1007 829 q 1081 999 1081 928 q 1059 1092 1081 1051 q 997 1160 1038 1132 l 892 1078 q 923 1042 913 1064 q 933 993 933 1019 q 909 922 933 950 q 843 877 885 893 q 747 854 801 861 l 789 767 m 526 -314 q 599 -287 571 -314 q 626 -217 626 -261 q 599 -145 626 -172 q 526 -118 571 -118 q 453 -145 481 -118 q 425 -217 425 -172 q 453 -287 425 -261 q 526 -314 481 -314 "},"Ừ":{"ha":1038,"x_min":117,"x_max":1081,"o":"m 500 -18 q 714 33 622 -18 q 856 175 806 83 q 907 390 907 267 l 907 854 l 747 854 l 747 346 q 722 226 747 276 q 649 150 697 176 q 532 124 601 124 q 406 154 460 124 q 324 247 353 185 q 294 404 294 308 l 294 914 l 117 914 l 117 353 q 165 156 117 239 q 299 27 213 72 q 500 -18 385 -18 m 789 767 q 942 801 876 774 q 1044 878 1007 829 q 1081 999 1081 928 q 1059 1092 1081 1051 q 997 1160 1038 1132 l 892 1078 q 923 1042 913 1064 q 933 993 933 1019 q 909 922 933 950 q 843 877 885 893 q 747 854 801 861 l 789 767 m 474 1015 l 601 1015 l 511 1260 l 318 1260 l 474 1015 "},"Ử":{"ha":1038,"x_min":117,"x_max":1081,"o":"m 500 -18 q 714 33 622 -18 q 856 175 806 83 q 907 390 907 267 l 907 854 l 747 854 l 747 346 q 722 226 747 276 q 649 150 697 176 q 532 124 601 124 q 406 154 460 124 q 324 247 353 185 q 294 404 294 308 l 294 914 l 117 914 l 117 353 q 165 156 117 239 q 299 27 213 72 q 500 -18 385 -18 m 789 767 q 942 801 876 774 q 1044 878 1007 829 q 1081 999 1081 928 q 1059 1092 1081 1051 q 997 1160 1038 1132 l 892 1078 q 923 1042 913 1064 q 933 993 933 1019 q 909 922 933 950 q 843 877 885 893 q 747 854 801 861 l 789 767 m 463 971 l 596 971 l 596 1079 l 528 1028 q 660 1061 613 1028 q 708 1146 708 1094 q 663 1230 708 1194 q 540 1265 617 1265 q 465 1253 507 1265 q 382 1210 422 1242 l 432 1149 q 469 1167 447 1161 q 508 1172 490 1172 q 547 1161 533 1172 q 560 1128 560 1150 q 534 1094 560 1107 q 460 1082 508 1082 l 463 971 "},"Ữ":{"ha":1038,"x_min":117,"x_max":1081,"o":"m 500 -18 q 714 33 622 -18 q 856 175 806 83 q 907 390 907 267 l 907 854 l 747 854 l 747 346 q 722 226 747 276 q 649 150 697 176 q 532 124 601 124 q 406 154 460 124 q 324 247 353 185 q 294 404 294 308 l 294 914 l 117 914 l 117 353 q 165 156 117 239 q 299 27 213 72 q 500 -18 385 -18 m 789 767 q 942 801 876 774 q 1044 878 1007 829 q 1081 999 1081 928 q 1059 1092 1081 1051 q 997 1160 1038 1132 l 892 1078 q 923 1042 913 1064 q 933 993 933 1019 q 909 922 933 950 q 843 877 885 893 q 747 854 801 861 l 789 767 m 363 976 q 395 1015 374 1001 q 443 1029 417 1029 q 495 1025 468 1029 q 551 1016 522 1021 q 610 1011 581 1011 q 709 1060 663 1011 q 776 1186 756 1108 l 689 1206 q 658 1156 679 1174 q 610 1139 636 1139 q 553 1144 583 1139 q 495 1153 524 1149 q 443 1157 467 1157 q 374 1136 407 1157 q 316 1079 342 1115 q 276 997 290 1043 l 363 976 "},"Ű":{"ha":1018,"x_min":117,"x_max":907,"o":"m 499 -18 q 714 33 622 -18 q 856 175 806 83 q 907 390 907 267 l 907 914 l 754 914 l 754 350 q 728 232 754 283 q 653 152 703 181 q 531 124 603 124 q 403 155 457 124 q 322 246 350 186 q 294 390 294 306 l 294 914 l 117 914 l 117 353 q 165 156 117 239 q 299 27 213 72 q 499 -18 385 -18 m 332 1015 l 460 1015 l 615 1260 l 422 1260 l 332 1015 m 578 1015 l 706 1015 l 861 1260 l 668 1260 l 578 1015 "},"Ū":{"ha":1018,"x_min":117,"x_max":907,"o":"m 499 -18 q 714 33 622 -18 q 856 175 806 83 q 907 390 907 267 l 907 914 l 754 914 l 754 350 q 728 232 754 283 q 653 152 703 181 q 531 124 603 124 q 403 155 457 124 q 322 246 350 186 q 294 390 294 306 l 294 914 l 117 914 l 117 353 q 165 156 117 239 q 299 27 213 72 q 499 -18 385 -18 m 304 1036 l 756 1036 l 756 1150 l 304 1150 l 304 1036 "},"Ų":{"ha":1018,"x_min":117,"x_max":907,"o":"m 499 -18 q 714 33 622 -18 q 856 175 806 83 q 907 390 907 267 l 907 914 l 754 914 l 754 350 q 728 232 754 283 q 653 152 703 181 q 531 124 603 124 q 403 155 457 124 q 322 246 350 186 q 294 390 294 306 l 294 914 l 117 914 l 117 353 q 165 156 117 239 q 299 27 213 72 q 499 -18 385 -18 m 583 -401 q 663 -391 628 -401 q 732 -360 699 -381 l 693 -275 q 667 -283 681 -281 q 642 -285 654 -285 q 556 -246 582 -285 q 531 -156 531 -207 q 555 -56 531 -103 q 631 29 579 -8 l 574 72 q 411 -56 461 15 q 361 -193 361 -126 q 419 -346 361 -290 q 583 -401 476 -401 "},"Ů":{"ha":1018,"x_min":117,"x_max":907,"o":"m 499 -18 q 714 33 622 -18 q 856 175 806 83 q 907 390 907 267 l 907 914 l 754 914 l 754 350 q 728 232 754 283 q 653 152 703 181 q 531 124 603 124 q 403 155 457 124 q 322 246 350 186 q 294 390 294 306 l 294 914 l 117 914 l 117 353 q 165 156 117 239 q 299 27 213 72 q 499 -18 385 -18 m 529 957 q 657 997 607 957 q 707 1099 707 1038 q 658 1201 707 1160 q 533 1242 610 1242 q 405 1202 456 1242 q 354 1101 354 1163 q 403 998 354 1039 q 529 957 453 957 m 532 1031 q 488 1050 506 1031 q 471 1101 471 1069 q 488 1150 471 1132 q 531 1168 504 1168 q 574 1149 558 1168 q 590 1099 590 1131 q 574 1049 590 1068 q 532 1031 558 1031 "},"Ũ":{"ha":1018,"x_min":117,"x_max":907,"o":"m 499 -18 q 714 33 622 -18 q 856 175 806 83 q 907 390 907 267 l 907 914 l 754 914 l 754 350 q 728 232 754 283 q 653 152 703 181 q 531 124 603 124 q 403 155 457 124 q 322 246 350 186 q 294 390 294 306 l 294 914 l 117 914 l 117 353 q 165 156 117 239 q 299 27 213 72 q 499 -18 385 -18 m 367 976 q 399 1015 378 1001 q 447 1029 421 1029 q 499 1025 472 1029 q 556 1016 526 1021 q 614 1011 585 1011 q 713 1060 667 1011 q 781 1186 760 1108 l 693 1206 q 662 1156 683 1174 q 614 1139 640 1139 q 558 1144 588 1139 q 499 1153 528 1149 q 447 1157 471 1157 q 378 1136 411 1157 q 320 1079 346 1115 q 281 997 294 1043 l 367 976 "},"V":{"ha":936,"x_min":43,"x_max":893,"o":"m 374 0 l 546 0 l 893 914 l 719 914 l 433 39 l 540 39 l 242 914 l 43 914 l 374 0 "},"W":{"ha":1344,"x_min":50,"x_max":1296,"o":"m 868 0 l 1042 0 l 1296 914 l 1129 914 l 924 39 l 1026 39 l 774 914 l 601 914 l 868 0 m 301 0 l 475 0 l 731 914 l 592 914 l 353 39 l 453 39 l 235 914 l 50 914 l 301 0 "},"Ẃ":{"ha":1344,"x_min":50,"x_max":1296,"o":"m 868 0 l 1042 0 l 1296 914 l 1129 914 l 924 39 l 1026 39 l 774 914 l 601 914 l 868 0 m 301 0 l 475 0 l 731 914 l 592 914 l 353 39 l 453 39 l 235 914 l 50 914 l 301 0 m 597 1015 l 725 1015 l 881 1260 l 688 1260 l 597 1015 "},"Ŵ":{"ha":1344,"x_min":50,"x_max":1296,"o":"m 868 0 l 1042 0 l 1296 914 l 1129 914 l 924 39 l 1026 39 l 774 914 l 601 914 l 868 0 m 301 0 l 475 0 l 731 914 l 592 914 l 353 39 l 453 39 l 235 914 l 50 914 l 301 0 m 786 1015 l 910 1015 l 726 1260 l 617 1260 l 646 1156 l 786 1015 m 433 1015 l 557 1015 l 699 1158 l 726 1260 l 617 1260 l 433 1015 "},"Ẅ":{"ha":1344,"x_min":50,"x_max":1296,"o":"m 868 0 l 1042 0 l 1296 914 l 1129 914 l 924 39 l 1026 39 l 774 914 l 601 914 l 868 0 m 301 0 l 475 0 l 731 914 l 592 914 l 353 39 l 453 39 l 235 914 l 50 914 l 301 0 m 535 1006 q 602 1031 576 1006 q 628 1096 628 1057 q 602 1163 628 1138 q 535 1189 576 1189 q 467 1163 493 1189 q 442 1096 442 1138 q 467 1031 442 1057 q 535 1006 493 1006 m 810 1006 q 876 1031 850 1006 q 901 1096 901 1057 q 876 1163 901 1138 q 810 1189 850 1189 q 740 1163 767 1189 q 714 1096 714 1138 q 740 1031 714 1057 q 810 1006 767 1006 "},"Ẁ":{"ha":1344,"x_min":50,"x_max":1296,"o":"m 868 0 l 1042 0 l 1296 914 l 1129 914 l 924 39 l 1026 39 l 774 914 l 601 914 l 868 0 m 301 0 l 475 0 l 731 914 l 592 914 l 353 39 l 453 39 l 235 914 l 50 914 l 301 0 m 619 1015 l 747 1015 l 657 1260 l 464 1260 l 619 1015 "},"X":{"ha":888,"x_min":35,"x_max":872,"o":"m 35 0 l 233 0 l 436 340 l 658 0 l 872 0 l 549 472 l 853 914 l 657 914 l 465 585 l 265 914 l 50 914 l 354 453 l 35 0 "},"Y":{"ha":885,"x_min":21,"x_max":864,"o":"m 386 314 l 503 419 l 236 914 l 21 914 l 386 314 m 351 0 l 531 0 l 531 417 l 351 417 l 351 0 m 500 322 l 864 914 l 676 914 l 406 419 l 500 322 "},"Ý":{"ha":885,"x_min":21,"x_max":864,"o":"m 386 314 l 503 419 l 236 914 l 21 914 l 386 314 m 351 0 l 531 0 l 531 417 l 351 417 l 351 0 m 500 322 l 864 914 l 676 914 l 406 419 l 500 322 m 368 1015 l 496 1015 l 651 1260 l 458 1260 l 368 1015 "},"Ŷ":{"ha":885,"x_min":21,"x_max":864,"o":"m 386 314 l 503 419 l 236 914 l 21 914 l 386 314 m 351 0 l 531 0 l 531 417 l 351 417 l 351 0 m 500 322 l 864 914 l 676 914 l 406 419 l 500 322 m 557 1015 l 681 1015 l 497 1260 l 388 1260 l 417 1156 l 557 1015 m 204 1015 l 328 1015 l 469 1158 l 497 1260 l 388 1260 l 204 1015 "},"Ÿ":{"ha":885,"x_min":21,"x_max":864,"o":"m 386 314 l 503 419 l 236 914 l 21 914 l 386 314 m 351 0 l 531 0 l 531 417 l 351 417 l 351 0 m 500 322 l 864 914 l 676 914 l 406 419 l 500 322 m 306 1006 q 373 1031 347 1006 q 399 1096 399 1057 q 373 1163 399 1138 q 306 1189 347 1189 q 238 1163 264 1189 q 213 1096 213 1138 q 238 1031 213 1057 q 306 1006 264 1006 m 581 1006 q 647 1031 621 1006 q 672 1096 672 1057 q 647 1163 672 1138 q 581 1189 621 1189 q 511 1163 538 1189 q 485 1096 485 1138 q 511 1031 485 1057 q 581 1006 538 1006 "},"Ẏ":{"ha":885,"x_min":21,"x_max":864,"o":"m 386 314 l 503 419 l 236 914 l 21 914 l 386 314 m 351 0 l 531 0 l 531 417 l 351 417 l 351 0 m 500 322 l 864 914 l 676 914 l 406 419 l 500 322 m 443 1015 q 515 1042 488 1015 q 543 1113 543 1068 q 515 1184 543 1157 q 443 1211 488 1211 q 369 1184 397 1211 q 342 1113 342 1157 q 369 1042 342 1068 q 443 1015 397 1015 "},"Ỵ":{"ha":885,"x_min":21,"x_max":864,"o":"m 386 314 l 503 419 l 236 914 l 21 914 l 386 314 m 351 0 l 531 0 l 531 417 l 351 417 l 351 0 m 500 322 l 864 914 l 676 914 l 406 419 l 500 322 m 443 -314 q 515 -287 488 -314 q 543 -217 543 -261 q 515 -145 543 -172 q 443 -118 488 -118 q 369 -145 397 -118 q 342 -217 342 -172 q 369 -287 342 -261 q 443 -314 397 -314 "},"Ỳ":{"ha":885,"x_min":21,"x_max":864,"o":"m 386 314 l 503 419 l 236 914 l 21 914 l 386 314 m 351 0 l 531 0 l 531 417 l 351 417 l 351 0 m 500 322 l 864 914 l 676 914 l 406 419 l 500 322 m 390 1015 l 518 1015 l 428 1260 l 235 1260 l 390 1015 "},"Ỷ":{"ha":885,"x_min":21,"x_max":864,"o":"m 386 314 l 503 419 l 236 914 l 21 914 l 386 314 m 351 0 l 531 0 l 531 417 l 351 417 l 351 0 m 500 322 l 864 914 l 676 914 l 406 419 l 500 322 m 379 971 l 513 971 l 513 1079 l 444 1028 q 577 1061 529 1028 q 625 1146 625 1094 q 579 1230 625 1194 q 457 1265 533 1265 q 381 1253 424 1265 q 299 1210 339 1242 l 349 1149 q 385 1167 364 1161 q 425 1172 407 1172 q 463 1161 450 1172 q 476 1128 476 1150 q 451 1094 476 1107 q 376 1082 425 1082 l 379 971 "},"Ȳ":{"ha":885,"x_min":21,"x_max":864,"o":"m 386 314 l 503 419 l 236 914 l 21 914 l 386 314 m 351 0 l 531 0 l 531 417 l 351 417 l 351 0 m 500 322 l 864 914 l 676 914 l 406 419 l 500 322 m 217 1036 l 668 1036 l 668 1150 l 217 1150 l 217 1036 "},"Ỹ":{"ha":885,"x_min":21,"x_max":864,"o":"m 386 314 l 503 419 l 236 914 l 21 914 l 386 314 m 351 0 l 531 0 l 531 417 l 351 417 l 351 0 m 500 322 l 864 914 l 676 914 l 406 419 l 500 322 m 279 976 q 312 1015 290 1001 q 360 1029 333 1029 q 412 1025 385 1029 q 468 1016 439 1021 q 526 1011 497 1011 q 626 1060 579 1011 q 693 1186 672 1108 l 606 1206 q 574 1156 596 1174 q 526 1139 553 1139 q 470 1144 500 1139 q 412 1153 440 1149 q 360 1157 383 1157 q 291 1136 324 1157 q 233 1079 258 1115 q 193 997 207 1043 l 279 976 "},"Z":{"ha":851,"x_min":71,"x_max":796,"o":"m 72 0 l 796 0 l 796 138 l 125 131 l 194 8 l 782 799 l 782 914 l 94 914 l 94 776 l 736 783 l 660 906 l 71 117 l 72 0 "},"Ź":{"ha":851,"x_min":71,"x_max":796,"o":"m 72 0 l 796 0 l 796 138 l 125 131 l 194 8 l 782 799 l 782 914 l 94 914 l 94 776 l 736 783 l 660 906 l 71 117 l 72 0 m 375 1015 l 503 1015 l 658 1260 l 465 1260 l 375 1015 "},"Ž":{"ha":851,"x_min":71,"x_max":796,"o":"m 72 0 l 796 0 l 796 138 l 125 131 l 194 8 l 782 799 l 782 914 l 94 914 l 94 776 l 736 783 l 660 906 l 71 117 l 72 0 m 394 1015 l 504 1015 l 688 1260 l 564 1260 l 424 1119 l 394 1015 m 394 1015 l 504 1015 l 476 1117 l 335 1260 l 211 1260 l 394 1015 "},"Ż":{"ha":851,"x_min":71,"x_max":796,"o":"m 72 0 l 796 0 l 796 138 l 125 131 l 194 8 l 782 799 l 782 914 l 94 914 l 94 776 l 736 783 l 660 906 l 71 117 l 72 0 m 450 1015 q 522 1042 494 1015 q 550 1113 550 1068 q 522 1184 550 1157 q 450 1211 494 1211 q 376 1184 404 1211 q 349 1113 349 1157 q 376 1042 349 1068 q 450 1015 404 1015 "},"Ẓ":{"ha":851,"x_min":71,"x_max":796,"o":"m 72 0 l 796 0 l 796 138 l 125 131 l 194 8 l 782 799 l 782 914 l 94 914 l 94 776 l 736 783 l 660 906 l 71 117 l 72 0 m 450 -314 q 522 -287 494 -314 q 550 -217 550 -261 q 522 -145 550 -172 q 450 -118 494 -118 q 376 -145 404 -118 q 349 -217 349 -172 q 376 -287 349 -261 q 450 -314 404 -314 "},"ꞌ":{"ha":365,"x_min":101,"x_max":265,"o":"m 136 382 l 229 382 l 265 914 l 101 914 l 136 382 "},"ụ":{"ha":738,"x_min":88,"x_max":650,"o":"m 297 -10 q 402 11 351 -10 q 499 72 453 32 q 582 168 544 111 l 531 203 q 486 151 514 172 q 426 119 458 131 q 365 108 394 108 q 278 149 308 108 q 249 261 249 190 l 249 600 l 88 571 l 88 203 q 147 47 88 104 q 297 -10 207 -10 m 518 -15 l 650 15 l 650 600 l 489 571 l 489 104 l 518 -15 m 351 -314 q 424 -287 396 -314 q 451 -217 451 -261 q 424 -145 451 -172 q 351 -118 396 -118 q 278 -145 306 -118 q 250 -217 250 -172 q 278 -287 250 -261 q 351 -314 306 -314 "},"ủ":{"ha":738,"x_min":88,"x_max":650,"o":"m 297 -10 q 402 11 351 -10 q 499 72 453 32 q 582 168 544 111 l 531 203 q 486 151 514 172 q 426 119 458 131 q 365 108 394 108 q 278 149 308 108 q 249 261 249 190 l 249 600 l 88 571 l 88 203 q 147 47 88 104 q 297 -10 207 -10 m 518 -15 l 650 15 l 650 600 l 489 571 l 489 104 l 518 -15 m 304 675 l 428 675 l 432 799 l 364 747 q 497 789 449 747 q 544 894 544 831 q 524 969 544 935 q 465 1023 503 1003 q 376 1043 428 1043 q 301 1031 343 1043 q 218 988 258 1019 l 268 919 q 305 938 283 932 q 344 943 326 943 q 394 926 376 943 q 411 876 411 908 q 382 822 411 842 q 296 801 353 801 l 304 675 "},"ư":{"ha":772,"x_min":88,"x_max":801,"o":"m 296 -10 q 405 10 353 -10 q 503 71 457 31 q 588 168 549 111 l 536 203 q 491 151 519 172 q 430 119 463 131 q 367 108 397 108 q 279 149 310 108 q 249 261 249 190 l 249 600 l 88 571 l 88 203 q 148 47 88 104 q 296 -10 208 -10 m 524 -15 l 656 15 l 656 556 l 494 526 l 494 104 l 524 -15 m 540 451 q 676 493 617 461 q 768 575 735 525 q 801 685 801 625 q 780 771 801 732 q 718 836 758 810 l 610 753 q 634 716 624 739 q 644 663 644 693 q 605 575 644 607 q 494 526 565 543 l 540 451 "},"ứ":{"ha":772,"x_min":88,"x_max":801,"o":"m 296 -10 q 405 10 353 -10 q 503 71 457 31 q 588 168 549 111 l 536 203 q 491 151 519 172 q 430 119 463 131 q 367 108 397 108 q 279 149 310 108 q 249 261 249 190 l 249 600 l 88 571 l 88 203 q 148 47 88 104 q 296 -10 208 -10 m 524 -15 l 656 15 l 656 556 l 494 526 l 494 104 l 524 -15 m 540 451 q 676 493 617 461 q 768 575 735 525 q 801 685 801 625 q 780 771 801 732 q 718 836 758 810 l 610 753 q 634 716 624 739 q 644 663 644 693 q 605 575 644 607 q 494 526 565 543 l 540 451 m 278 701 l 394 701 l 574 988 l 392 988 l 278 701 "},"ự":{"ha":772,"x_min":88,"x_max":801,"o":"m 296 -10 q 405 10 353 -10 q 503 71 457 31 q 588 168 549 111 l 536 203 q 491 151 519 172 q 430 119 463 131 q 367 108 397 108 q 279 149 310 108 q 249 261 249 190 l 249 600 l 88 571 l 88 203 q 148 47 88 104 q 296 -10 208 -10 m 524 -15 l 656 15 l 656 556 l 494 526 l 494 104 l 524 -15 m 540 451 q 676 493 617 461 q 768 575 735 525 q 801 685 801 625 q 780 771 801 732 q 718 836 758 810 l 610 753 q 634 716 624 739 q 644 663 644 693 q 605 575 644 607 q 494 526 565 543 l 540 451 m 371 -314 q 443 -287 415 -314 q 471 -217 471 -261 q 443 -145 471 -172 q 371 -118 415 -118 q 297 -145 325 -118 q 269 -217 269 -172 q 297 -287 269 -261 q 371 -314 325 -314 "},"ừ":{"ha":772,"x_min":88,"x_max":801,"o":"m 296 -10 q 405 10 353 -10 q 503 71 457 31 q 588 168 549 111 l 536 203 q 491 151 519 172 q 430 119 463 131 q 367 108 397 108 q 279 149 310 108 q 249 261 249 190 l 249 600 l 88 571 l 88 203 q 148 47 88 104 q 296 -10 208 -10 m 524 -15 l 656 15 l 656 556 l 494 526 l 494 104 l 524 -15 m 540 451 q 676 493 617 461 q 768 575 735 525 q 801 685 801 625 q 780 771 801 732 q 718 836 758 810 l 610 753 q 634 716 624 739 q 644 663 644 693 q 605 575 644 607 q 494 526 565 543 l 540 451 m 319 701 l 436 701 l 322 988 l 140 988 l 319 701 "},"ử":{"ha":772,"x_min":88,"x_max":801,"o":"m 296 -10 q 405 10 353 -10 q 503 71 457 31 q 588 168 549 111 l 536 203 q 491 151 519 172 q 430 119 463 131 q 367 108 397 108 q 279 149 310 108 q 249 261 249 190 l 249 600 l 88 571 l 88 203 q 148 47 88 104 q 296 -10 208 -10 m 524 -15 l 656 15 l 656 556 l 494 526 l 494 104 l 524 -15 m 540 451 q 676 493 617 461 q 768 575 735 525 q 801 685 801 625 q 780 771 801 732 q 718 836 758 810 l 610 753 q 634 716 624 739 q 644 663 644 693 q 605 575 644 607 q 494 526 565 543 l 540 451 m 279 675 l 403 675 l 407 799 l 339 747 q 472 789 424 747 q 519 894 519 831 q 499 969 519 935 q 440 1023 478 1003 q 351 1043 403 1043 q 276 1031 318 1043 q 193 988 233 1019 l 243 919 q 280 938 258 932 q 319 943 301 943 q 369 926 351 943 q 386 876 386 908 q 357 822 386 842 q 271 801 328 801 l 279 675 "},"ữ":{"ha":772,"x_min":88,"x_max":801,"o":"m 296 -10 q 405 10 353 -10 q 503 71 457 31 q 588 168 549 111 l 536 203 q 491 151 519 172 q 430 119 463 131 q 367 108 397 108 q 279 149 310 108 q 249 261 249 190 l 249 600 l 88 571 l 88 203 q 148 47 88 104 q 296 -10 208 -10 m 524 -15 l 656 15 l 656 556 l 494 526 l 494 104 l 524 -15 m 540 451 q 676 493 617 461 q 768 575 735 525 q 801 685 801 625 q 780 771 801 732 q 718 836 758 810 l 610 753 q 634 716 624 739 q 644 663 644 693 q 605 575 644 607 q 494 526 565 543 l 540 451 m 222 669 q 248 708 231 694 q 288 722 265 722 q 336 718 311 722 q 388 709 361 714 q 440 704 414 704 q 531 753 489 704 q 592 879 574 801 l 506 899 q 479 849 496 867 q 440 832 463 832 q 389 837 417 832 q 335 846 361 842 q 288 850 310 850 q 197 804 239 850 q 136 690 154 758 l 222 669 "},"ﬁ":{"ha":836,"x_min":28,"x_max":726,"o":"m 132 0 l 294 0 l 294 626 q 310 769 294 714 q 358 851 325 825 q 443 878 392 878 q 524 849 488 878 q 608 758 561 819 l 726 881 q 608 960 669 933 q 471 988 547 988 q 336 964 399 988 q 228 891 274 940 q 158 765 183 842 q 132 582 132 689 l 132 0 m 701 475 l 725 589 l 38 574 l 28 482 l 701 475 m 564 0 l 725 0 l 725 589 l 564 526 l 564 0 "},"ﬂ":{"ha":863,"x_min":28,"x_max":760,"o":"m 132 0 l 294 0 l 294 626 q 338 818 294 758 q 476 878 381 878 q 563 860 525 878 q 639 808 601 843 l 718 928 q 626 969 675 951 q 513 988 578 988 q 326 942 413 988 q 185 807 239 897 q 132 582 132 717 l 132 0 m 496 479 l 506 585 l 38 574 l 28 482 l 496 479 m 600 0 l 760 0 l 760 988 l 600 958 l 600 0 "},"a":{"ha":756,"x_min":28,"x_max":728,"o":"m 28 0 l 197 0 l 393 588 l 353 588 l 560 0 l 728 0 l 472 657 l 282 657 l 28 0 m 165 178 l 572 178 l 517 296 l 203 296 l 165 178 "},"á":{"ha":756,"x_min":28,"x_max":728,"o":"m 28 0 l 197 0 l 393 588 l 353 588 l 560 0 l 728 0 l 472 657 l 282 657 l 28 0 m 165 178 l 572 178 l 517 296 l 203 296 l 165 178 m 294 729 l 414 729 l 576 974 l 390 974 l 294 729 "},"ă":{"ha":756,"x_min":28,"x_max":728,"o":"m 28 0 l 197 0 l 393 588 l 353 588 l 560 0 l 728 0 l 472 657 l 282 657 l 28 0 m 165 178 l 572 178 l 517 296 l 203 296 l 165 178 m 378 722 q 522 779 465 722 q 597 939 579 836 l 510 953 q 463 878 500 906 q 378 851 426 851 q 293 878 329 851 q 246 953 257 906 l 158 939 q 233 779 176 836 q 378 722 290 722 "},"ắ":{"ha":756,"x_min":28,"x_max":728,"o":"m 28 0 l 197 0 l 393 588 l 353 588 l 560 0 l 728 0 l 472 657 l 282 657 l 28 0 m 165 178 l 572 178 l 517 296 l 203 296 l 165 178 m 378 722 q 522 779 465 722 q 597 939 579 836 l 510 953 q 463 878 500 906 q 378 851 426 851 q 293 878 329 851 q 246 953 257 906 l 158 939 q 233 779 176 836 q 378 722 290 722 m 315 956 l 426 956 l 574 1172 l 408 1172 l 315 956 "},"ặ":{"ha":756,"x_min":28,"x_max":728,"o":"m 28 0 l 197 0 l 393 588 l 353 588 l 560 0 l 728 0 l 472 657 l 282 657 l 28 0 m 165 178 l 572 178 l 517 296 l 203 296 l 165 178 m 378 -314 q 450 -287 422 -314 q 478 -217 478 -261 q 450 -145 478 -172 q 378 -118 422 -118 q 304 -145 332 -118 q 276 -217 276 -172 q 304 -287 276 -261 q 378 -314 332 -314 m 378 722 q 522 779 465 722 q 597 939 579 836 l 510 953 q 463 878 500 906 q 378 851 426 851 q 293 878 329 851 q 246 953 257 906 l 158 939 q 233 779 176 836 q 378 722 290 722 "},"ằ":{"ha":756,"x_min":28,"x_max":728,"o":"m 28 0 l 197 0 l 393 588 l 353 588 l 560 0 l 728 0 l 472 657 l 282 657 l 28 0 m 165 178 l 572 178 l 517 296 l 203 296 l 165 178 m 378 722 q 522 779 465 722 q 597 939 579 836 l 510 953 q 463 878 500 906 q 378 851 426 851 q 293 878 329 851 q 246 953 257 906 l 158 939 q 233 779 176 836 q 378 722 290 722 m 329 956 l 440 956 l 347 1172 l 182 1172 l 329 956 "},"ẳ":{"ha":756,"x_min":28,"x_max":728,"o":"m 28 0 l 197 0 l 393 588 l 353 588 l 560 0 l 728 0 l 472 657 l 282 657 l 28 0 m 165 178 l 572 178 l 517 296 l 203 296 l 165 178 m 378 722 q 522 779 465 722 q 597 939 579 836 l 510 953 q 463 878 500 906 q 378 851 426 851 q 293 878 329 851 q 246 953 257 906 l 158 939 q 233 779 176 836 q 378 722 290 722 m 318 931 l 407 931 l 407 1010 l 369 974 q 471 1003 435 974 q 507 1078 507 1032 q 474 1151 507 1121 q 389 1181 442 1181 q 328 1169 363 1181 q 263 1125 294 1158 l 288 1081 q 318 1098 300 1092 q 350 1104 336 1104 q 388 1092 375 1104 q 401 1065 401 1081 q 372 1027 401 1042 q 315 1013 343 1013 l 318 931 "},"ẵ":{"ha":756,"x_min":28,"x_max":728,"o":"m 28 0 l 197 0 l 393 588 l 353 588 l 560 0 l 728 0 l 472 657 l 282 657 l 28 0 m 165 178 l 572 178 l 517 296 l 203 296 l 165 178 m 378 722 q 522 779 465 722 q 597 939 579 836 l 510 953 q 463 878 500 906 q 378 851 426 851 q 293 878 329 851 q 246 953 257 906 l 158 939 q 233 779 176 836 q 378 722 290 722 m 243 1001 q 269 1041 251 1028 q 308 1054 286 1054 q 347 1043 331 1054 q 385 1020 363 1032 q 446 1008 407 1008 q 537 1050 494 1008 q 597 1158 579 1092 l 511 1179 q 485 1128 503 1146 q 446 1111 468 1111 q 405 1123 424 1111 q 364 1147 386 1135 q 308 1158 342 1158 q 217 1119 260 1158 q 157 1022 175 1081 l 243 1001 "},"ǎ":{"ha":756,"x_min":28,"x_max":728,"o":"m 28 0 l 197 0 l 393 588 l 353 588 l 560 0 l 728 0 l 472 657 l 282 657 l 28 0 m 165 178 l 572 178 l 517 296 l 203 296 l 165 178 m 322 729 l 432 729 l 588 974 l 471 974 l 351 826 l 322 729 m 322 729 l 432 729 l 404 824 l 283 974 l 167 974 l 322 729 "},"â":{"ha":756,"x_min":28,"x_max":728,"o":"m 28 0 l 197 0 l 393 588 l 353 588 l 560 0 l 728 0 l 472 657 l 282 657 l 28 0 m 165 178 l 572 178 l 517 296 l 203 296 l 165 178 m 471 729 l 588 729 l 432 974 l 322 974 l 351 876 l 471 729 m 167 729 l 283 729 l 404 879 l 432 974 l 322 974 l 167 729 "},"ấ":{"ha":756,"x_min":28,"x_max":783,"o":"m 28 0 l 197 0 l 393 588 l 353 588 l 560 0 l 728 0 l 472 657 l 282 657 l 28 0 m 165 178 l 572 178 l 517 296 l 203 296 l 165 178 m 475 729 l 599 729 l 415 974 l 306 974 l 335 869 l 475 729 m 122 729 l 246 729 l 388 872 l 415 974 l 306 974 l 122 729 m 525 863 l 636 863 l 783 1079 l 618 1079 l 525 863 "},"ậ":{"ha":756,"x_min":28,"x_max":728,"o":"m 28 0 l 197 0 l 393 588 l 353 588 l 560 0 l 728 0 l 472 657 l 282 657 l 28 0 m 165 178 l 572 178 l 517 296 l 203 296 l 165 178 m 378 -314 q 450 -287 422 -314 q 478 -217 478 -261 q 450 -145 478 -172 q 378 -118 422 -118 q 304 -145 332 -118 q 276 -217 276 -172 q 304 -287 276 -261 q 378 -314 332 -314 m 471 729 l 588 729 l 432 974 l 322 974 l 351 876 l 471 729 m 167 729 l 283 729 l 404 879 l 432 974 l 322 974 l 167 729 "},"ầ":{"ha":756,"x_min":28,"x_max":728,"o":"m 28 0 l 197 0 l 393 588 l 353 588 l 560 0 l 728 0 l 472 657 l 282 657 l 28 0 m 165 178 l 572 178 l 517 296 l 203 296 l 165 178 m 475 729 l 599 729 l 415 974 l 306 974 l 335 869 l 475 729 m 122 729 l 246 729 l 388 872 l 415 974 l 306 974 l 122 729 m 589 863 l 700 863 l 607 1079 l 442 1079 l 589 863 "},"ẩ":{"ha":756,"x_min":28,"x_max":742,"o":"m 28 0 l 197 0 l 393 588 l 353 588 l 560 0 l 728 0 l 472 657 l 282 657 l 28 0 m 165 178 l 572 178 l 517 296 l 203 296 l 165 178 m 493 729 l 617 729 l 433 974 l 324 974 l 353 869 l 493 729 m 140 729 l 264 729 l 406 872 l 433 974 l 324 974 l 140 729 m 553 863 l 642 863 l 642 942 l 604 906 q 706 935 669 906 q 742 1010 742 964 q 709 1083 742 1053 q 624 1113 676 1113 q 563 1101 597 1113 q 497 1057 529 1090 l 522 1013 q 553 1030 535 1024 q 585 1036 571 1036 q 623 1024 610 1036 q 636 997 636 1013 q 607 959 636 974 q 550 944 578 944 l 553 863 "},"ẫ":{"ha":756,"x_min":28,"x_max":728,"o":"m 28 0 l 197 0 l 393 588 l 353 588 l 560 0 l 728 0 l 472 657 l 282 657 l 28 0 m 165 178 l 572 178 l 517 296 l 203 296 l 165 178 m 492 715 l 615 715 l 432 960 l 322 960 l 351 856 l 492 715 m 139 715 l 263 715 l 404 858 l 432 960 l 322 960 l 139 715 m 247 996 q 273 1035 256 1022 q 313 1049 290 1049 q 351 1038 335 1049 q 389 1015 367 1026 q 450 1003 411 1003 q 541 1044 499 1003 q 601 1153 583 1086 l 515 1174 q 490 1123 507 1140 q 450 1106 472 1106 q 409 1117 428 1106 q 368 1141 390 1129 q 313 1153 346 1153 q 222 1114 264 1153 q 161 1017 179 1075 l 247 996 "},"ä":{"ha":756,"x_min":28,"x_max":728,"o":"m 28 0 l 197 0 l 393 588 l 353 588 l 560 0 l 728 0 l 472 657 l 282 657 l 28 0 m 165 178 l 572 178 l 517 296 l 203 296 l 165 178 m 240 749 q 308 774 282 749 q 333 839 333 800 q 308 906 333 881 q 240 932 282 932 q 173 906 199 932 q 147 839 147 881 q 173 774 147 800 q 240 749 199 749 m 515 749 q 581 774 556 749 q 607 839 607 800 q 581 906 607 881 q 515 932 556 932 q 446 906 472 932 q 419 839 419 881 q 446 774 419 800 q 515 749 472 749 "},"ạ":{"ha":756,"x_min":28,"x_max":728,"o":"m 28 0 l 197 0 l 393 588 l 353 588 l 560 0 l 728 0 l 472 657 l 282 657 l 28 0 m 165 178 l 572 178 l 517 296 l 203 296 l 165 178 m 378 -314 q 450 -287 422 -314 q 478 -217 478 -261 q 450 -145 478 -172 q 378 -118 422 -118 q 304 -145 332 -118 q 276 -217 276 -172 q 304 -287 276 -261 q 378 -314 332 -314 "},"à":{"ha":756,"x_min":28,"x_max":728,"o":"m 28 0 l 197 0 l 393 588 l 353 588 l 560 0 l 728 0 l 472 657 l 282 657 l 28 0 m 165 178 l 572 178 l 517 296 l 203 296 l 165 178 m 342 729 l 461 729 l 365 974 l 179 974 l 342 729 "},"ả":{"ha":756,"x_min":28,"x_max":728,"o":"m 28 0 l 197 0 l 393 588 l 353 588 l 560 0 l 728 0 l 472 657 l 282 657 l 28 0 m 165 178 l 572 178 l 517 296 l 203 296 l 165 178 m 314 714 l 447 714 l 447 822 l 379 771 q 512 804 464 771 q 560 889 560 838 q 514 973 560 938 q 392 1008 468 1008 q 316 997 358 1008 q 233 953 274 985 l 283 892 q 320 910 299 904 q 360 915 342 915 q 398 904 385 915 q 411 871 411 893 q 385 838 411 850 q 311 825 360 825 l 314 714 "},"ɑ":{"ha":756,"x_min":28,"x_max":728,"o":"m 28 0 l 197 0 l 393 588 l 353 588 l 560 0 l 728 0 l 472 657 l 282 657 l 28 0 m 165 178 l 572 178 l 517 296 l 203 296 l 165 178 "},"ā":{"ha":756,"x_min":28,"x_max":728,"o":"m 28 0 l 197 0 l 393 588 l 353 588 l 560 0 l 728 0 l 472 657 l 282 657 l 28 0 m 165 178 l 572 178 l 517 296 l 203 296 l 165 178 m 193 779 l 561 779 l 561 893 l 193 893 l 193 779 "},"ą":{"ha":756,"x_min":28,"x_max":772,"o":"m 28 0 l 197 0 l 393 588 l 353 588 l 560 0 l 728 0 l 472 657 l 282 657 l 28 0 m 165 178 l 572 178 l 517 296 l 203 296 l 165 178 m 615 50 q 474 -83 518 -10 q 429 -226 429 -156 q 480 -353 429 -306 q 625 -401 531 -401 q 703 -391 668 -401 q 772 -360 739 -381 l 735 -283 q 703 -292 719 -289 q 676 -294 688 -294 q 605 -260 625 -294 q 585 -187 585 -226 q 620 -84 585 -131 q 728 0 656 -37 l 615 50 "},"å":{"ha":756,"x_min":28,"x_max":728,"o":"m 28 0 l 197 0 l 393 588 l 353 588 l 560 0 l 728 0 l 472 657 l 282 657 l 28 0 m 165 178 l 572 178 l 517 296 l 203 296 l 165 178 m 376 697 q 465 715 426 697 q 527 765 504 733 q 550 835 550 796 q 528 906 550 875 q 469 956 507 938 q 381 975 431 975 q 290 957 329 975 q 228 908 251 939 q 206 838 206 878 q 228 765 206 797 q 289 715 250 733 q 376 697 328 697 m 379 757 q 342 779 357 757 q 326 838 326 801 q 341 893 326 872 q 378 914 356 914 q 415 892 401 914 q 429 835 429 871 q 415 778 429 800 q 379 757 401 757 "},"ǻ":{"ha":756,"x_min":28,"x_max":728,"o":"m 28 0 l 197 0 l 393 588 l 353 588 l 560 0 l 728 0 l 472 657 l 282 657 l 28 0 m 165 178 l 572 178 l 517 296 l 203 296 l 165 178 m 215 954 l 567 1082 l 511 1210 l 181 1032 l 215 954 m 369 690 q 497 726 447 690 q 547 818 547 763 q 499 910 547 874 q 374 947 450 947 q 245 911 296 947 q 194 821 194 875 q 244 728 194 765 q 369 690 293 690 m 372 753 q 333 772 349 753 q 318 821 318 790 q 333 867 318 850 q 371 885 347 885 q 409 867 394 885 q 424 818 424 849 q 410 770 424 788 q 372 753 396 753 "},"ã":{"ha":756,"x_min":28,"x_max":728,"o":"m 28 0 l 197 0 l 393 588 l 353 588 l 560 0 l 728 0 l 472 657 l 282 657 l 28 0 m 165 178 l 572 178 l 517 296 l 203 296 l 165 178 m 214 719 q 247 758 225 744 q 294 772 268 772 q 347 768 319 772 q 403 759 374 764 q 461 754 432 754 q 560 803 514 754 q 628 929 607 851 l 540 949 q 509 899 531 917 q 461 882 488 882 q 405 887 435 882 q 347 896 375 892 q 294 900 318 900 q 194 854 240 900 q 128 740 149 808 l 214 719 "},"æ":{"ha":1000,"x_min":0,"x_max":947,"o":"m 0 0 l 183 0 l 543 654 l 413 654 l 0 0 m 221 183 l 560 183 l 560 301 l 288 301 l 221 183 m 492 0 l 947 0 l 947 126 l 636 126 l 636 529 l 914 529 l 914 654 l 492 654 l 492 0 m 560 267 l 874 267 l 874 385 l 560 385 l 560 267 "},"ǽ":{"ha":1000,"x_min":0,"x_max":947,"o":"m 0 0 l 183 0 l 543 654 l 413 654 l 0 0 m 221 183 l 560 183 l 560 301 l 288 301 l 221 183 m 492 0 l 947 0 l 947 126 l 636 126 l 636 529 l 914 529 l 914 654 l 492 654 l 492 0 m 560 267 l 874 267 l 874 385 l 560 385 l 560 267 m 514 729 l 633 729 l 796 974 l 610 974 l 514 729 "},"ǣ":{"ha":1000,"x_min":0,"x_max":947,"o":"m 0 0 l 183 0 l 543 654 l 413 654 l 0 0 m 221 183 l 560 183 l 560 301 l 288 301 l 221 183 m 492 0 l 947 0 l 947 126 l 636 126 l 636 529 l 914 529 l 914 654 l 492 654 l 492 0 m 560 267 l 874 267 l 874 385 l 560 385 l 560 267 m 413 779 l 781 779 l 781 893 l 413 893 l 413 779 "},"b":{"ha":717,"x_min":111,"x_max":669,"o":"m 111 0 l 410 0 q 548 26 490 0 q 638 99 606 53 q 669 203 669 146 q 637 300 669 258 q 547 365 604 342 q 414 389 489 389 l 385 293 q 501 323 449 293 q 586 399 554 353 q 618 494 618 444 q 559 611 618 565 q 410 657 500 657 l 111 657 l 111 0 m 260 122 l 260 535 l 389 535 q 455 511 438 535 q 472 467 472 488 q 453 419 472 438 q 404 400 433 400 l 222 400 l 222 281 l 375 281 q 483 259 451 281 q 514 203 514 238 q 489 145 514 168 q 415 122 464 122 l 260 122 "},"c":{"ha":703,"x_min":64,"x_max":672,"o":"m 425 -10 q 558 10 496 -10 q 667 64 619 29 l 588 169 q 528 129 565 143 q 446 115 492 115 q 333 143 379 115 q 263 220 286 171 q 239 336 239 269 q 260 449 239 403 q 321 521 282 496 q 410 546 360 546 q 497 526 454 546 q 567 469 539 506 l 672 582 q 559 644 622 622 q 425 667 496 667 q 238 620 319 667 q 110 495 157 574 q 64 321 64 417 q 108 155 64 231 q 234 35 153 79 q 425 -10 315 -10 "},"ć":{"ha":703,"x_min":64,"x_max":672,"o":"m 425 -10 q 558 10 496 -10 q 667 64 619 29 l 588 169 q 528 129 565 143 q 446 115 492 115 q 333 143 379 115 q 263 220 286 171 q 239 336 239 269 q 260 449 239 403 q 321 521 282 496 q 410 546 360 546 q 497 526 454 546 q 567 469 539 506 l 672 582 q 559 644 622 622 q 425 667 496 667 q 238 620 319 667 q 110 495 157 574 q 64 321 64 417 q 108 155 64 231 q 234 35 153 79 q 425 -10 315 -10 m 322 729 l 442 729 l 604 974 l 418 974 l 322 729 "},"č":{"ha":703,"x_min":64,"x_max":672,"o":"m 425 -10 q 558 10 496 -10 q 667 64 619 29 l 588 169 q 528 129 565 143 q 446 115 492 115 q 333 143 379 115 q 263 220 286 171 q 239 336 239 269 q 260 449 239 403 q 321 521 282 496 q 410 546 360 546 q 497 526 454 546 q 567 469 539 506 l 672 582 q 559 644 622 622 q 425 667 496 667 q 238 620 319 667 q 110 495 157 574 q 64 321 64 417 q 108 155 64 231 q 234 35 153 79 q 425 -10 315 -10 m 350 729 l 460 729 l 615 974 l 499 974 l 379 826 l 350 729 m 350 729 l 460 729 l 432 824 l 311 974 l 194 974 l 350 729 "},"ç":{"ha":703,"x_min":64,"x_max":672,"o":"m 425 -10 q 558 10 496 -10 q 667 64 619 29 l 588 169 q 528 129 565 143 q 446 115 492 115 q 333 143 379 115 q 263 220 286 171 q 239 336 239 269 q 260 449 239 403 q 321 521 282 496 q 410 546 360 546 q 497 526 454 546 q 567 469 539 506 l 672 582 q 559 644 622 622 q 425 667 496 667 q 238 620 319 667 q 110 495 157 574 q 64 321 64 417 q 108 155 64 231 q 234 35 153 79 q 425 -10 315 -10 m 354 0 l 301 -167 q 331 -160 317 -162 q 358 -158 344 -158 q 424 -176 397 -158 q 451 -222 451 -193 q 435 -262 451 -243 q 379 -281 418 -281 q 324 -272 353 -281 q 276 -250 296 -264 l 247 -328 q 315 -361 278 -350 q 396 -372 353 -372 q 533 -332 482 -372 q 585 -225 585 -292 q 541 -123 585 -161 q 428 -85 497 -85 q 381 -90 401 -85 q 347 -107 361 -96 l 413 -128 l 447 0 l 354 0 "},"ĉ":{"ha":703,"x_min":64,"x_max":672,"o":"m 425 -10 q 558 10 496 -10 q 667 64 619 29 l 588 169 q 528 129 565 143 q 446 115 492 115 q 333 143 379 115 q 263 220 286 171 q 239 336 239 269 q 260 449 239 403 q 321 521 282 496 q 410 546 360 546 q 497 526 454 546 q 567 469 539 506 l 672 582 q 559 644 622 622 q 425 667 496 667 q 238 620 319 667 q 110 495 157 574 q 64 321 64 417 q 108 155 64 231 q 234 35 153 79 q 425 -10 315 -10 m 499 729 l 615 729 l 460 974 l 350 974 l 379 876 l 499 729 m 194 729 l 311 729 l 432 879 l 460 974 l 350 974 l 194 729 "},"ċ":{"ha":703,"x_min":64,"x_max":672,"o":"m 425 -10 q 558 10 496 -10 q 667 64 619 29 l 588 169 q 528 129 565 143 q 446 115 492 115 q 333 143 379 115 q 263 220 286 171 q 239 336 239 269 q 260 449 239 403 q 321 521 282 496 q 410 546 360 546 q 497 526 454 546 q 567 469 539 506 l 672 582 q 559 644 622 622 q 425 667 496 667 q 238 620 319 667 q 110 495 157 574 q 64 321 64 417 q 108 155 64 231 q 234 35 153 79 q 425 -10 315 -10 m 406 758 q 478 785 450 758 q 506 856 506 811 q 478 927 506 900 q 406 954 450 954 q 332 927 360 954 q 304 856 304 900 q 332 785 304 811 q 406 758 360 758 "},"d":{"ha":797,"x_min":111,"x_max":732,"o":"m 325 0 q 535 44 443 0 q 679 165 626 89 q 732 338 732 242 q 681 505 732 433 q 542 617 631 576 q 342 657 454 657 l 111 657 l 111 0 l 325 0 m 563 315 q 537 210 563 251 q 462 149 511 168 q 340 129 413 129 l 274 129 l 274 528 l 318 528 q 452 503 397 528 q 535 432 507 479 q 563 315 563 385 "},"ð":{"ha":797,"x_min":13,"x_max":732,"o":"m 111 0 l 325 0 q 535 44 443 0 q 679 165 626 89 q 732 338 732 242 q 681 505 732 433 q 542 617 631 576 q 342 657 454 657 l 111 657 l 111 0 m 13 272 l 408 272 l 408 386 l 13 386 l 13 272 m 274 129 l 274 528 l 318 528 q 452 503 397 528 q 535 432 507 479 q 563 315 563 385 q 537 210 563 251 q 462 149 511 168 q 340 129 413 129 l 274 129 "},"ď":{"ha":797,"x_min":111,"x_max":732,"o":"m 325 0 q 535 44 443 0 q 679 165 626 89 q 732 338 732 242 q 681 505 732 433 q 542 617 631 576 q 342 657 454 657 l 111 657 l 111 0 l 325 0 m 563 315 q 537 210 563 251 q 462 149 511 168 q 340 129 413 129 l 274 129 l 274 528 l 318 528 q 452 503 397 528 q 535 432 507 479 q 563 315 563 385 m 315 729 l 425 729 l 581 974 l 464 974 l 344 826 l 315 729 m 315 729 l 425 729 l 397 824 l 276 974 l 160 974 l 315 729 "},"đ":{"ha":797,"x_min":13,"x_max":732,"o":"m 111 0 l 325 0 q 535 44 443 0 q 679 165 626 89 q 732 338 732 242 q 681 505 732 433 q 542 617 631 576 q 342 657 454 657 l 111 657 l 111 0 m 13 272 l 408 272 l 408 386 l 13 386 l 13 272 m 274 129 l 274 528 l 318 528 q 452 503 397 528 q 535 432 507 479 q 563 315 563 385 q 537 210 563 251 q 462 149 511 168 q 340 129 413 129 l 274 129 "},"ḍ":{"ha":797,"x_min":111,"x_max":732,"o":"m 325 0 q 535 44 443 0 q 679 165 626 89 q 732 338 732 242 q 681 505 732 433 q 542 617 631 576 q 342 657 454 657 l 111 657 l 111 0 l 325 0 m 563 315 q 537 210 563 251 q 462 149 511 168 q 340 129 413 129 l 274 129 l 274 528 l 318 528 q 452 503 397 528 q 535 432 507 479 q 563 315 563 385 m 399 -314 q 471 -287 443 -314 q 499 -217 499 -261 q 471 -145 499 -172 q 399 -118 443 -118 q 325 -145 353 -118 q 297 -217 297 -172 q 325 -287 297 -261 q 399 -314 353 -314 "},"ḏ":{"ha":797,"x_min":111,"x_max":732,"o":"m 325 0 q 535 44 443 0 q 679 165 626 89 q 732 338 732 242 q 681 505 732 433 q 542 617 631 576 q 342 657 454 657 l 111 657 l 111 0 l 325 0 m 563 315 q 537 210 563 251 q 462 149 511 168 q 340 129 413 129 l 274 129 l 274 528 l 318 528 q 452 503 397 528 q 535 432 507 479 q 563 315 563 385 m 214 -237 l 582 -237 l 582 -124 l 214 -124 l 214 -237 "},"e":{"ha":682,"x_min":111,"x_max":629,"o":"m 111 0 l 269 0 l 269 657 l 111 657 l 111 0 m 164 0 l 629 0 l 629 125 l 164 125 l 164 0 m 164 268 l 546 268 l 546 392 l 164 392 l 164 268 m 164 532 l 601 532 l 601 657 l 164 657 l 164 532 "},"é":{"ha":682,"x_min":111,"x_max":629,"o":"m 111 0 l 269 0 l 269 657 l 111 657 l 111 0 m 164 0 l 629 0 l 629 125 l 164 125 l 164 0 m 164 268 l 546 268 l 546 392 l 164 392 l 164 268 m 164 532 l 601 532 l 601 657 l 164 657 l 164 532 m 279 729 l 399 729 l 561 974 l 375 974 l 279 729 "},"ĕ":{"ha":682,"x_min":111,"x_max":629,"o":"m 111 0 l 269 0 l 269 657 l 111 657 l 111 0 m 164 0 l 629 0 l 629 125 l 164 125 l 164 0 m 164 268 l 546 268 l 546 392 l 164 392 l 164 268 m 164 532 l 601 532 l 601 657 l 164 657 l 164 532 m 363 722 q 507 779 450 722 q 582 939 564 836 l 494 953 q 448 878 485 906 q 363 851 411 851 q 278 878 314 851 q 231 953 242 906 l 143 939 q 218 779 161 836 q 363 722 275 722 "},"ě":{"ha":682,"x_min":111,"x_max":629,"o":"m 111 0 l 269 0 l 269 657 l 111 657 l 111 0 m 164 0 l 629 0 l 629 125 l 164 125 l 164 0 m 164 268 l 546 268 l 546 392 l 164 392 l 164 268 m 164 532 l 601 532 l 601 657 l 164 657 l 164 532 m 307 729 l 417 729 l 572 974 l 456 974 l 336 826 l 307 729 m 307 729 l 417 729 l 389 824 l 268 974 l 151 974 l 307 729 "},"ê":{"ha":682,"x_min":111,"x_max":629,"o":"m 111 0 l 269 0 l 269 657 l 111 657 l 111 0 m 164 0 l 629 0 l 629 125 l 164 125 l 164 0 m 164 268 l 546 268 l 546 392 l 164 392 l 164 268 m 164 532 l 601 532 l 601 657 l 164 657 l 164 532 m 456 729 l 572 729 l 417 974 l 307 974 l 336 876 l 456 729 m 151 729 l 268 729 l 389 879 l 417 974 l 307 974 l 151 729 "},"ế":{"ha":682,"x_min":107,"x_max":768,"o":"m 111 0 l 269 0 l 269 657 l 111 657 l 111 0 m 164 0 l 629 0 l 629 125 l 164 125 l 164 0 m 164 268 l 546 268 l 546 392 l 164 392 l 164 268 m 164 532 l 601 532 l 601 657 l 164 657 l 164 532 m 460 729 l 583 729 l 400 974 l 290 974 l 319 869 l 460 729 m 107 729 l 231 729 l 372 872 l 400 974 l 290 974 l 107 729 m 510 863 l 621 863 l 768 1079 l 603 1079 l 510 863 "},"ệ":{"ha":682,"x_min":111,"x_max":629,"o":"m 111 0 l 269 0 l 269 657 l 111 657 l 111 0 m 164 0 l 629 0 l 629 125 l 164 125 l 164 0 m 164 268 l 546 268 l 546 392 l 164 392 l 164 268 m 164 532 l 601 532 l 601 657 l 164 657 l 164 532 m 342 -314 q 414 -287 386 -314 q 442 -217 442 -261 q 414 -145 442 -172 q 342 -118 386 -118 q 268 -145 296 -118 q 240 -217 240 -172 q 268 -287 240 -261 q 342 -314 296 -314 m 456 729 l 572 729 l 417 974 l 307 974 l 336 876 l 456 729 m 151 729 l 268 729 l 389 879 l 417 974 l 307 974 l 151 729 "},"ề":{"ha":682,"x_min":107,"x_max":685,"o":"m 111 0 l 269 0 l 269 657 l 111 657 l 111 0 m 164 0 l 629 0 l 629 125 l 164 125 l 164 0 m 164 268 l 546 268 l 546 392 l 164 392 l 164 268 m 164 532 l 601 532 l 601 657 l 164 657 l 164 532 m 460 729 l 583 729 l 400 974 l 290 974 l 319 869 l 460 729 m 107 729 l 231 729 l 372 872 l 400 974 l 290 974 l 107 729 m 574 863 l 685 863 l 592 1079 l 426 1079 l 574 863 "},"ể":{"ha":682,"x_min":111,"x_max":726,"o":"m 111 0 l 269 0 l 269 657 l 111 657 l 111 0 m 164 0 l 629 0 l 629 125 l 164 125 l 164 0 m 164 268 l 546 268 l 546 392 l 164 392 l 164 268 m 164 532 l 601 532 l 601 657 l 164 657 l 164 532 m 478 729 l 601 729 l 418 974 l 308 974 l 338 869 l 478 729 m 125 729 l 249 729 l 390 872 l 418 974 l 308 974 l 125 729 m 538 863 l 626 863 l 626 942 l 589 906 q 690 935 654 906 q 726 1010 726 964 q 694 1083 726 1053 q 608 1113 661 1113 q 548 1101 582 1113 q 482 1057 514 1090 l 507 1013 q 538 1030 519 1024 q 569 1036 556 1036 q 608 1024 594 1036 q 621 997 621 1013 q 592 959 621 974 q 535 944 563 944 l 538 863 "},"ễ":{"ha":682,"x_min":111,"x_max":629,"o":"m 111 0 l 269 0 l 269 657 l 111 657 l 111 0 m 164 0 l 629 0 l 629 125 l 164 125 l 164 0 m 164 268 l 546 268 l 546 392 l 164 392 l 164 268 m 164 532 l 601 532 l 601 657 l 164 657 l 164 532 m 476 715 l 600 715 l 417 960 l 307 960 l 336 856 l 476 715 m 124 715 l 247 715 l 389 858 l 417 960 l 307 960 l 124 715 m 232 996 q 258 1035 240 1022 q 297 1049 275 1049 q 335 1038 319 1049 q 374 1015 351 1026 q 435 1003 396 1003 q 526 1044 483 1003 q 586 1153 568 1086 l 500 1174 q 474 1123 492 1140 q 435 1106 457 1106 q 394 1117 413 1106 q 353 1141 375 1129 q 297 1153 331 1153 q 206 1114 249 1153 q 146 1017 164 1075 l 232 996 "},"ë":{"ha":682,"x_min":111,"x_max":629,"o":"m 111 0 l 269 0 l 269 657 l 111 657 l 111 0 m 164 0 l 629 0 l 629 125 l 164 125 l 164 0 m 164 268 l 546 268 l 546 392 l 164 392 l 164 268 m 164 532 l 601 532 l 601 657 l 164 657 l 164 532 m 225 749 q 292 774 267 749 q 318 839 318 800 q 292 906 318 881 q 225 932 267 932 q 158 906 183 932 q 132 839 132 881 q 158 774 132 800 q 225 749 183 749 m 500 749 q 566 774 540 749 q 592 839 592 800 q 566 906 592 881 q 500 932 540 932 q 431 906 457 932 q 404 839 404 881 q 431 774 404 800 q 500 749 457 749 "},"ė":{"ha":682,"x_min":111,"x_max":629,"o":"m 111 0 l 269 0 l 269 657 l 111 657 l 111 0 m 164 0 l 629 0 l 629 125 l 164 125 l 164 0 m 164 268 l 546 268 l 546 392 l 164 392 l 164 268 m 164 532 l 601 532 l 601 657 l 164 657 l 164 532 m 363 758 q 435 785 407 758 q 463 856 463 811 q 435 927 463 900 q 363 954 407 954 q 289 927 317 954 q 261 856 261 900 q 289 785 261 811 q 363 758 317 758 "},"ẹ":{"ha":682,"x_min":111,"x_max":629,"o":"m 111 0 l 269 0 l 269 657 l 111 657 l 111 0 m 164 0 l 629 0 l 629 125 l 164 125 l 164 0 m 164 268 l 546 268 l 546 392 l 164 392 l 164 268 m 164 532 l 601 532 l 601 657 l 164 657 l 164 532 m 342 -314 q 414 -287 386 -314 q 442 -217 442 -261 q 414 -145 442 -172 q 342 -118 386 -118 q 268 -145 296 -118 q 240 -217 240 -172 q 268 -287 240 -261 q 342 -314 296 -314 "},"è":{"ha":682,"x_min":111,"x_max":629,"o":"m 111 0 l 269 0 l 269 657 l 111 657 l 111 0 m 164 0 l 629 0 l 629 125 l 164 125 l 164 0 m 164 268 l 546 268 l 546 392 l 164 392 l 164 268 m 164 532 l 601 532 l 601 657 l 164 657 l 164 532 m 326 729 l 446 729 l 350 974 l 164 974 l 326 729 "},"ẻ":{"ha":682,"x_min":111,"x_max":629,"o":"m 111 0 l 269 0 l 269 657 l 111 657 l 111 0 m 164 0 l 629 0 l 629 125 l 164 125 l 164 0 m 164 268 l 546 268 l 546 392 l 164 392 l 164 268 m 164 532 l 601 532 l 601 657 l 164 657 l 164 532 m 299 714 l 432 714 l 432 822 l 364 771 q 497 804 449 771 q 544 889 544 838 q 499 973 544 938 q 376 1008 453 1008 q 301 997 343 1008 q 218 953 258 985 l 268 892 q 305 910 283 904 q 344 915 326 915 q 383 904 369 915 q 396 871 396 893 q 370 838 396 850 q 296 825 344 825 l 299 714 "},"ē":{"ha":682,"x_min":111,"x_max":629,"o":"m 111 0 l 269 0 l 269 657 l 111 657 l 111 0 m 164 0 l 629 0 l 629 125 l 164 125 l 164 0 m 164 268 l 546 268 l 546 392 l 164 392 l 164 268 m 164 532 l 601 532 l 601 657 l 164 657 l 164 532 m 178 779 l 546 779 l 546 893 l 178 893 l 178 779 "},"ę":{"ha":682,"x_min":111,"x_max":674,"o":"m 111 0 l 269 0 l 269 657 l 111 657 l 111 0 m 164 0 l 629 0 l 629 125 l 164 125 l 164 0 m 164 268 l 546 268 l 546 392 l 164 392 l 164 268 m 164 532 l 601 532 l 601 657 l 164 657 l 164 532 m 517 50 q 375 -83 419 -10 q 331 -226 331 -156 q 381 -353 331 -306 q 526 -401 432 -401 q 605 -391 569 -401 q 674 -360 640 -381 l 636 -283 q 605 -292 621 -289 q 578 -294 589 -294 q 506 -260 526 -294 q 486 -187 486 -226 q 522 -84 486 -131 q 629 0 557 -37 l 517 50 "},"ẽ":{"ha":682,"x_min":111,"x_max":629,"o":"m 111 0 l 269 0 l 269 657 l 111 657 l 111 0 m 164 0 l 629 0 l 629 125 l 164 125 l 164 0 m 164 268 l 546 268 l 546 392 l 164 392 l 164 268 m 164 532 l 601 532 l 601 657 l 164 657 l 164 532 m 199 719 q 231 758 210 744 q 279 772 253 772 q 331 768 304 772 q 388 759 358 764 q 446 754 417 754 q 545 803 499 754 q 613 929 592 851 l 525 949 q 494 899 515 917 q 446 882 472 882 q 390 887 419 882 q 331 896 360 892 q 279 900 303 900 q 179 854 225 900 q 113 740 133 808 l 199 719 "},"ə":{"ha":775,"x_min":64,"x_max":710,"o":"m 363 -10 q 541 33 463 -10 q 665 151 619 75 q 710 325 710 226 q 665 508 710 432 q 542 626 621 585 q 360 667 464 667 q 222 645 294 667 q 79 560 149 624 l 156 483 q 242 530 197 515 q 332 544 288 544 q 451 515 401 544 q 528 432 501 486 q 556 304 556 378 q 533 202 556 247 q 469 131 510 157 q 372 106 428 106 q 251 150 290 106 q 211 296 211 194 l 211 338 l 64 338 q 64 308 64 322 q 64 278 64 293 q 101 126 64 192 q 205 26 138 61 q 363 -10 272 -10 m 88 228 l 608 228 l 626 338 l 88 338 l 88 228 "},"ʒ":{"ha":643,"x_min":44,"x_max":586,"o":"m 303 -8 q 445 20 381 -8 q 548 100 510 49 q 586 221 586 151 q 549 322 586 279 q 438 384 513 364 q 253 396 364 404 l 281 329 l 572 553 l 574 657 l 75 657 l 75 532 l 529 539 l 481 608 l 160 369 l 178 296 q 319 293 267 303 q 398 265 372 283 q 432 227 424 247 q 440 192 440 207 q 430 149 440 169 q 392 117 419 129 q 314 104 365 104 q 236 126 269 104 q 182 192 203 149 l 44 133 q 99 58 63 90 q 188 9 136 26 q 303 -8 240 -8 "},"ǯ":{"ha":643,"x_min":44,"x_max":586,"o":"m 303 -8 q 445 20 381 -8 q 548 100 510 49 q 586 221 586 151 q 549 322 586 279 q 438 384 513 364 q 253 396 364 404 l 281 329 l 572 553 l 574 657 l 75 657 l 75 532 l 529 539 l 481 608 l 160 369 l 178 296 q 319 293 267 303 q 398 265 372 283 q 432 227 424 247 q 440 192 440 207 q 430 149 440 169 q 392 117 419 129 q 314 104 365 104 q 236 126 269 104 q 182 192 203 149 l 44 133 q 99 58 63 90 q 188 9 136 26 q 303 -8 240 -8 m 267 729 l 376 729 l 532 974 l 415 974 l 296 826 l 267 729 m 267 729 l 376 729 l 349 824 l 228 974 l 111 974 l 267 729 "},"f":{"ha":657,"x_min":111,"x_max":603,"o":"m 111 0 l 269 0 l 269 657 l 111 657 l 111 0 m 164 253 l 547 253 l 547 379 l 164 379 l 164 253 m 164 531 l 603 531 l 603 657 l 164 657 l 164 531 "},"g":{"ha":767,"x_min":64,"x_max":690,"o":"m 429 -10 q 515 -5 469 -10 q 606 12 560 0 q 690 42 651 24 l 690 361 l 426 361 l 426 251 l 554 251 l 554 43 l 618 135 q 539 109 582 118 q 456 100 496 100 q 334 129 383 100 q 260 212 285 158 q 235 338 235 265 q 260 460 235 414 q 327 527 286 506 q 411 549 368 549 q 503 531 453 549 q 597 478 553 514 l 686 585 q 565 647 631 628 q 438 667 499 667 q 304 644 371 667 q 183 578 238 622 q 97 469 129 535 q 64 317 64 404 q 107 147 64 221 q 231 32 150 74 q 429 -10 313 -10 "},"ğ":{"ha":767,"x_min":64,"x_max":690,"o":"m 429 -10 q 515 -5 469 -10 q 606 12 560 0 q 690 42 651 24 l 690 361 l 426 361 l 426 251 l 554 251 l 554 43 l 618 135 q 539 109 582 118 q 456 100 496 100 q 334 129 383 100 q 260 212 285 158 q 235 338 235 265 q 260 460 235 414 q 327 527 286 506 q 411 549 368 549 q 503 531 453 549 q 597 478 553 514 l 686 585 q 565 647 631 628 q 438 667 499 667 q 304 644 371 667 q 183 578 238 622 q 97 469 129 535 q 64 317 64 404 q 107 147 64 221 q 231 32 150 74 q 429 -10 313 -10 m 418 722 q 563 779 506 722 q 638 939 619 836 l 550 953 q 503 878 540 906 q 418 851 467 851 q 333 878 369 851 q 286 953 297 906 l 199 939 q 274 779 217 836 q 418 722 331 722 "},"ǧ":{"ha":767,"x_min":64,"x_max":690,"o":"m 429 -10 q 515 -5 469 -10 q 606 12 560 0 q 690 42 651 24 l 690 361 l 426 361 l 426 251 l 554 251 l 554 43 l 618 135 q 539 109 582 118 q 456 100 496 100 q 334 129 383 100 q 260 212 285 158 q 235 338 235 265 q 260 460 235 414 q 327 527 286 506 q 411 549 368 549 q 503 531 453 549 q 597 478 553 514 l 686 585 q 565 647 631 628 q 438 667 499 667 q 304 644 371 667 q 183 578 238 622 q 97 469 129 535 q 64 317 64 404 q 107 147 64 221 q 231 32 150 74 q 429 -10 313 -10 m 363 729 l 472 729 l 628 974 l 511 974 l 392 826 l 363 729 m 363 729 l 472 729 l 444 824 l 324 974 l 207 974 l 363 729 "},"ĝ":{"ha":767,"x_min":64,"x_max":690,"o":"m 429 -10 q 515 -5 469 -10 q 606 12 560 0 q 690 42 651 24 l 690 361 l 426 361 l 426 251 l 554 251 l 554 43 l 618 135 q 539 109 582 118 q 456 100 496 100 q 334 129 383 100 q 260 212 285 158 q 235 338 235 265 q 260 460 235 414 q 327 527 286 506 q 411 549 368 549 q 503 531 453 549 q 597 478 553 514 l 686 585 q 565 647 631 628 q 438 667 499 667 q 304 644 371 667 q 183 578 238 622 q 97 469 129 535 q 64 317 64 404 q 107 147 64 221 q 231 32 150 74 q 429 -10 313 -10 m 511 729 l 628 729 l 472 974 l 363 974 l 392 876 l 511 729 m 207 729 l 324 729 l 444 879 l 472 974 l 363 974 l 207 729 "},"ģ":{"ha":767,"x_min":64,"x_max":690,"o":"m 429 -10 q 515 -5 469 -10 q 606 12 560 0 q 690 42 651 24 l 690 361 l 426 361 l 426 251 l 554 251 l 554 43 l 618 135 q 539 109 582 118 q 456 100 496 100 q 334 129 383 100 q 260 212 285 158 q 235 338 235 265 q 260 460 235 414 q 327 527 286 506 q 411 549 368 549 q 503 531 453 549 q 597 478 553 514 l 686 585 q 565 647 631 628 q 438 667 499 667 q 304 644 371 667 q 183 578 238 622 q 97 469 129 535 q 64 317 64 404 q 107 147 64 221 q 231 32 150 74 q 429 -10 313 -10 m 376 -429 q 474 -333 438 -397 q 510 -206 510 -269 q 494 -129 510 -165 q 443 -68 478 -93 l 328 -153 q 351 -192 343 -167 q 360 -250 360 -218 q 349 -317 360 -283 q 315 -379 338 -351 l 376 -429 "},"ġ":{"ha":767,"x_min":64,"x_max":690,"o":"m 429 -10 q 515 -5 469 -10 q 606 12 560 0 q 690 42 651 24 l 690 361 l 426 361 l 426 251 l 554 251 l 554 43 l 618 135 q 539 109 582 118 q 456 100 496 100 q 334 129 383 100 q 260 212 285 158 q 235 338 235 265 q 260 460 235 414 q 327 527 286 506 q 411 549 368 549 q 503 531 453 549 q 597 478 553 514 l 686 585 q 565 647 631 628 q 438 667 499 667 q 304 644 371 667 q 183 578 238 622 q 97 469 129 535 q 64 317 64 404 q 107 147 64 221 q 231 32 150 74 q 429 -10 313 -10 m 418 758 q 490 785 463 758 q 518 856 518 811 q 490 927 518 900 q 418 954 463 954 q 344 927 372 954 q 317 856 317 900 q 344 785 317 811 q 418 758 372 758 "},"ḡ":{"ha":767,"x_min":64,"x_max":690,"o":"m 429 -10 q 515 -5 469 -10 q 606 12 560 0 q 690 42 651 24 l 690 361 l 426 361 l 426 251 l 554 251 l 554 43 l 618 135 q 539 109 582 118 q 456 100 496 100 q 334 129 383 100 q 260 212 285 158 q 235 338 235 265 q 260 460 235 414 q 327 527 286 506 q 411 549 368 549 q 503 531 453 549 q 597 478 553 514 l 686 585 q 565 647 631 628 q 438 667 499 667 q 304 644 371 667 q 183 578 238 622 q 97 469 129 535 q 64 317 64 404 q 107 147 64 221 q 231 32 150 74 q 429 -10 313 -10 m 233 779 l 601 779 l 601 893 l 233 893 l 233 779 "},"ɡ":{"ha":767,"x_min":64,"x_max":690,"o":"m 429 -10 q 515 -5 469 -10 q 606 12 560 0 q 690 42 651 24 l 690 361 l 426 361 l 426 251 l 554 251 l 554 43 l 618 135 q 539 109 582 118 q 456 100 496 100 q 334 129 383 100 q 260 212 285 158 q 235 338 235 265 q 260 460 235 414 q 327 527 286 506 q 411 549 368 549 q 503 531 453 549 q 597 478 553 514 l 686 585 q 565 647 631 628 q 438 667 499 667 q 304 644 371 667 q 183 578 238 622 q 97 469 129 535 q 64 317 64 404 q 107 147 64 221 q 231 32 150 74 q 429 -10 313 -10 "},"ǥ":{"ha":767,"x_min":64,"x_max":749,"o":"m 429 -10 q 515 -5 469 -10 q 606 12 560 0 q 690 42 651 24 l 690 389 l 554 389 l 554 43 l 618 135 q 539 109 582 118 q 456 100 496 100 q 334 129 383 100 q 260 212 285 158 q 235 338 235 265 q 260 460 235 414 q 327 527 286 506 q 411 549 368 549 q 503 531 453 549 q 597 478 553 514 l 686 585 q 565 647 631 628 q 438 667 499 667 q 304 644 371 667 q 183 578 238 622 q 97 469 129 535 q 64 317 64 404 q 107 147 64 221 q 231 32 150 74 q 429 -10 313 -10 m 400 192 l 749 192 l 749 306 l 400 306 l 400 192 "},"h":{"ha":843,"x_min":111,"x_max":732,"o":"m 568 0 l 732 0 l 732 657 l 568 657 l 568 0 m 111 0 l 275 0 l 275 657 l 111 657 l 111 0 m 164 281 l 678 281 l 678 410 l 164 410 l 164 281 "},"ħ":{"ha":843,"x_min":111,"x_max":732,"o":"m 568 0 l 732 0 l 732 657 l 568 657 l 568 0 m 111 0 l 275 0 l 275 657 l 111 657 l 111 0 m 164 156 l 678 156 l 678 271 l 164 271 l 164 156 m 164 419 l 678 419 l 678 535 l 164 535 l 164 419 "},"ḫ":{"ha":843,"x_min":111,"x_max":732,"o":"m 568 0 l 732 0 l 732 657 l 568 657 l 568 0 m 111 0 l 275 0 l 275 657 l 111 657 l 111 0 m 164 281 l 678 281 l 678 410 l 164 410 l 164 281 m 422 -324 q 567 -267 510 -324 q 642 -107 624 -210 l 554 -93 q 508 -167 544 -140 q 422 -194 471 -194 q 338 -167 374 -194 q 290 -93 301 -140 l 203 -107 q 278 -267 221 -210 q 422 -324 335 -324 "},"ĥ":{"ha":843,"x_min":111,"x_max":732,"o":"m 568 0 l 732 0 l 732 657 l 568 657 l 568 0 m 111 0 l 275 0 l 275 657 l 111 657 l 111 0 m 164 281 l 678 281 l 678 410 l 164 410 l 164 281 m 515 729 l 632 729 l 476 974 l 367 974 l 396 876 l 515 729 m 211 729 l 328 729 l 449 879 l 476 974 l 367 974 l 211 729 "},"ḥ":{"ha":843,"x_min":111,"x_max":732,"o":"m 568 0 l 732 0 l 732 657 l 568 657 l 568 0 m 111 0 l 275 0 l 275 657 l 111 657 l 111 0 m 164 281 l 678 281 l 678 410 l 164 410 l 164 281 m 422 -314 q 494 -287 467 -314 q 522 -217 522 -261 q 494 -145 522 -172 q 422 -118 467 -118 q 349 -145 376 -118 q 321 -217 321 -172 q 349 -287 321 -261 q 422 -314 376 -314 "},"i":{"ha":403,"x_min":118,"x_max":285,"o":"m 118 0 l 285 0 l 285 657 l 118 657 l 118 0 "},"ı":{"ha":403,"x_min":118,"x_max":285,"o":"m 118 0 l 285 0 l 285 657 l 118 657 l 118 0 "},"í":{"ha":403,"x_min":117,"x_max":399,"o":"m 118 0 l 285 0 l 285 657 l 118 657 l 118 0 m 117 729 l 236 729 l 399 974 l 213 974 l 117 729 "},"ĭ":{"ha":403,"x_min":-19,"x_max":419,"o":"m 118 0 l 285 0 l 285 657 l 118 657 l 118 0 m 200 722 q 344 779 288 722 q 419 939 401 836 l 332 953 q 285 878 322 906 q 200 851 249 851 q 115 878 151 851 q 68 953 79 906 l -19 939 q 56 779 -1 836 q 200 722 113 722 "},"ǐ":{"ha":403,"x_min":-11,"x_max":410,"o":"m 118 0 l 285 0 l 285 657 l 118 657 l 118 0 m 144 729 l 254 729 l 410 974 l 293 974 l 174 826 l 144 729 m 144 729 l 254 729 l 226 824 l 106 974 l -11 974 l 144 729 "},"î":{"ha":403,"x_min":-11,"x_max":410,"o":"m 118 0 l 285 0 l 285 657 l 118 657 l 118 0 m 293 729 l 410 729 l 254 974 l 144 974 l 174 876 l 293 729 m -11 729 l 106 729 l 226 879 l 254 974 l 144 974 l -11 729 "},"ï":{"ha":403,"x_min":-31,"x_max":429,"o":"m 118 0 l 285 0 l 285 657 l 118 657 l 118 0 m 63 749 q 130 774 104 749 q 156 839 156 800 q 130 906 156 881 q 63 932 104 932 q -5 906 21 932 q -31 839 -31 881 q -5 774 -31 800 q 63 749 21 749 m 338 749 q 403 774 378 749 q 429 839 429 800 q 403 906 429 881 q 338 932 378 932 q 268 906 294 932 q 242 839 242 881 q 268 774 242 800 q 338 749 294 749 "},"ị":{"ha":403,"x_min":99,"x_max":300,"o":"m 118 0 l 285 0 l 285 657 l 118 657 l 118 0 m 200 -314 q 272 -287 244 -314 q 300 -217 300 -261 q 272 -145 300 -172 q 200 -118 244 -118 q 126 -145 154 -118 q 99 -217 99 -172 q 126 -287 99 -261 q 200 -314 154 -314 "},"ì":{"ha":403,"x_min":1,"x_max":285,"o":"m 118 0 l 285 0 l 285 657 l 118 657 l 118 0 m 164 729 l 283 729 l 188 974 l 1 974 l 164 729 "},"ỉ":{"ha":403,"x_min":56,"x_max":382,"o":"m 118 0 l 285 0 l 285 657 l 118 657 l 118 0 m 136 714 l 269 714 l 269 822 l 201 771 q 334 804 286 771 q 382 889 382 838 q 336 973 382 938 q 214 1008 290 1008 q 138 997 181 1008 q 56 953 96 985 l 106 892 q 142 910 121 904 q 182 915 164 915 q 220 904 207 915 q 233 871 233 893 q 208 838 233 850 q 133 825 182 825 l 136 714 "},"ĳ":{"ha":776,"x_min":83,"x_max":693,"o":"m 375 -10 q 542 26 471 -10 q 653 126 614 61 q 693 278 693 192 l 693 657 l 529 657 l 529 250 q 496 146 529 183 q 397 108 463 108 q 318 128 351 108 q 266 188 285 149 q 247 279 247 226 l 247 288 l 83 288 l 83 251 q 119 115 83 174 q 221 23 156 56 q 375 -10 286 -10 m 83 432 l 247 432 l 247 657 l 83 657 l 83 432 "},"ī":{"ha":403,"x_min":15,"x_max":383,"o":"m 118 0 l 285 0 l 285 657 l 118 657 l 118 0 m 15 779 l 383 779 l 383 893 l 15 893 l 15 779 "},"į":{"ha":403,"x_min":24,"x_max":389,"o":"m 118 0 l 285 0 l 285 657 l 118 657 l 118 0 m 226 -401 q 313 -390 272 -401 q 389 -356 354 -378 l 350 -271 q 316 -281 333 -278 q 283 -285 299 -285 q 212 -253 232 -285 q 192 -178 192 -221 q 215 -83 192 -129 q 286 0 239 -37 l 167 47 q 58 -83 92 -11 q 24 -221 24 -156 q 75 -352 24 -303 q 226 -401 126 -401 "},"ĩ":{"ha":403,"x_min":-50,"x_max":450,"o":"m 118 0 l 285 0 l 285 657 l 118 657 l 118 0 m 36 719 q 69 758 47 744 q 117 772 90 772 q 169 768 142 772 q 225 759 196 764 q 283 754 254 754 q 383 803 336 754 q 450 929 429 851 l 363 949 q 331 899 353 917 q 283 882 310 882 q 227 887 257 882 q 169 896 197 892 q 117 900 140 900 q 17 854 63 900 q -50 740 -29 808 l 36 719 "},"j":{"ha":403,"x_min":-29,"x_max":285,"o":"m 7 -240 q 119 -204 68 -226 q 208 -146 171 -182 q 265 -53 244 -110 q 285 86 285 3 l 285 657 l 118 657 l 118 86 q 105 -33 118 10 q 60 -101 92 -76 q -29 -147 28 -125 l 7 -240 "},"ĵ":{"ha":403,"x_min":-29,"x_max":411,"o":"m 7 -240 q 119 -204 68 -226 q 208 -146 171 -182 q 265 -53 244 -110 q 285 86 285 3 l 285 657 l 118 657 l 118 86 q 105 -33 118 10 q 60 -101 92 -76 q -29 -147 28 -125 l 7 -240 m 294 729 l 411 729 l 256 974 l 146 974 l 175 876 l 294 729 m -10 729 l 107 729 l 228 879 l 256 974 l 146 974 l -10 729 "},"k":{"ha":747,"x_min":111,"x_max":749,"o":"m 533 0 l 749 0 l 388 394 l 374 288 l 739 657 l 526 657 l 264 329 l 533 0 m 111 0 l 275 0 l 275 657 l 111 657 l 111 0 "},"ḱ":{"ha":747,"x_min":111,"x_max":749,"o":"m 533 0 l 749 0 l 388 394 l 374 288 l 739 657 l 526 657 l 264 329 l 533 0 m 111 0 l 275 0 l 275 657 l 111 657 l 111 0 m 331 729 l 450 729 l 613 974 l 426 974 l 331 729 "},"ǩ":{"ha":747,"x_min":111,"x_max":749,"o":"m 533 0 l 749 0 l 388 394 l 374 288 l 739 657 l 526 657 l 264 329 l 533 0 m 111 0 l 275 0 l 275 657 l 111 657 l 111 0 m 358 729 l 468 729 l 624 974 l 507 974 l 388 826 l 358 729 m 358 729 l 468 729 l 440 824 l 319 974 l 203 974 l 358 729 "},"ķ":{"ha":747,"x_min":111,"x_max":749,"o":"m 533 0 l 749 0 l 388 394 l 374 288 l 739 657 l 526 657 l 264 329 l 533 0 m 111 0 l 275 0 l 275 657 l 111 657 l 111 0 m 372 -429 q 469 -333 433 -397 q 506 -206 506 -269 q 490 -129 506 -165 q 439 -68 474 -93 l 324 -153 q 347 -192 339 -167 q 356 -250 356 -218 q 344 -317 356 -283 q 311 -379 333 -351 l 372 -429 "},"ĸ":{"ha":747,"x_min":111,"x_max":749,"o":"m 533 0 l 749 0 l 388 394 l 374 288 l 739 657 l 526 657 l 264 329 l 533 0 m 111 0 l 275 0 l 275 657 l 111 657 l 111 0 "},"l":{"ha":681,"x_min":111,"x_max":636,"o":"m 111 0 l 275 0 l 275 657 l 111 657 l 111 0 m 164 0 l 636 0 l 636 129 l 164 129 l 164 0 "},"ĺ":{"ha":681,"x_min":111,"x_max":636,"o":"m 111 0 l 275 0 l 275 657 l 111 657 l 111 0 m 164 0 l 636 0 l 636 129 l 164 129 l 164 0 m 119 729 l 239 729 l 401 974 l 215 974 l 119 729 "},"ľ":{"ha":681,"x_min":111,"x_max":636,"o":"m 111 0 l 275 0 l 275 657 l 111 657 l 111 0 m 164 0 l 636 0 l 636 129 l 164 129 l 164 0 m 549 314 l 590 657 l 450 657 l 450 313 l 549 314 "},"ļ":{"ha":681,"x_min":111,"x_max":636,"o":"m 111 0 l 275 0 l 275 657 l 111 657 l 111 0 m 164 0 l 636 0 l 636 129 l 164 129 l 164 0 m 347 -429 q 444 -333 408 -397 q 481 -206 481 -269 q 465 -129 481 -165 q 414 -68 449 -93 l 299 -153 q 322 -192 314 -167 q 331 -250 331 -218 q 319 -317 331 -283 q 286 -379 308 -351 l 347 -429 "},"ŀ":{"ha":685,"x_min":111,"x_max":656,"o":"m 111 0 l 275 0 l 275 657 l 111 657 l 111 0 m 164 0 l 636 0 l 636 129 l 164 129 l 164 0 m 549 253 q 626 282 597 253 q 656 358 656 311 q 626 436 656 407 q 549 465 597 465 q 469 436 499 465 q 439 358 439 407 q 469 282 439 311 q 549 253 499 253 "},"ḷ":{"ha":681,"x_min":111,"x_max":636,"o":"m 111 0 l 275 0 l 275 657 l 111 657 l 111 0 m 164 0 l 636 0 l 636 129 l 164 129 l 164 0 m 389 -314 q 461 -287 433 -314 q 489 -217 489 -261 q 461 -145 489 -172 q 389 -118 433 -118 q 315 -145 343 -118 q 288 -217 288 -172 q 315 -287 288 -261 q 389 -314 343 -314 "},"ḹ":{"ha":681,"x_min":18,"x_max":636,"o":"m 111 0 l 275 0 l 275 657 l 111 657 l 111 0 m 164 0 l 636 0 l 636 129 l 164 129 l 164 0 m 389 -314 q 461 -287 433 -314 q 489 -217 489 -261 q 461 -145 489 -172 q 389 -118 433 -118 q 315 -145 343 -118 q 288 -217 288 -172 q 315 -287 288 -261 q 389 -314 343 -314 m 18 779 l 386 779 l 386 893 l 18 893 l 18 779 "},"ḻ":{"ha":681,"x_min":111,"x_max":636,"o":"m 111 0 l 275 0 l 275 657 l 111 657 l 111 0 m 164 0 l 636 0 l 636 129 l 164 129 l 164 0 m 204 -237 l 572 -237 l 572 -124 l 204 -124 l 204 -237 "},"ł":{"ha":681,"x_min":-25,"x_max":636,"o":"m 111 0 l 275 0 l 275 657 l 111 657 l 111 0 m 164 0 l 636 0 l 636 129 l 164 129 l 164 0 m 40 197 l 503 446 l 438 561 l -25 311 l 40 197 "},"m":{"ha":971,"x_min":104,"x_max":867,"o":"m 703 0 l 867 0 l 835 657 l 653 657 l 457 204 l 521 204 l 318 657 l 229 657 l 189 614 l 440 33 l 522 33 l 743 608 l 694 590 l 703 0 m 104 0 l 254 0 l 250 657 l 135 657 l 104 0 "},"ṁ":{"ha":971,"x_min":104,"x_max":867,"o":"m 703 0 l 867 0 l 835 657 l 653 657 l 457 204 l 521 204 l 318 657 l 229 657 l 189 614 l 440 33 l 522 33 l 743 608 l 694 590 l 703 0 m 104 0 l 254 0 l 250 657 l 135 657 l 104 0 m 486 758 q 558 785 531 758 q 586 856 586 811 q 558 927 586 900 q 486 954 531 954 q 413 927 440 954 q 385 856 385 900 q 413 785 385 811 q 486 758 440 758 "},"ṃ":{"ha":971,"x_min":104,"x_max":867,"o":"m 703 0 l 867 0 l 835 657 l 653 657 l 457 204 l 521 204 l 318 657 l 229 657 l 189 614 l 440 33 l 522 33 l 743 608 l 694 590 l 703 0 m 104 0 l 254 0 l 250 657 l 135 657 l 104 0 m 486 -314 q 558 -287 531 -314 q 586 -217 586 -261 q 558 -145 586 -172 q 486 -118 531 -118 q 413 -145 440 -118 q 385 -217 385 -172 q 413 -287 385 -261 q 486 -314 440 -314 "},"n":{"ha":836,"x_min":111,"x_max":725,"o":"m 111 0 l 263 0 l 244 657 l 111 657 l 111 0 m 635 0 l 628 153 l 271 657 l 172 657 l 172 546 l 561 0 l 635 0 m 725 657 l 574 657 l 589 0 l 725 0 l 725 657 "},"ń":{"ha":836,"x_min":111,"x_max":725,"o":"m 111 0 l 263 0 l 244 657 l 111 657 l 111 0 m 635 0 l 628 153 l 271 657 l 172 657 l 172 546 l 561 0 l 635 0 m 725 657 l 574 657 l 589 0 l 725 0 l 725 657 m 335 729 l 454 729 l 617 974 l 431 974 l 335 729 "},"ŉ":{"ha":961,"x_min":-18,"x_max":850,"o":"m 43 303 q 140 399 104 335 q 176 526 176 463 q 160 603 176 567 q 110 664 144 639 l -6 579 q 18 540 10 565 q 26 482 26 514 q 15 415 26 449 q -18 353 4 381 l 43 303 m 236 0 l 388 0 l 369 657 l 236 657 l 236 0 m 760 0 l 753 153 l 396 657 l 297 657 l 297 546 l 686 0 l 760 0 m 850 657 l 699 657 l 714 0 l 850 0 l 850 657 "},"ň":{"ha":836,"x_min":111,"x_max":725,"o":"m 111 0 l 263 0 l 244 657 l 111 657 l 111 0 m 635 0 l 628 153 l 271 657 l 172 657 l 172 546 l 561 0 l 635 0 m 725 657 l 574 657 l 589 0 l 725 0 l 725 657 m 363 729 l 472 729 l 628 974 l 511 974 l 392 826 l 363 729 m 363 729 l 472 729 l 444 824 l 324 974 l 207 974 l 363 729 "},"ṋ":{"ha":836,"x_min":111,"x_max":725,"o":"m 111 0 l 263 0 l 244 657 l 111 657 l 111 0 m 635 0 l 628 153 l 271 657 l 172 657 l 172 546 l 561 0 l 635 0 m 725 657 l 574 657 l 589 0 l 725 0 l 725 657 m 511 -376 l 628 -376 l 472 -90 l 363 -90 l 392 -187 l 511 -376 m 207 -376 l 324 -376 l 444 -185 l 472 -90 l 363 -90 l 207 -376 "},"ņ":{"ha":836,"x_min":111,"x_max":725,"o":"m 111 0 l 263 0 l 244 657 l 111 657 l 111 0 m 635 0 l 628 153 l 271 657 l 172 657 l 172 546 l 561 0 l 635 0 m 725 657 l 574 657 l 589 0 l 725 0 l 725 657 m 376 -429 q 474 -333 438 -397 q 510 -206 510 -269 q 494 -129 510 -165 q 443 -68 478 -93 l 328 -153 q 351 -192 343 -167 q 360 -250 360 -218 q 349 -317 360 -283 q 315 -379 338 -351 l 376 -429 "},"ṅ":{"ha":836,"x_min":111,"x_max":725,"o":"m 111 0 l 263 0 l 244 657 l 111 657 l 111 0 m 635 0 l 628 153 l 271 657 l 172 657 l 172 546 l 561 0 l 635 0 m 725 657 l 574 657 l 589 0 l 725 0 l 725 657 m 418 758 q 490 785 463 758 q 518 856 518 811 q 490 927 518 900 q 418 954 463 954 q 344 927 372 954 q 317 856 317 900 q 344 785 317 811 q 418 758 372 758 "},"ṇ":{"ha":836,"x_min":111,"x_max":725,"o":"m 111 0 l 263 0 l 244 657 l 111 657 l 111 0 m 635 0 l 628 153 l 271 657 l 172 657 l 172 546 l 561 0 l 635 0 m 725 657 l 574 657 l 589 0 l 725 0 l 725 657 m 418 -314 q 490 -287 463 -314 q 518 -217 518 -261 q 490 -145 518 -172 q 418 -118 463 -118 q 344 -145 372 -118 q 317 -217 317 -172 q 344 -287 317 -261 q 418 -314 372 -314 "},"ṉ":{"ha":836,"x_min":111,"x_max":725,"o":"m 111 0 l 263 0 l 244 657 l 111 657 l 111 0 m 635 0 l 628 153 l 271 657 l 172 657 l 172 546 l 561 0 l 635 0 m 725 657 l 574 657 l 589 0 l 725 0 l 725 657 m 233 -237 l 601 -237 l 601 -124 l 233 -124 l 233 -237 "},"ñ":{"ha":836,"x_min":111,"x_max":725,"o":"m 111 0 l 263 0 l 244 657 l 111 657 l 111 0 m 635 0 l 628 153 l 271 657 l 172 657 l 172 546 l 561 0 l 635 0 m 725 657 l 574 657 l 589 0 l 725 0 l 725 657 m 254 719 q 287 758 265 744 q 335 772 308 772 q 387 768 360 772 q 443 759 414 764 q 501 754 472 754 q 601 803 554 754 q 668 929 647 851 l 581 949 q 549 899 571 917 q 501 882 528 882 q 445 887 475 882 q 387 896 415 892 q 335 900 358 900 q 235 854 281 900 q 168 740 189 808 l 254 719 "},"ŋ":{"ha":836,"x_min":111,"x_max":724,"o":"m 418 -296 q 542 -253 486 -279 q 638 -185 597 -228 q 701 -77 679 -143 q 724 86 724 -11 l 724 657 l 574 657 l 574 86 q 565 -33 574 14 q 535 -109 557 -79 q 476 -160 514 -139 q 382 -203 439 -182 l 418 -296 m 111 0 l 263 0 l 244 657 l 111 657 l 111 0 m 575 0 l 649 0 l 642 125 l 271 657 l 172 657 l 172 546 l 575 0 "},"o":{"ha":833,"x_min":64,"x_max":768,"o":"m 408 -10 q 589 34 507 -10 q 719 155 671 78 q 768 332 768 232 q 723 503 768 428 q 599 623 678 579 q 422 667 521 667 q 237 619 318 667 q 110 494 156 572 q 64 321 64 415 q 108 154 64 229 q 231 35 153 79 q 408 -10 310 -10 m 425 111 q 329 139 371 111 q 263 218 288 167 q 239 338 239 269 q 260 449 239 403 q 320 521 282 496 q 407 546 358 546 q 503 517 461 546 q 569 438 544 489 q 593 317 593 386 q 572 207 593 253 q 514 136 551 161 q 425 111 476 111 "},"ó":{"ha":833,"x_min":64,"x_max":768,"o":"m 408 -10 q 589 34 507 -10 q 719 155 671 78 q 768 332 768 232 q 723 503 768 428 q 599 623 678 579 q 422 667 521 667 q 237 619 318 667 q 110 494 156 572 q 64 321 64 415 q 108 154 64 229 q 231 35 153 79 q 408 -10 310 -10 m 425 111 q 329 139 371 111 q 263 218 288 167 q 239 338 239 269 q 260 449 239 403 q 320 521 282 496 q 407 546 358 546 q 503 517 461 546 q 569 438 544 489 q 593 317 593 386 q 572 207 593 253 q 514 136 551 161 q 425 111 476 111 m 333 729 l 453 729 l 615 974 l 429 974 l 333 729 "},"ŏ":{"ha":833,"x_min":64,"x_max":768,"o":"m 408 -10 q 589 34 507 -10 q 719 155 671 78 q 768 332 768 232 q 723 503 768 428 q 599 623 678 579 q 422 667 521 667 q 237 619 318 667 q 110 494 156 572 q 64 321 64 415 q 108 154 64 229 q 231 35 153 79 q 408 -10 310 -10 m 425 111 q 329 139 371 111 q 263 218 288 167 q 239 338 239 269 q 260 449 239 403 q 320 521 282 496 q 407 546 358 546 q 503 517 461 546 q 569 438 544 489 q 593 317 593 386 q 572 207 593 253 q 514 136 551 161 q 425 111 476 111 m 417 722 q 561 779 504 722 q 636 939 618 836 l 549 953 q 502 878 539 906 q 417 851 465 851 q 332 878 368 851 q 285 953 296 906 l 197 939 q 272 779 215 836 q 417 722 329 722 "},"ǒ":{"ha":833,"x_min":64,"x_max":768,"o":"m 408 -10 q 589 34 507 -10 q 719 155 671 78 q 768 332 768 232 q 723 503 768 428 q 599 623 678 579 q 422 667 521 667 q 237 619 318 667 q 110 494 156 572 q 64 321 64 415 q 108 154 64 229 q 231 35 153 79 q 408 -10 310 -10 m 425 111 q 329 139 371 111 q 263 218 288 167 q 239 338 239 269 q 260 449 239 403 q 320 521 282 496 q 407 546 358 546 q 503 517 461 546 q 569 438 544 489 q 593 317 593 386 q 572 207 593 253 q 514 136 551 161 q 425 111 476 111 m 361 729 l 471 729 l 626 974 l 510 974 l 390 826 l 361 729 m 361 729 l 471 729 l 443 824 l 322 974 l 206 974 l 361 729 "},"ô":{"ha":833,"x_min":64,"x_max":768,"o":"m 408 -10 q 589 34 507 -10 q 719 155 671 78 q 768 332 768 232 q 723 503 768 428 q 599 623 678 579 q 422 667 521 667 q 237 619 318 667 q 110 494 156 572 q 64 321 64 415 q 108 154 64 229 q 231 35 153 79 q 408 -10 310 -10 m 425 111 q 329 139 371 111 q 263 218 288 167 q 239 338 239 269 q 260 449 239 403 q 320 521 282 496 q 407 546 358 546 q 503 517 461 546 q 569 438 544 489 q 593 317 593 386 q 572 207 593 253 q 514 136 551 161 q 425 111 476 111 m 510 729 l 626 729 l 471 974 l 361 974 l 390 876 l 510 729 m 206 729 l 322 729 l 443 879 l 471 974 l 361 974 l 206 729 "},"ố":{"ha":833,"x_min":64,"x_max":822,"o":"m 408 -10 q 589 34 507 -10 q 719 155 671 78 q 768 332 768 232 q 723 503 768 428 q 599 623 678 579 q 422 667 521 667 q 237 619 318 667 q 110 494 156 572 q 64 321 64 415 q 108 154 64 229 q 231 35 153 79 q 408 -10 310 -10 m 425 111 q 329 139 371 111 q 263 218 288 167 q 239 338 239 269 q 260 449 239 403 q 320 521 282 496 q 407 546 358 546 q 503 517 461 546 q 569 438 544 489 q 593 317 593 386 q 572 207 593 253 q 514 136 551 161 q 425 111 476 111 m 514 729 l 638 729 l 454 974 l 344 974 l 374 869 l 514 729 m 161 729 l 285 729 l 426 872 l 454 974 l 344 974 l 161 729 m 564 863 l 675 863 l 822 1079 l 657 1079 l 564 863 "},"ộ":{"ha":833,"x_min":64,"x_max":768,"o":"m 408 -10 q 589 34 507 -10 q 719 155 671 78 q 768 332 768 232 q 723 503 768 428 q 599 623 678 579 q 422 667 521 667 q 237 619 318 667 q 110 494 156 572 q 64 321 64 415 q 108 154 64 229 q 231 35 153 79 q 408 -10 310 -10 m 425 111 q 329 139 371 111 q 263 218 288 167 q 239 338 239 269 q 260 449 239 403 q 320 521 282 496 q 407 546 358 546 q 503 517 461 546 q 569 438 544 489 q 593 317 593 386 q 572 207 593 253 q 514 136 551 161 q 425 111 476 111 m 426 -314 q 499 -287 471 -314 q 526 -217 526 -261 q 499 -145 526 -172 q 426 -118 471 -118 q 353 -145 381 -118 q 325 -217 325 -172 q 353 -287 325 -261 q 426 -314 381 -314 m 510 729 l 626 729 l 471 974 l 361 974 l 390 876 l 510 729 m 206 729 l 322 729 l 443 879 l 471 974 l 361 974 l 206 729 "},"ồ":{"ha":833,"x_min":64,"x_max":768,"o":"m 408 -10 q 589 34 507 -10 q 719 155 671 78 q 768 332 768 232 q 723 503 768 428 q 599 623 678 579 q 422 667 521 667 q 237 619 318 667 q 110 494 156 572 q 64 321 64 415 q 108 154 64 229 q 231 35 153 79 q 408 -10 310 -10 m 425 111 q 329 139 371 111 q 263 218 288 167 q 239 338 239 269 q 260 449 239 403 q 320 521 282 496 q 407 546 358 546 q 503 517 461 546 q 569 438 544 489 q 593 317 593 386 q 572 207 593 253 q 514 136 551 161 q 425 111 476 111 m 514 729 l 638 729 l 454 974 l 344 974 l 374 869 l 514 729 m 161 729 l 285 729 l 426 872 l 454 974 l 344 974 l 161 729 m 628 863 l 739 863 l 646 1079 l 481 1079 l 628 863 "},"ổ":{"ha":833,"x_min":64,"x_max":781,"o":"m 408 -10 q 589 34 507 -10 q 719 155 671 78 q 768 332 768 232 q 723 503 768 428 q 599 623 678 579 q 422 667 521 667 q 237 619 318 667 q 110 494 156 572 q 64 321 64 415 q 108 154 64 229 q 231 35 153 79 q 408 -10 310 -10 m 425 111 q 329 139 371 111 q 263 218 288 167 q 239 338 239 269 q 260 449 239 403 q 320 521 282 496 q 407 546 358 546 q 503 517 461 546 q 569 438 544 489 q 593 317 593 386 q 572 207 593 253 q 514 136 551 161 q 425 111 476 111 m 532 729 l 656 729 l 472 974 l 363 974 l 392 869 l 532 729 m 179 729 l 303 729 l 444 872 l 472 974 l 363 974 l 179 729 m 592 863 l 681 863 l 681 942 l 643 906 q 744 935 708 906 q 781 1010 781 964 q 748 1083 781 1053 q 663 1113 715 1113 q 602 1101 636 1113 q 536 1057 568 1090 l 561 1013 q 592 1030 574 1024 q 624 1036 610 1036 q 662 1024 649 1036 q 675 997 675 1013 q 646 959 675 974 q 589 944 617 944 l 592 863 "},"ỗ":{"ha":833,"x_min":64,"x_max":768,"o":"m 408 -10 q 589 34 507 -10 q 719 155 671 78 q 768 332 768 232 q 723 503 768 428 q 599 623 678 579 q 422 667 521 667 q 237 619 318 667 q 110 494 156 572 q 64 321 64 415 q 108 154 64 229 q 231 35 153 79 q 408 -10 310 -10 m 425 111 q 329 139 371 111 q 263 218 288 167 q 239 338 239 269 q 260 449 239 403 q 320 521 282 496 q 407 546 358 546 q 503 517 461 546 q 569 438 544 489 q 593 317 593 386 q 572 207 593 253 q 514 136 551 161 q 425 111 476 111 m 531 715 l 654 715 l 471 960 l 361 960 l 390 856 l 531 715 m 178 715 l 301 715 l 443 858 l 471 960 l 361 960 l 178 715 m 286 996 q 312 1035 294 1022 q 351 1049 329 1049 q 390 1038 374 1049 q 428 1015 406 1026 q 489 1003 450 1003 q 580 1044 538 1003 q 640 1153 622 1086 l 554 1174 q 528 1123 546 1140 q 489 1106 511 1106 q 448 1117 467 1106 q 407 1141 429 1129 q 351 1153 385 1153 q 260 1114 303 1153 q 200 1017 218 1075 l 286 996 "},"ö":{"ha":833,"x_min":64,"x_max":768,"o":"m 408 -10 q 589 34 507 -10 q 719 155 671 78 q 768 332 768 232 q 723 503 768 428 q 599 623 678 579 q 422 667 521 667 q 237 619 318 667 q 110 494 156 572 q 64 321 64 415 q 108 154 64 229 q 231 35 153 79 q 408 -10 310 -10 m 425 111 q 329 139 371 111 q 263 218 288 167 q 239 338 239 269 q 260 449 239 403 q 320 521 282 496 q 407 546 358 546 q 503 517 461 546 q 569 438 544 489 q 593 317 593 386 q 572 207 593 253 q 514 136 551 161 q 425 111 476 111 m 279 749 q 347 774 321 749 q 372 839 372 800 q 347 906 372 881 q 279 932 321 932 q 212 906 238 932 q 186 839 186 881 q 212 774 186 800 q 279 749 238 749 m 554 749 q 620 774 594 749 q 646 839 646 800 q 620 906 646 881 q 554 932 594 932 q 485 906 511 932 q 458 839 458 881 q 485 774 458 800 q 554 749 511 749 "},"ọ":{"ha":833,"x_min":64,"x_max":768,"o":"m 408 -10 q 589 34 507 -10 q 719 155 671 78 q 768 332 768 232 q 723 503 768 428 q 599 623 678 579 q 422 667 521 667 q 237 619 318 667 q 110 494 156 572 q 64 321 64 415 q 108 154 64 229 q 231 35 153 79 q 408 -10 310 -10 m 425 111 q 329 139 371 111 q 263 218 288 167 q 239 338 239 269 q 260 449 239 403 q 320 521 282 496 q 407 546 358 546 q 503 517 461 546 q 569 438 544 489 q 593 317 593 386 q 572 207 593 253 q 514 136 551 161 q 425 111 476 111 m 426 -314 q 499 -287 471 -314 q 526 -217 526 -261 q 499 -145 526 -172 q 426 -118 471 -118 q 353 -145 381 -118 q 325 -217 325 -172 q 353 -287 325 -261 q 426 -314 381 -314 "},"ò":{"ha":833,"x_min":64,"x_max":768,"o":"m 408 -10 q 589 34 507 -10 q 719 155 671 78 q 768 332 768 232 q 723 503 768 428 q 599 623 678 579 q 422 667 521 667 q 237 619 318 667 q 110 494 156 572 q 64 321 64 415 q 108 154 64 229 q 231 35 153 79 q 408 -10 310 -10 m 425 111 q 329 139 371 111 q 263 218 288 167 q 239 338 239 269 q 260 449 239 403 q 320 521 282 496 q 407 546 358 546 q 503 517 461 546 q 569 438 544 489 q 593 317 593 386 q 572 207 593 253 q 514 136 551 161 q 425 111 476 111 m 381 729 l 500 729 l 404 974 l 218 974 l 381 729 "},"ỏ":{"ha":833,"x_min":64,"x_max":768,"o":"m 408 -10 q 589 34 507 -10 q 719 155 671 78 q 768 332 768 232 q 723 503 768 428 q 599 623 678 579 q 422 667 521 667 q 237 619 318 667 q 110 494 156 572 q 64 321 64 415 q 108 154 64 229 q 231 35 153 79 q 408 -10 310 -10 m 425 111 q 329 139 371 111 q 263 218 288 167 q 239 338 239 269 q 260 449 239 403 q 320 521 282 496 q 407 546 358 546 q 503 517 461 546 q 569 438 544 489 q 593 317 593 386 q 572 207 593 253 q 514 136 551 161 q 425 111 476 111 m 353 714 l 486 714 l 486 822 l 418 771 q 551 804 503 771 q 599 889 599 838 q 553 973 599 938 q 431 1008 507 1008 q 355 997 397 1008 q 272 953 313 985 l 322 892 q 359 910 338 904 q 399 915 381 915 q 437 904 424 915 q 450 871 450 893 q 424 838 450 850 q 350 825 399 825 l 353 714 "},"ơ":{"ha":833,"x_min":64,"x_max":844,"o":"m 408 -10 q 589 34 507 -10 q 719 155 671 78 q 768 332 768 232 q 723 503 768 428 q 599 623 678 579 q 422 667 521 667 q 237 619 318 667 q 110 494 156 572 q 64 321 64 415 q 108 154 64 229 q 231 35 153 79 q 408 -10 310 -10 m 425 111 q 329 139 371 111 q 263 218 288 167 q 239 338 239 269 q 260 449 239 403 q 320 521 282 496 q 407 546 358 546 q 503 517 461 546 q 569 438 544 489 q 593 317 593 386 q 572 207 593 253 q 514 136 551 161 q 425 111 476 111 m 585 514 q 721 546 663 514 q 812 629 779 578 q 844 736 844 681 q 825 817 844 776 q 763 890 806 858 l 649 806 q 678 765 669 788 q 688 718 688 742 q 653 638 688 674 q 556 601 619 601 l 585 514 "},"ớ":{"ha":833,"x_min":64,"x_max":844,"o":"m 408 -10 q 589 34 507 -10 q 719 155 671 78 q 768 332 768 232 q 723 503 768 428 q 599 623 678 579 q 422 667 521 667 q 237 619 318 667 q 110 494 156 572 q 64 321 64 415 q 108 154 64 229 q 231 35 153 79 q 408 -10 310 -10 m 425 111 q 329 139 371 111 q 263 218 288 167 q 239 338 239 269 q 260 449 239 403 q 320 521 282 496 q 407 546 358 546 q 503 517 461 546 q 569 438 544 489 q 593 317 593 386 q 572 207 593 253 q 514 136 551 161 q 425 111 476 111 m 585 514 q 721 546 663 514 q 812 629 779 578 q 844 736 844 681 q 825 817 844 776 q 763 890 806 858 l 649 806 q 678 765 669 788 q 688 718 688 742 q 653 638 688 674 q 556 601 619 601 l 585 514 m 319 729 l 439 729 l 601 974 l 415 974 l 319 729 "},"ợ":{"ha":833,"x_min":64,"x_max":844,"o":"m 408 -10 q 589 34 507 -10 q 719 155 671 78 q 768 332 768 232 q 723 503 768 428 q 599 623 678 579 q 422 667 521 667 q 237 619 318 667 q 110 494 156 572 q 64 321 64 415 q 108 154 64 229 q 231 35 153 79 q 408 -10 310 -10 m 425 111 q 329 139 371 111 q 263 218 288 167 q 239 338 239 269 q 260 449 239 403 q 320 521 282 496 q 407 546 358 546 q 503 517 461 546 q 569 438 544 489 q 593 317 593 386 q 572 207 593 253 q 514 136 551 161 q 425 111 476 111 m 585 514 q 721 546 663 514 q 812 629 779 578 q 844 736 844 681 q 825 817 844 776 q 763 890 806 858 l 649 806 q 678 765 669 788 q 688 718 688 742 q 653 638 688 674 q 556 601 619 601 l 585 514 m 417 -314 q 489 -287 461 -314 q 517 -217 517 -261 q 489 -145 517 -172 q 417 -118 461 -118 q 343 -145 371 -118 q 315 -217 315 -172 q 343 -287 315 -261 q 417 -314 371 -314 "},"ờ":{"ha":833,"x_min":64,"x_max":844,"o":"m 408 -10 q 589 34 507 -10 q 719 155 671 78 q 768 332 768 232 q 723 503 768 428 q 599 623 678 579 q 422 667 521 667 q 237 619 318 667 q 110 494 156 572 q 64 321 64 415 q 108 154 64 229 q 231 35 153 79 q 408 -10 310 -10 m 425 111 q 329 139 371 111 q 263 218 288 167 q 239 338 239 269 q 260 449 239 403 q 320 521 282 496 q 407 546 358 546 q 503 517 461 546 q 569 438 544 489 q 593 317 593 386 q 572 207 593 253 q 514 136 551 161 q 425 111 476 111 m 585 514 q 721 546 663 514 q 812 629 779 578 q 844 736 844 681 q 825 817 844 776 q 763 890 806 858 l 649 806 q 678 765 669 788 q 688 718 688 742 q 653 638 688 674 q 556 601 619 601 l 585 514 m 367 729 l 486 729 l 390 974 l 204 974 l 367 729 "},"ở":{"ha":833,"x_min":64,"x_max":844,"o":"m 408 -10 q 589 34 507 -10 q 719 155 671 78 q 768 332 768 232 q 723 503 768 428 q 599 623 678 579 q 422 667 521 667 q 237 619 318 667 q 110 494 156 572 q 64 321 64 415 q 108 154 64 229 q 231 35 153 79 q 408 -10 310 -10 m 425 111 q 329 139 371 111 q 263 218 288 167 q 239 338 239 269 q 260 449 239 403 q 320 521 282 496 q 407 546 358 546 q 503 517 461 546 q 569 438 544 489 q 593 317 593 386 q 572 207 593 253 q 514 136 551 161 q 425 111 476 111 m 585 514 q 721 546 663 514 q 812 629 779 578 q 844 736 844 681 q 825 817 844 776 q 763 890 806 858 l 649 806 q 678 765 669 788 q 688 718 688 742 q 653 638 688 674 q 556 601 619 601 l 585 514 m 339 714 l 472 714 l 472 822 l 404 771 q 537 804 489 771 q 585 889 585 838 q 539 973 585 938 q 417 1008 493 1008 q 341 997 383 1008 q 258 953 299 985 l 308 892 q 345 910 324 904 q 385 915 367 915 q 423 904 410 915 q 436 871 436 893 q 410 838 436 850 q 336 825 385 825 l 339 714 "},"ỡ":{"ha":833,"x_min":64,"x_max":844,"o":"m 408 -10 q 589 34 507 -10 q 719 155 671 78 q 768 332 768 232 q 723 503 768 428 q 599 623 678 579 q 422 667 521 667 q 237 619 318 667 q 110 494 156 572 q 64 321 64 415 q 108 154 64 229 q 231 35 153 79 q 408 -10 310 -10 m 425 111 q 329 139 371 111 q 263 218 288 167 q 239 338 239 269 q 260 449 239 403 q 320 521 282 496 q 407 546 358 546 q 503 517 461 546 q 569 438 544 489 q 593 317 593 386 q 572 207 593 253 q 514 136 551 161 q 425 111 476 111 m 585 514 q 721 546 663 514 q 812 629 779 578 q 844 736 844 681 q 825 817 844 776 q 763 890 806 858 l 649 806 q 678 765 669 788 q 688 718 688 742 q 653 638 688 674 q 556 601 619 601 l 585 514 m 239 719 q 272 758 250 744 q 319 772 293 772 q 372 768 344 772 q 428 759 399 764 q 486 754 457 754 q 585 803 539 754 q 653 929 632 851 l 565 949 q 534 899 556 917 q 486 882 513 882 q 430 887 460 882 q 372 896 400 892 q 319 900 343 900 q 219 854 265 900 q 153 740 174 808 l 239 719 "},"ő":{"ha":833,"x_min":64,"x_max":768,"o":"m 408 -10 q 589 34 507 -10 q 719 155 671 78 q 768 332 768 232 q 723 503 768 428 q 599 623 678 579 q 422 667 521 667 q 237 619 318 667 q 110 494 156 572 q 64 321 64 415 q 108 154 64 229 q 231 35 153 79 q 408 -10 310 -10 m 425 111 q 329 139 371 111 q 263 218 288 167 q 239 338 239 269 q 260 449 239 403 q 320 521 282 496 q 407 546 358 546 q 503 517 461 546 q 569 438 544 489 q 593 317 593 386 q 572 207 593 253 q 514 136 551 161 q 425 111 476 111 m 203 729 l 322 729 l 485 974 l 299 974 l 203 729 m 446 729 l 565 729 l 728 974 l 542 974 l 446 729 "},"ō":{"ha":833,"x_min":64,"x_max":768,"o":"m 408 -10 q 589 34 507 -10 q 719 155 671 78 q 768 332 768 232 q 723 503 768 428 q 599 623 678 579 q 422 667 521 667 q 237 619 318 667 q 110 494 156 572 q 64 321 64 415 q 108 154 64 229 q 231 35 153 79 q 408 -10 310 -10 m 425 111 q 329 139 371 111 q 263 218 288 167 q 239 338 239 269 q 260 449 239 403 q 320 521 282 496 q 407 546 358 546 q 503 517 461 546 q 569 438 544 489 q 593 317 593 386 q 572 207 593 253 q 514 136 551 161 q 425 111 476 111 m 232 779 l 600 779 l 600 893 l 232 893 l 232 779 "},"ǫ":{"ha":833,"x_min":64,"x_max":768,"o":"m 408 -10 q 589 34 507 -10 q 719 155 671 78 q 768 332 768 232 q 723 503 768 428 q 599 623 678 579 q 422 667 521 667 q 237 619 318 667 q 110 494 156 572 q 64 321 64 415 q 108 154 64 229 q 231 35 153 79 q 408 -10 310 -10 m 425 111 q 329 139 371 111 q 263 218 288 167 q 239 338 239 269 q 260 449 239 403 q 320 521 282 496 q 407 546 358 546 q 503 517 461 546 q 569 438 544 489 q 593 317 593 386 q 572 207 593 253 q 514 136 551 161 q 425 111 476 111 m 472 -403 q 621 -361 557 -403 l 582 -276 q 557 -284 569 -282 q 529 -286 544 -286 q 445 -258 476 -286 q 414 -175 414 -231 q 439 -81 414 -133 q 521 15 464 -28 l 465 56 q 306 -70 356 0 q 257 -214 257 -140 q 313 -350 257 -297 q 472 -403 369 -403 "},"ø":{"ha":833,"x_min":60,"x_max":768,"o":"m 408 -10 q 589 34 507 -10 q 719 155 671 78 q 768 332 768 232 q 723 503 768 428 q 599 623 678 579 q 422 667 521 667 q 237 619 318 667 q 110 494 156 572 q 64 321 64 415 q 108 154 64 229 q 231 35 153 79 q 408 -10 310 -10 m 425 111 q 329 139 371 111 q 263 218 288 167 q 239 338 239 269 q 260 449 239 403 q 320 521 282 496 q 407 546 358 546 q 503 517 461 546 q 569 438 544 489 q 593 317 593 386 q 572 207 593 253 q 514 136 551 161 q 425 111 476 111 m 147 -51 l 767 636 l 678 710 l 60 22 l 147 -51 "},"ǿ":{"ha":833,"x_min":60,"x_max":768,"o":"m 408 -10 q 589 34 507 -10 q 719 155 671 78 q 768 332 768 232 q 723 503 768 428 q 599 623 678 579 q 422 667 521 667 q 237 619 318 667 q 110 494 156 572 q 64 321 64 415 q 108 154 64 229 q 231 35 153 79 q 408 -10 310 -10 m 425 111 q 329 139 371 111 q 263 218 288 167 q 239 338 239 269 q 260 449 239 403 q 320 521 282 496 q 407 546 358 546 q 503 517 461 546 q 569 438 544 489 q 593 317 593 386 q 572 207 593 253 q 514 136 551 161 q 425 111 476 111 m 147 -51 l 767 636 l 678 710 l 60 22 l 147 -51 m 333 729 l 453 729 l 615 974 l 429 974 l 333 729 "},"õ":{"ha":833,"x_min":64,"x_max":768,"o":"m 408 -10 q 589 34 507 -10 q 719 155 671 78 q 768 332 768 232 q 723 503 768 428 q 599 623 678 579 q 422 667 521 667 q 237 619 318 667 q 110 494 156 572 q 64 321 64 415 q 108 154 64 229 q 231 35 153 79 q 408 -10 310 -10 m 425 111 q 329 139 371 111 q 263 218 288 167 q 239 338 239 269 q 260 449 239 403 q 320 521 282 496 q 407 546 358 546 q 503 517 461 546 q 569 438 544 489 q 593 317 593 386 q 572 207 593 253 q 514 136 551 161 q 425 111 476 111 m 253 719 q 285 758 264 744 q 333 772 307 772 q 385 768 358 772 q 442 759 413 764 q 500 754 471 754 q 599 803 553 754 q 667 929 646 851 l 579 949 q 548 899 569 917 q 500 882 526 882 q 444 887 474 882 q 385 896 414 892 q 333 900 357 900 q 233 854 279 900 q 167 740 188 808 l 253 719 "},"œ":{"ha":1114,"x_min":64,"x_max":1068,"o":"m 438 -7 q 526 -2 476 -7 q 618 11 576 3 l 578 131 q 519 120 551 124 q 464 117 488 117 q 341 144 392 117 q 264 223 290 172 q 238 344 238 274 q 260 453 238 411 q 328 517 283 496 q 439 538 374 538 q 482 536 457 538 q 531 532 507 535 q 568 524 556 529 l 628 647 q 545 660 589 656 q 464 665 501 665 q 261 622 351 665 q 117 499 171 578 q 64 317 64 421 q 109 151 64 224 q 238 35 154 78 q 438 -7 322 -7 m 585 265 l 983 265 l 983 403 l 585 403 l 585 265 m 538 0 l 1068 0 l 1068 125 l 692 125 l 692 532 l 1029 532 l 1029 657 l 538 657 l 538 0 "},"p":{"ha":693,"x_min":111,"x_max":643,"o":"m 111 0 l 267 0 l 267 535 l 328 535 q 446 502 403 535 q 489 414 489 469 q 449 333 489 360 q 335 306 408 306 l 189 306 l 189 176 l 307 176 q 488 209 413 176 q 603 301 563 242 q 643 439 643 361 q 609 560 643 511 q 511 633 575 608 q 356 657 447 657 l 111 657 l 111 0 "},"þ":{"ha":693,"x_min":111,"x_max":643,"o":"m 189 103 l 307 103 q 488 135 413 103 q 603 223 563 167 q 643 354 643 279 q 609 469 643 424 q 511 538 575 515 q 356 561 447 561 l 172 561 l 172 439 l 328 439 q 443 413 401 439 q 485 335 485 386 q 444 254 485 283 q 335 225 404 225 l 189 225 l 189 103 m 111 0 l 268 0 l 268 657 l 111 657 l 111 0 "},"q":{"ha":833,"x_min":64,"x_max":901,"o":"m 408 -10 q 589 34 507 -10 q 719 155 671 78 q 768 332 768 232 q 723 503 768 428 q 599 623 678 579 q 422 667 521 667 q 237 619 318 667 q 110 494 156 572 q 64 321 64 415 q 108 154 64 229 q 231 35 153 79 q 408 -10 310 -10 m 425 111 q 329 139 371 111 q 263 218 288 167 q 239 338 239 269 q 260 449 239 403 q 320 521 282 496 q 407 546 358 546 q 503 517 461 546 q 569 438 544 489 q 593 317 593 386 q 572 207 593 253 q 514 136 551 161 q 425 111 476 111 m 753 -229 q 815 -223 778 -229 q 901 -194 851 -217 l 865 -108 q 828 -119 846 -117 q 801 -121 811 -121 q 672 -73 731 -121 q 560 67 614 -25 l 396 0 q 553 -172 471 -114 q 753 -229 635 -229 "},"r":{"ha":744,"x_min":111,"x_max":731,"o":"m 111 0 l 263 0 l 263 531 l 356 531 q 444 507 413 531 q 476 442 476 483 q 442 380 476 403 q 349 357 408 357 l 189 357 l 189 244 l 321 244 q 487 271 418 244 q 592 347 556 297 q 629 463 629 396 q 561 608 629 558 q 369 657 493 657 l 111 657 l 111 0 m 626 -15 q 675 -11 650 -15 q 731 3 700 -7 l 714 93 q 697 90 707 92 q 676 89 686 89 q 646 97 660 89 q 614 128 632 106 q 565 196 596 151 l 486 313 l 358 264 l 433 136 q 490 51 464 85 q 547 1 515 18 q 626 -15 579 -15 "},"ŕ":{"ha":744,"x_min":111,"x_max":731,"o":"m 111 0 l 263 0 l 263 531 l 356 531 q 444 507 413 531 q 476 442 476 483 q 442 380 476 403 q 349 357 408 357 l 189 357 l 189 244 l 321 244 q 487 271 418 244 q 592 347 556 297 q 629 463 629 396 q 561 608 629 558 q 369 657 493 657 l 111 657 l 111 0 m 626 -15 q 675 -11 650 -15 q 731 3 700 -7 l 714 93 q 697 90 707 92 q 676 89 686 89 q 646 97 660 89 q 614 128 632 106 q 565 196 596 151 l 486 313 l 358 264 l 433 136 q 490 51 464 85 q 547 1 515 18 q 626 -15 579 -15 m 292 729 l 411 729 l 574 974 l 388 974 l 292 729 "},"ř":{"ha":744,"x_min":111,"x_max":731,"o":"m 111 0 l 263 0 l 263 531 l 356 531 q 444 507 413 531 q 476 442 476 483 q 442 380 476 403 q 349 357 408 357 l 189 357 l 189 244 l 321 244 q 487 271 418 244 q 592 347 556 297 q 629 463 629 396 q 561 608 629 558 q 369 657 493 657 l 111 657 l 111 0 m 626 -15 q 675 -11 650 -15 q 731 3 700 -7 l 714 93 q 697 90 707 92 q 676 89 686 89 q 646 97 660 89 q 614 128 632 106 q 565 196 596 151 l 486 313 l 358 264 l 433 136 q 490 51 464 85 q 547 1 515 18 q 626 -15 579 -15 m 319 729 l 429 729 l 585 974 l 468 974 l 349 826 l 319 729 m 319 729 l 429 729 l 401 824 l 281 974 l 164 974 l 319 729 "},"ŗ":{"ha":744,"x_min":111,"x_max":731,"o":"m 111 0 l 263 0 l 263 531 l 356 531 q 444 507 413 531 q 476 442 476 483 q 442 380 476 403 q 349 357 408 357 l 189 357 l 189 244 l 321 244 q 487 271 418 244 q 592 347 556 297 q 629 463 629 396 q 561 608 629 558 q 369 657 493 657 l 111 657 l 111 0 m 626 -15 q 675 -11 650 -15 q 731 3 700 -7 l 714 93 q 697 90 707 92 q 676 89 686 89 q 646 97 660 89 q 614 128 632 106 q 565 196 596 151 l 486 313 l 358 264 l 433 136 q 490 51 464 85 q 547 1 515 18 q 626 -15 579 -15 m 349 -429 q 446 -333 410 -397 q 482 -206 482 -269 q 466 -129 482 -165 q 415 -68 450 -93 l 300 -153 q 324 -192 315 -167 q 332 -250 332 -218 q 321 -317 332 -283 q 288 -379 310 -351 l 349 -429 "},"ṛ":{"ha":744,"x_min":111,"x_max":731,"o":"m 111 0 l 263 0 l 263 531 l 356 531 q 444 507 413 531 q 476 442 476 483 q 442 380 476 403 q 349 357 408 357 l 189 357 l 189 244 l 321 244 q 487 271 418 244 q 592 347 556 297 q 629 463 629 396 q 561 608 629 558 q 369 657 493 657 l 111 657 l 111 0 m 626 -15 q 675 -11 650 -15 q 731 3 700 -7 l 714 93 q 697 90 707 92 q 676 89 686 89 q 646 97 660 89 q 614 128 632 106 q 565 196 596 151 l 486 313 l 358 264 l 433 136 q 490 51 464 85 q 547 1 515 18 q 626 -15 579 -15 m 390 -314 q 463 -287 435 -314 q 490 -217 490 -261 q 463 -145 490 -172 q 390 -118 435 -118 q 317 -145 344 -118 q 289 -217 289 -172 q 317 -287 289 -261 q 390 -314 344 -314 "},"ṝ":{"ha":744,"x_min":111,"x_max":731,"o":"m 111 0 l 263 0 l 263 531 l 356 531 q 444 507 413 531 q 476 442 476 483 q 442 380 476 403 q 349 357 408 357 l 189 357 l 189 244 l 321 244 q 487 271 418 244 q 592 347 556 297 q 629 463 629 396 q 561 608 629 558 q 369 657 493 657 l 111 657 l 111 0 m 626 -15 q 675 -11 650 -15 q 731 3 700 -7 l 714 93 q 697 90 707 92 q 676 89 686 89 q 646 97 660 89 q 614 128 632 106 q 565 196 596 151 l 486 313 l 358 264 l 433 136 q 490 51 464 85 q 547 1 515 18 q 626 -15 579 -15 m 390 -314 q 463 -287 435 -314 q 490 -217 490 -261 q 463 -145 490 -172 q 390 -118 435 -118 q 317 -145 344 -118 q 289 -217 289 -172 q 317 -287 289 -261 q 390 -314 344 -314 m 190 779 l 558 779 l 558 893 l 190 893 l 190 779 "},"ṟ":{"ha":744,"x_min":111,"x_max":731,"o":"m 111 0 l 263 0 l 263 531 l 356 531 q 444 507 413 531 q 476 442 476 483 q 442 380 476 403 q 349 357 408 357 l 189 357 l 189 244 l 321 244 q 487 271 418 244 q 592 347 556 297 q 629 463 629 396 q 561 608 629 558 q 369 657 493 657 l 111 657 l 111 0 m 626 -15 q 675 -11 650 -15 q 731 3 700 -7 l 714 93 q 697 90 707 92 q 676 89 686 89 q 646 97 660 89 q 614 128 632 106 q 565 196 596 151 l 486 313 l 358 264 l 433 136 q 490 51 464 85 q 547 1 515 18 q 626 -15 579 -15 m 206 -237 l 574 -237 l 574 -124 l 206 -124 l 206 -237 "},"s":{"ha":629,"x_min":50,"x_max":582,"o":"m 429 176 q 406 131 429 151 q 333 110 382 110 q 219 133 276 110 q 117 190 161 156 l 50 64 q 156 13 93 35 q 304 -10 218 -10 q 508 44 435 -10 q 582 183 582 99 q 557 272 582 236 q 492 331 532 307 q 409 372 453 354 q 326 404 365 389 q 261 438 286 419 q 236 483 236 457 q 253 526 236 501 q 322 550 271 550 q 412 533 361 550 q 503 485 463 517 l 568 608 q 469 648 533 629 q 335 667 406 667 q 151 610 218 667 q 83 468 83 554 q 108 378 83 414 q 173 321 133 343 q 256 283 213 299 q 340 254 300 268 q 404 223 379 240 q 429 176 429 206 "},"ś":{"ha":629,"x_min":50,"x_max":582,"o":"m 429 176 q 406 131 429 151 q 333 110 382 110 q 219 133 276 110 q 117 190 161 156 l 50 64 q 156 13 93 35 q 304 -10 218 -10 q 508 44 435 -10 q 582 183 582 99 q 557 272 582 236 q 492 331 532 307 q 409 372 453 354 q 326 404 365 389 q 261 438 286 419 q 236 483 236 457 q 253 526 236 501 q 322 550 271 550 q 412 533 361 550 q 503 485 463 517 l 568 608 q 469 648 533 629 q 335 667 406 667 q 151 610 218 667 q 83 468 83 554 q 108 378 83 414 q 173 321 133 343 q 256 283 213 299 q 340 254 300 268 q 404 223 379 240 q 429 176 429 206 m 249 729 l 368 729 l 531 974 l 344 974 l 249 729 "},"š":{"ha":629,"x_min":50,"x_max":582,"o":"m 429 176 q 406 131 429 151 q 333 110 382 110 q 219 133 276 110 q 117 190 161 156 l 50 64 q 156 13 93 35 q 304 -10 218 -10 q 508 44 435 -10 q 582 183 582 99 q 557 272 582 236 q 492 331 532 307 q 409 372 453 354 q 326 404 365 389 q 261 438 286 419 q 236 483 236 457 q 253 526 236 501 q 322 550 271 550 q 412 533 361 550 q 503 485 463 517 l 568 608 q 469 648 533 629 q 335 667 406 667 q 151 610 218 667 q 83 468 83 554 q 108 378 83 414 q 173 321 133 343 q 256 283 213 299 q 340 254 300 268 q 404 223 379 240 q 429 176 429 206 m 276 729 l 386 729 l 542 974 l 425 974 l 306 826 l 276 729 m 276 729 l 386 729 l 358 824 l 238 974 l 121 974 l 276 729 "},"ş":{"ha":629,"x_min":50,"x_max":582,"o":"m 429 176 q 406 131 429 151 q 333 110 382 110 q 219 133 276 110 q 117 190 161 156 l 50 64 q 156 13 93 35 q 304 -10 218 -10 q 508 44 435 -10 q 582 183 582 99 q 557 272 582 236 q 492 331 532 307 q 409 372 453 354 q 326 404 365 389 q 261 438 286 419 q 236 483 236 457 q 253 526 236 501 q 322 550 271 550 q 412 533 361 550 q 503 485 463 517 l 568 608 q 469 648 533 629 q 335 667 406 667 q 151 610 218 667 q 83 468 83 554 q 108 378 83 414 q 173 321 133 343 q 256 283 213 299 q 340 254 300 268 q 404 223 379 240 q 429 176 429 206 m 285 0 l 232 -167 q 261 -160 247 -162 q 289 -158 275 -158 q 355 -176 328 -158 q 382 -222 382 -193 q 365 -262 382 -243 q 310 -281 349 -281 q 255 -272 283 -281 q 207 -250 226 -264 l 178 -328 q 246 -361 208 -350 q 326 -372 283 -372 q 464 -332 413 -372 q 515 -225 515 -292 q 472 -123 515 -161 q 358 -85 428 -85 q 312 -90 332 -85 q 278 -107 292 -96 l 343 -128 l 378 0 l 285 0 "},"ŝ":{"ha":629,"x_min":50,"x_max":582,"o":"m 429 176 q 406 131 429 151 q 333 110 382 110 q 219 133 276 110 q 117 190 161 156 l 50 64 q 156 13 93 35 q 304 -10 218 -10 q 508 44 435 -10 q 582 183 582 99 q 557 272 582 236 q 492 331 532 307 q 409 372 453 354 q 326 404 365 389 q 261 438 286 419 q 236 483 236 457 q 253 526 236 501 q 322 550 271 550 q 412 533 361 550 q 503 485 463 517 l 568 608 q 469 648 533 629 q 335 667 406 667 q 151 610 218 667 q 83 468 83 554 q 108 378 83 414 q 173 321 133 343 q 256 283 213 299 q 340 254 300 268 q 404 223 379 240 q 429 176 429 206 m 425 729 l 542 729 l 386 974 l 276 974 l 306 876 l 425 729 m 121 729 l 238 729 l 358 879 l 386 974 l 276 974 l 121 729 "},"ș":{"ha":629,"x_min":50,"x_max":582,"o":"m 429 176 q 406 131 429 151 q 333 110 382 110 q 219 133 276 110 q 117 190 161 156 l 50 64 q 156 13 93 35 q 304 -10 218 -10 q 508 44 435 -10 q 582 183 582 99 q 557 272 582 236 q 492 331 532 307 q 409 372 453 354 q 326 404 365 389 q 261 438 286 419 q 236 483 236 457 q 253 526 236 501 q 322 550 271 550 q 412 533 361 550 q 503 485 463 517 l 568 608 q 469 648 533 629 q 335 667 406 667 q 151 610 218 667 q 83 468 83 554 q 108 378 83 414 q 173 321 133 343 q 256 283 213 299 q 340 254 300 268 q 404 223 379 240 q 429 176 429 206 m 289 -429 q 386 -333 350 -397 q 422 -206 422 -269 q 406 -129 422 -165 q 356 -68 390 -93 l 240 -153 q 264 -192 256 -167 q 272 -250 272 -218 q 261 -317 272 -283 q 228 -379 250 -351 l 289 -429 "},"ṡ":{"ha":629,"x_min":50,"x_max":582,"o":"m 429 176 q 406 131 429 151 q 333 110 382 110 q 219 133 276 110 q 117 190 161 156 l 50 64 q 156 13 93 35 q 304 -10 218 -10 q 508 44 435 -10 q 582 183 582 99 q 557 272 582 236 q 492 331 532 307 q 409 372 453 354 q 326 404 365 389 q 261 438 286 419 q 236 483 236 457 q 253 526 236 501 q 322 550 271 550 q 412 533 361 550 q 503 485 463 517 l 568 608 q 469 648 533 629 q 335 667 406 667 q 151 610 218 667 q 83 468 83 554 q 108 378 83 414 q 173 321 133 343 q 256 283 213 299 q 340 254 300 268 q 404 223 379 240 q 429 176 429 206 m 332 758 q 404 785 376 758 q 432 856 432 811 q 404 927 432 900 q 332 954 376 954 q 258 927 286 954 q 231 856 231 900 q 258 785 231 811 q 332 758 286 758 "},"ṣ":{"ha":629,"x_min":50,"x_max":582,"o":"m 429 176 q 406 131 429 151 q 333 110 382 110 q 219 133 276 110 q 117 190 161 156 l 50 64 q 156 13 93 35 q 304 -10 218 -10 q 508 44 435 -10 q 582 183 582 99 q 557 272 582 236 q 492 331 532 307 q 409 372 453 354 q 326 404 365 389 q 261 438 286 419 q 236 483 236 457 q 253 526 236 501 q 322 550 271 550 q 412 533 361 550 q 503 485 463 517 l 568 608 q 469 648 533 629 q 335 667 406 667 q 151 610 218 667 q 83 468 83 554 q 108 378 83 414 q 173 321 133 343 q 256 283 213 299 q 340 254 300 268 q 404 223 379 240 q 429 176 429 206 m 331 -314 q 403 -287 375 -314 q 431 -217 431 -261 q 403 -145 431 -172 q 331 -118 375 -118 q 257 -145 285 -118 q 229 -217 229 -172 q 257 -287 229 -261 q 331 -314 285 -314 "},"ß":{"ha":769,"x_min":100,"x_max":729,"o":"m 100 0 l 263 0 l 263 378 q 283 471 263 436 q 336 522 303 506 q 406 538 369 538 q 486 526 444 538 q 568 496 528 515 l 683 621 q 565 656 629 644 q 454 667 501 667 q 192 579 283 667 q 100 311 100 492 l 100 0 m 518 -7 q 621 22 572 -7 q 699 103 669 51 q 729 221 729 156 q 700 325 729 286 q 633 383 671 364 q 571 410 596 403 l 446 315 q 558 256 519 293 q 597 178 597 218 q 578 135 597 149 q 526 122 558 122 q 469 134 500 122 q 410 167 438 146 l 354 44 q 428 8 386 22 q 518 -7 471 -7 m 446 315 l 600 365 l 683 621 l 546 597 l 446 315 "},"ſ":{"ha":629,"x_min":50,"x_max":582,"o":"m 429 176 q 406 131 429 151 q 333 110 382 110 q 219 133 276 110 q 117 190 161 156 l 50 64 q 156 13 93 35 q 304 -10 218 -10 q 508 44 435 -10 q 582 183 582 99 q 557 272 582 236 q 492 331 532 307 q 409 372 453 354 q 326 404 365 389 q 261 438 286 419 q 236 483 236 457 q 253 526 236 501 q 322 550 271 550 q 412 533 361 550 q 503 485 463 517 l 568 608 q 469 648 533 629 q 335 667 406 667 q 151 610 218 667 q 83 468 83 554 q 108 378 83 414 q 173 321 133 343 q 256 283 213 299 q 340 254 300 268 q 404 223 379 240 q 429 176 429 206 "},"t":{"ha":672,"x_min":33,"x_max":639,"o":"m 254 0 l 418 0 l 418 657 l 254 657 l 254 0 m 33 528 l 639 528 l 639 657 l 33 657 l 33 528 "},"ŧ":{"ha":672,"x_min":33,"x_max":639,"o":"m 254 0 l 418 0 l 418 657 l 254 657 l 254 0 m 33 528 l 639 528 l 639 657 l 33 657 l 33 528 m 138 258 l 533 258 l 533 372 l 138 372 l 138 258 "},"ť":{"ha":672,"x_min":33,"x_max":639,"o":"m 254 0 l 418 0 l 418 657 l 254 657 l 254 0 m 33 528 l 639 528 l 639 657 l 33 657 l 33 528 m 281 729 l 390 729 l 546 974 l 429 974 l 310 826 l 281 729 m 281 729 l 390 729 l 363 824 l 242 974 l 125 974 l 281 729 "},"ţ":{"ha":672,"x_min":33,"x_max":639,"o":"m 254 0 l 418 0 l 418 657 l 254 657 l 254 0 m 33 528 l 639 528 l 639 657 l 33 657 l 33 528 m 290 0 l 238 -167 q 267 -160 253 -162 q 294 -158 281 -158 q 360 -176 333 -158 q 388 -222 388 -193 q 371 -262 388 -243 q 315 -281 354 -281 q 260 -272 289 -281 q 213 -250 232 -264 l 183 -328 q 251 -361 214 -350 q 332 -372 289 -372 q 469 -332 418 -372 q 521 -225 521 -292 q 477 -123 521 -161 q 364 -85 433 -85 q 317 -90 338 -85 q 283 -107 297 -96 l 349 -128 l 383 0 l 290 0 "},"ț":{"ha":672,"x_min":33,"x_max":639,"o":"m 254 0 l 418 0 l 418 657 l 254 657 l 254 0 m 33 528 l 639 528 l 639 657 l 33 657 l 33 528 m 294 -429 q 392 -333 356 -397 q 428 -206 428 -269 q 412 -129 428 -165 q 361 -68 396 -93 l 246 -153 q 269 -192 261 -167 q 278 -250 278 -218 q 267 -317 278 -283 q 233 -379 256 -351 l 294 -429 "},"ẗ":{"ha":672,"x_min":33,"x_max":639,"o":"m 254 0 l 418 0 l 418 657 l 254 657 l 254 0 m 33 528 l 639 528 l 639 657 l 33 657 l 33 528 m 199 749 q 266 774 240 749 q 292 839 292 800 q 266 906 292 881 q 199 932 240 932 q 131 906 157 932 q 106 839 106 881 q 131 774 106 800 q 199 749 157 749 m 474 749 q 540 774 514 749 q 565 839 565 800 q 540 906 565 881 q 474 932 514 932 q 404 906 431 932 q 378 839 378 881 q 404 774 378 800 q 474 749 431 749 "},"ṭ":{"ha":672,"x_min":33,"x_max":639,"o":"m 254 0 l 418 0 l 418 657 l 254 657 l 254 0 m 33 528 l 639 528 l 639 657 l 33 657 l 33 528 m 336 -314 q 408 -287 381 -314 q 436 -217 436 -261 q 408 -145 436 -172 q 336 -118 381 -118 q 263 -145 290 -118 q 235 -217 235 -172 q 263 -287 235 -261 q 336 -314 290 -314 "},"ṯ":{"ha":672,"x_min":33,"x_max":639,"o":"m 254 0 l 418 0 l 418 657 l 254 657 l 254 0 m 33 528 l 639 528 l 639 657 l 33 657 l 33 528 m 151 -237 l 519 -237 l 519 -124 l 151 -124 l 151 -237 "},"ꜩ":{"ha":1214,"x_min":33,"x_max":1163,"o":"m 617 0 l 1163 0 l 1163 121 l 697 113 l 750 10 l 1144 560 l 1004 608 l 617 96 l 617 0 m 254 0 l 418 0 l 418 657 l 254 657 l 254 0 m 33 528 l 1019 528 l 1144 560 l 1144 657 l 33 657 l 33 528 "},"u":{"ha":776,"x_min":83,"x_max":693,"o":"m 375 -10 q 542 29 471 -10 q 653 140 614 68 q 693 306 693 211 l 693 657 l 529 657 l 529 278 q 496 153 529 197 q 397 108 463 108 q 288 157 329 108 q 247 293 247 206 l 247 657 l 83 657 l 83 265 q 119 121 83 183 q 221 24 156 58 q 375 -10 286 -10 "},"ú":{"ha":776,"x_min":83,"x_max":693,"o":"m 375 -10 q 542 29 471 -10 q 653 140 614 68 q 693 306 693 211 l 693 657 l 529 657 l 529 278 q 496 153 529 197 q 397 108 463 108 q 288 157 329 108 q 247 293 247 206 l 247 657 l 83 657 l 83 265 q 119 121 83 183 q 221 24 156 58 q 375 -10 286 -10 m 306 729 l 425 729 l 588 974 l 401 974 l 306 729 "},"ŭ":{"ha":776,"x_min":83,"x_max":693,"o":"m 375 -10 q 542 29 471 -10 q 653 140 614 68 q 693 306 693 211 l 693 657 l 529 657 l 529 278 q 496 153 529 197 q 397 108 463 108 q 288 157 329 108 q 247 293 247 206 l 247 657 l 83 657 l 83 265 q 119 121 83 183 q 221 24 156 58 q 375 -10 286 -10 m 389 722 q 533 779 476 722 q 608 939 590 836 l 521 953 q 474 878 511 906 q 389 851 438 851 q 304 878 340 851 q 257 953 268 906 l 169 939 q 244 779 188 836 q 389 722 301 722 "},"ǔ":{"ha":776,"x_min":83,"x_max":693,"o":"m 375 -10 q 542 29 471 -10 q 653 140 614 68 q 693 306 693 211 l 693 657 l 529 657 l 529 278 q 496 153 529 197 q 397 108 463 108 q 288 157 329 108 q 247 293 247 206 l 247 657 l 83 657 l 83 265 q 119 121 83 183 q 221 24 156 58 q 375 -10 286 -10 m 333 729 l 443 729 l 599 974 l 482 974 l 363 826 l 333 729 m 333 729 l 443 729 l 415 824 l 294 974 l 178 974 l 333 729 "},"û":{"ha":776,"x_min":83,"x_max":693,"o":"m 375 -10 q 542 29 471 -10 q 653 140 614 68 q 693 306 693 211 l 693 657 l 529 657 l 529 278 q 496 153 529 197 q 397 108 463 108 q 288 157 329 108 q 247 293 247 206 l 247 657 l 83 657 l 83 265 q 119 121 83 183 q 221 24 156 58 q 375 -10 286 -10 m 482 729 l 599 729 l 443 974 l 333 974 l 363 876 l 482 729 m 178 729 l 294 729 l 415 879 l 443 974 l 333 974 l 178 729 "},"ü":{"ha":776,"x_min":83,"x_max":693,"o":"m 375 -10 q 542 29 471 -10 q 653 140 614 68 q 693 306 693 211 l 693 657 l 529 657 l 529 278 q 496 153 529 197 q 397 108 463 108 q 288 157 329 108 q 247 293 247 206 l 247 657 l 83 657 l 83 265 q 119 121 83 183 q 221 24 156 58 q 375 -10 286 -10 m 251 749 q 319 774 293 749 q 344 839 344 800 q 319 906 344 881 q 251 932 293 932 q 184 906 210 932 q 158 839 158 881 q 184 774 158 800 q 251 749 210 749 m 526 749 q 592 774 567 749 q 618 839 618 800 q 592 906 618 881 q 526 932 567 932 q 457 906 483 932 q 431 839 431 881 q 457 774 431 800 q 526 749 483 749 "},"ǘ":{"ha":776,"x_min":83,"x_max":693,"o":"m 375 -10 q 542 29 471 -10 q 653 140 614 68 q 693 306 693 211 l 693 657 l 529 657 l 529 278 q 496 153 529 197 q 397 108 463 108 q 288 157 329 108 q 247 293 247 206 l 247 657 l 83 657 l 83 265 q 119 121 83 183 q 221 24 156 58 q 375 -10 286 -10 m 251 719 q 319 745 293 719 q 344 810 344 771 q 319 877 344 851 q 251 903 293 903 q 184 877 210 903 q 158 810 158 851 q 184 745 158 771 q 251 719 210 719 m 526 719 q 592 745 567 719 q 618 810 618 771 q 592 877 618 851 q 526 903 567 903 q 457 877 483 903 q 431 810 431 851 q 457 745 431 771 q 526 719 483 719 m 313 935 l 440 935 l 596 1179 l 403 1179 l 313 935 "},"ǚ":{"ha":776,"x_min":83,"x_max":693,"o":"m 375 -10 q 542 29 471 -10 q 653 140 614 68 q 693 306 693 211 l 693 657 l 529 657 l 529 278 q 496 153 529 197 q 397 108 463 108 q 288 157 329 108 q 247 293 247 206 l 247 657 l 83 657 l 83 265 q 119 121 83 183 q 221 24 156 58 q 375 -10 286 -10 m 525 719 q 592 745 567 719 q 618 810 618 771 q 592 877 618 851 q 525 903 567 903 q 458 877 483 903 q 432 810 432 851 q 458 745 432 771 q 525 719 483 719 m 250 719 q 319 745 293 719 q 346 810 346 771 q 319 877 346 851 q 250 903 293 903 q 184 877 210 903 q 158 810 158 851 q 184 745 158 771 q 250 719 210 719 m 332 939 l 442 939 l 625 1183 l 501 1183 l 361 1043 l 332 939 m 332 939 l 442 939 l 414 1040 l 272 1183 l 149 1183 l 332 939 "},"ǜ":{"ha":776,"x_min":83,"x_max":693,"o":"m 375 -10 q 542 29 471 -10 q 653 140 614 68 q 693 306 693 211 l 693 657 l 529 657 l 529 278 q 496 153 529 197 q 397 108 463 108 q 288 157 329 108 q 247 293 247 206 l 247 657 l 83 657 l 83 265 q 119 121 83 183 q 221 24 156 58 q 375 -10 286 -10 m 528 719 q 595 745 569 719 q 621 810 621 771 q 595 877 621 851 q 528 903 569 903 q 460 877 486 903 q 435 810 435 851 q 460 745 435 771 q 528 719 486 719 m 253 719 q 322 745 296 719 q 349 810 349 771 q 322 877 349 851 q 253 903 296 903 q 187 877 213 903 q 161 810 161 851 q 187 745 161 771 q 253 719 213 719 m 456 940 l 365 1185 l 172 1185 l 328 940 l 456 940 "},"ǖ":{"ha":776,"x_min":83,"x_max":693,"o":"m 375 -10 q 542 29 471 -10 q 653 140 614 68 q 693 306 693 211 l 693 657 l 529 657 l 529 278 q 496 153 529 197 q 397 108 463 108 q 288 157 329 108 q 247 293 247 206 l 247 657 l 83 657 l 83 265 q 119 121 83 183 q 221 24 156 58 q 375 -10 286 -10 m 253 719 q 320 745 294 719 q 346 810 346 771 q 320 877 346 851 q 253 903 294 903 q 185 877 211 903 q 160 810 160 851 q 185 745 160 771 q 253 719 211 719 m 528 719 q 594 745 568 719 q 619 810 619 771 q 594 877 619 851 q 528 903 568 903 q 458 877 485 903 q 432 810 432 851 q 458 745 432 771 q 528 719 485 719 m 150 993 l 628 993 l 628 1107 l 150 1107 l 150 993 "},"ù":{"ha":776,"x_min":83,"x_max":693,"o":"m 375 -10 q 542 29 471 -10 q 653 140 614 68 q 693 306 693 211 l 693 657 l 529 657 l 529 278 q 496 153 529 197 q 397 108 463 108 q 288 157 329 108 q 247 293 247 206 l 247 657 l 83 657 l 83 265 q 119 121 83 183 q 221 24 156 58 q 375 -10 286 -10 m 353 729 l 472 729 l 376 974 l 190 974 l 353 729 "},"ű":{"ha":776,"x_min":83,"x_max":700,"o":"m 375 -10 q 542 29 471 -10 q 653 140 614 68 q 693 306 693 211 l 693 657 l 529 657 l 529 278 q 496 153 529 197 q 397 108 463 108 q 288 157 329 108 q 247 293 247 206 l 247 657 l 83 657 l 83 265 q 119 121 83 183 q 221 24 156 58 q 375 -10 286 -10 m 175 729 l 294 729 l 457 974 l 271 974 l 175 729 m 418 729 l 538 729 l 700 974 l 514 974 l 418 729 "},"ū":{"ha":776,"x_min":83,"x_max":693,"o":"m 375 -10 q 542 29 471 -10 q 653 140 614 68 q 693 306 693 211 l 693 657 l 529 657 l 529 278 q 496 153 529 197 q 397 108 463 108 q 288 157 329 108 q 247 293 247 206 l 247 657 l 83 657 l 83 265 q 119 121 83 183 q 221 24 156 58 q 375 -10 286 -10 m 204 779 l 572 779 l 572 893 l 204 893 l 204 779 "},"ų":{"ha":776,"x_min":83,"x_max":693,"o":"m 375 -10 q 542 29 471 -10 q 653 140 614 68 q 693 306 693 211 l 693 657 l 529 657 l 529 278 q 496 153 529 197 q 397 108 463 108 q 288 157 329 108 q 247 293 247 206 l 247 657 l 83 657 l 83 265 q 119 121 83 183 q 221 24 156 58 q 375 -10 286 -10 m 444 -403 q 593 -361 529 -403 l 554 -276 q 529 -284 542 -282 q 501 -286 517 -286 q 417 -258 449 -286 q 386 -175 386 -231 q 411 -81 386 -133 q 493 15 436 -28 l 438 56 q 278 -70 328 0 q 229 -214 229 -140 q 285 -350 229 -297 q 444 -403 342 -403 "},"ů":{"ha":776,"x_min":83,"x_max":693,"o":"m 375 -10 q 542 29 471 -10 q 653 140 614 68 q 693 306 693 211 l 693 657 l 529 657 l 529 278 q 496 153 529 197 q 397 108 463 108 q 288 157 329 108 q 247 293 247 206 l 247 657 l 83 657 l 83 265 q 119 121 83 183 q 221 24 156 58 q 375 -10 286 -10 m 388 697 q 476 715 438 697 q 538 765 515 733 q 561 835 561 796 q 540 906 561 875 q 480 956 518 938 q 392 975 442 975 q 301 957 340 975 q 240 908 263 939 q 217 838 217 878 q 239 765 217 797 q 300 715 261 733 q 388 697 339 697 m 390 757 q 353 779 368 757 q 338 838 338 801 q 352 893 338 872 q 389 914 367 914 q 426 892 413 914 q 440 835 440 871 q 426 778 440 800 q 390 757 413 757 "}}}
